<?xml version="1.0" standalone="no"?>
<!DOCTYPE svg PUBLIC "-//W3C//DTD SVG 1.1//EN" "http://www.w3.org/Graphics/SVG/1.1/DTD/svg11.dtd" >
<svg xmlns="http://www.w3.org/2000/svg" xmlns:xlink="http://www.w3.org/1999/xlink" version="1.1">
<metadata>
Created by FontForge 20161116 at Mon May  7 07:13:56 2007
 By Jimmy Warting
The digitally encoded machine readable outline data for producing the Typefaces licensed to you is copyrighted \(C\), 1997 by and the property of Linotype-Hell AG and/or its subsidiaries. All Rights Reserved.
</metadata>
<defs>
<font id="LinotypeUnivers-BasicBlack" horiz-adv-x="684" >
  <font-face 
    font-family="LinotypeUnivers"
    font-weight="900"
    font-stretch="normal"
    units-per-em="1000"
    panose-1="0 0 0 0 0 0 0 0 0 0"
    ascent="800"
    descent="-200"
    x-height="505"
    cap-height="723"
    bbox="-88 -227 1318 984"
    underline-thickness="50"
    underline-position="-100"
    stemh="100"
    stemv="206"
    unicode-range="U+0020-FB02"
  />
<missing-glyph horiz-adv-x="1000" 
 />
    <glyph glyph-name=".notdef" horiz-adv-x="1000" 
 />
    <glyph glyph-name="space" unicode=" " horiz-adv-x="342" 
 />
    <glyph glyph-name="exclam" unicode="!" horiz-adv-x="400" 
d="M313 723l-37 -511h-153l-36 511h226zM297 0h-195v144h195v-144z" />
    <glyph glyph-name="quotedbl" unicode="&#x22;" horiz-adv-x="514" 
d="M437 723l-27 -268h-103l-27 268h157zM235 723l-26 -268h-104l-28 268h158z" />
    <glyph glyph-name="numbersign" unicode="#" 
d="M636 421h-104l-23 -127h84v-117h-105l-32 -177h-131l32 177h-94l-31 -177h-131l31 177h-83v117h105l22 127h-85v116h106l33 186h131l-33 -186h94l32 186h132l-33 -186h83v-116zM401 421h-94l-23 -127h94z" />
    <glyph glyph-name="dollar" unicode="$" 
d="M631 218c0 -156 -120 -213 -238 -225v-87h-93v85c-153 7 -246 72 -247 225h183c1 -75 38 -108 103 -108c51 0 101 28 101 83c0 32 -19 52 -49 65s-66 20 -125 38c-69 21 -116 40 -150 71c-32 30 -52 70 -52 123c0 133 97 203 236 215v89h93v-88c140 -9 223 -76 224 -210
h-187c-3 68 -32 97 -88 97c-46 0 -89 -28 -89 -75c0 -59 131 -85 178 -100c95 -31 200 -61 200 -198z" />
    <glyph glyph-name="percent" unicode="%" horiz-adv-x="1085" 
d="M1060 206c0 -127 -60 -215 -200 -215c-139 0 -200 87 -200 214c0 135 63 218 201 218c137 0 199 -84 199 -217zM769 746l-315 -768h-143l316 768h142zM425 521c0 -127 -60 -214 -200 -214c-138 0 -200 86 -200 213c0 135 63 218 201 218c137 0 199 -84 199 -217zM912 213
c0 77 -11 125 -52 125c-43 0 -51 -49 -51 -128c0 -93 9 -132 51 -132c43 0 52 42 52 135zM276 529c0 77 -10 125 -51 125c-43 0 -51 -50 -51 -128c0 -92 10 -132 51 -132c43 0 51 42 51 135z" />
    <glyph glyph-name="ampersand" unicode="&#x26;" horiz-adv-x="886" 
d="M847 327h-119v-327h-315c-141 0 -353 16 -353 205c0 115 90 160 179 186c-83 21 -145 60 -145 161c0 126 116 188 267 188c44 0 86 -5 132 -12v-118c-27 5 -49 8 -74 8c-56 0 -113 -25 -113 -87c0 -68 68 -90 143 -90h83v130h196v-130h119v-114zM532 121v206h-92
c-87 0 -164 -25 -164 -105c0 -87 84 -101 172 -101h84z" />
    <glyph glyph-name="quoteright" unicode="&#x2019;" horiz-adv-x="366" 
d="M311 723l-115 -269h-141l69 269h187z" />
    <glyph glyph-name="parenleft" unicode="(" horiz-adv-x="355" 
d="M326 -157h-147c-55 144 -127 286 -127 443c0 141 75 306 128 437h146c-46 -146 -93 -291 -93 -442c0 -133 40 -294 93 -438z" />
    <glyph glyph-name="parenright" unicode=")" horiz-adv-x="355" 
d="M303 290c0 -156 -73 -304 -127 -447h-147c50 144 93 305 93 437c0 151 -45 297 -93 443h146c54 -129 128 -293 128 -433z" />
    <glyph glyph-name="asterisk" unicode="*" horiz-adv-x="473" 
d="M441 471l-148 34l105 -113l-119 -67l-43 149l-41 -150l-119 68l106 113l-150 -34v133l151 -36l-107 111l113 69l47 -148l44 148l117 -70l-105 -110l149 36v-133z" />
    <glyph glyph-name="plus" unicode="+" horiz-adv-x="662" 
d="M598 200h-200v-200h-134v200h-200v130h200v200h134v-200h200v-130z" />
    <glyph glyph-name="comma" unicode="," horiz-adv-x="342" 
d="M287 157l-123 -276h-144l69 276h198z" />
    <glyph glyph-name="hyphen" unicode="-" horiz-adv-x="357" 
d="M317 202h-277v126h277v-126z" />
    <glyph glyph-name="period" unicode="." horiz-adv-x="342" 
d="M269 0h-196v161h196v-161z" />
    <glyph glyph-name="slash" unicode="/" horiz-adv-x="338" 
d="M374 739l-261 -755h-149l261 755h149z" />
    <glyph glyph-name="zero" unicode="0" 
d="M649 359c0 -108 -19 -191 -65 -259c-50 -73 -130 -117 -245 -117c-215 0 -304 164 -304 382c0 217 93 375 309 375c219 0 305 -156 305 -381zM439 371c0 119 -13 251 -98 251c-90 0 -99 -125 -99 -264c0 -65 6 -150 29 -200c16 -34 35 -53 68 -53c88 0 100 121 100 266z
" />
    <glyph glyph-name="one" unicode="1" 
d="M493 0h-209v529c-46 -35 -101 -63 -165 -85v164c81 28 134 60 191 115h183v-723z" />
    <glyph glyph-name="two" unicode="2" 
d="M632 0h-596v131c182 113 382 279 382 403c0 52 -31 84 -78 84c-53 0 -80 -34 -83 -98h-208v11c4 148 117 210 294 210c90 0 162 -19 211 -57c45 -35 73 -91 73 -156c0 -100 -67 -190 -168 -274c-52 -44 -110 -85 -174 -128h347v-126z" />
    <glyph glyph-name="three" unicode="3" 
d="M649 201c0 -153 -139 -217 -321 -217c-177 0 -294 70 -299 224h209c0 -64 54 -96 99 -96c58 0 99 42 99 99c0 67 -58 99 -117 99c-16 0 -38 -2 -72 -3v129c40 -1 55 -2 75 -2c46 0 104 33 104 99c0 57 -38 87 -89 87c-46 0 -85 -22 -85 -92h-208v9c1 55 19 97 51 128
c54 51 150 77 253 77c158 0 286 -59 286 -197c0 -95 -56 -151 -155 -166c105 -16 170 -74 170 -178z" />
    <glyph glyph-name="four" unicode="4" 
d="M670 150h-99v-150h-198v150h-344v155l279 418h263v-454h99v-119zM377 582l-200 -313h199z" />
    <glyph glyph-name="five" unicode="5" 
d="M646 246c0 -84 -30 -151 -81 -196c-53 -46 -123 -68 -222 -68c-121 0 -207 25 -257 92c-28 38 -38 79 -38 125h205c2 -61 38 -94 91 -94c66 0 97 57 97 138c0 73 -30 127 -93 127c-45 0 -77 -23 -85 -73h-206l15 425l537 1v-125h-354l-8 -187c43 58 96 83 171 83
c141 0 228 -103 228 -248z" />
    <glyph glyph-name="six" unicode="6" 
d="M649 250c0 -160 -116 -266 -292 -266c-228 0 -315 154 -315 379c0 222 99 378 323 378c149 0 260 -71 261 -204h-195c0 60 -28 88 -78 88c-47 0 -77 -33 -93 -91c-13 -46 -17 -96 -19 -160c46 77 97 105 183 105c133 0 225 -88 225 -229zM444 231c0 78 -28 127 -91 127
c-67 0 -95 -52 -95 -124c0 -76 34 -127 95 -127s91 50 91 124z" />
    <glyph glyph-name="seven" unicode="7" 
d="M618 583l-269 -583h-235l298 595h-356v128h562v-140z" />
    <glyph glyph-name="eight" unicode="8" 
d="M647 197c0 -71 -36 -130 -89 -164c-55 -35 -123 -49 -209 -49c-94 0 -168 14 -225 50c-53 33 -87 88 -87 158c0 102 70 160 175 183c-66 17 -151 62 -151 170c0 62 29 113 74 143c53 36 126 51 213 51c80 0 146 -12 196 -41s85 -83 85 -148c0 -93 -56 -150 -146 -175
c68 -13 164 -60 164 -178zM435 528c0 65 -36 100 -89 100c-54 0 -92 -34 -92 -98c0 -67 37 -96 91 -96c51 0 90 32 90 94zM444 216c0 74 -44 110 -101 110c-56 0 -100 -38 -100 -113s42 -113 100 -113s101 38 101 116z" />
    <glyph glyph-name="nine" unicode="9" 
d="M642 379c0 -250 -86 -396 -319 -396c-155 0 -276 70 -276 203h196c2 -37 11 -82 86 -82c54 0 83 35 98 90c7 26 12 57 14 91c1 22 1 28 2 68c-42 -70 -91 -91 -177 -91c-130 0 -230 90 -230 225c0 158 118 254 294 254c222 0 312 -141 312 -362zM430 503
c0 72 -34 114 -95 114c-62 0 -94 -43 -94 -114c0 -74 33 -122 92 -122c60 0 97 47 97 122z" />
    <glyph glyph-name="colon" unicode=":" horiz-adv-x="342" 
d="M269 344h-196v158h196v-158zM269 0h-196v157h196v-157z" />
    <glyph glyph-name="semicolon" unicode=";" horiz-adv-x="342" 
d="M270 344h-194v158h194v-158zM287 157l-123 -276h-144l69 276h198z" />
    <glyph glyph-name="less" unicode="&#x3c;" horiz-adv-x="662" 
d="M598 -11l-534 209v134l534 207v-139l-377 -136l377 -134v-141z" />
    <glyph glyph-name="equal" unicode="=" horiz-adv-x="662" 
d="M598 315h-534v131h534v-131zM598 84h-534v130h534v-130z" />
    <glyph glyph-name="greater" unicode="&#x3e;" horiz-adv-x="661" 
d="M597 198l-533 -209v141l377 134l-377 136v139l533 -207v-134z" />
    <glyph glyph-name="question" unicode="?" horiz-adv-x="544" 
d="M511 544c0 -81 -53 -128 -127 -186c-68 -53 -77 -63 -77 -126v-32h-174v70c0 29 13 55 40 89c52 64 119 114 119 171c0 65 -62 93 -134 93c-35 0 -62 -5 -115 -18v118c75 13 122 18 175 18c169 0 293 -54 293 -197zM317 0h-195v144h195v-144z" />
    <glyph glyph-name="at" unicode="@" horiz-adv-x="848" 
d="M802 435c0 -123 -79 -265 -221 -265c-46 0 -81 27 -87 69c-30 -46 -75 -74 -133 -74c-96 0 -144 78 -144 163c0 112 80 246 208 246c42 0 79 -16 100 -53l10 35h112c-23 -80 -73 -235 -73 -270c0 -23 11 -30 30 -30c66 0 113 113 113 183c0 155 -114 224 -261 224
c-181 0 -325 -129 -325 -312c0 -180 138 -293 314 -293c97 0 185 37 269 101l44 -60c-103 -75 -197 -115 -318 -115c-218 0 -394 143 -394 369c0 228 184 386 405 386c186 0 351 -101 351 -304zM488 444c0 22 -15 39 -38 39c-58 0 -99 -108 -99 -165c0 -33 12 -63 41 -63
c61 0 96 140 96 189z" />
    <glyph glyph-name="A" unicode="A" horiz-adv-x="784" 
d="M794 0h-233l-50 157h-263l-50 -157h-208l261 723h276zM475 282l-96 308l-97 -308h193z" />
    <glyph glyph-name="B" unicode="B" horiz-adv-x="749" 
d="M714 202c0 -88 -54 -150 -128 -178c-43 -17 -102 -24 -165 -24h-349v723h332c77 0 124 -3 167 -19c72 -26 118 -78 118 -158c0 -93 -58 -145 -160 -169c115 -18 185 -74 185 -175zM478 515c0 59 -46 80 -105 80h-93v-164h88c62 0 110 18 110 84zM497 218
c0 70 -43 91 -111 91h-106v-180h101c67 0 116 20 116 89z" />
    <glyph glyph-name="C" unicode="C" horiz-adv-x="754" 
d="M727 231c-14 -172 -146 -246 -325 -246c-244 0 -365 137 -365 369c0 237 124 381 367 381c117 0 215 -32 272 -107c27 -36 41 -79 45 -138h-224c-5 77 -39 111 -95 111c-101 0 -134 -110 -134 -249c0 -132 34 -233 133 -233c59 0 95 36 101 112h225z" />
    <glyph glyph-name="D" unicode="D" horiz-adv-x="809" 
d="M772 362c0 -161 -64 -264 -176 -319c-66 -32 -140 -43 -241 -43h-283v723h291c129 0 218 -21 289 -74c76 -58 120 -154 120 -287zM542 363c0 95 -22 157 -64 193c-29 24 -68 35 -124 35h-63v-459h65c133 0 186 61 186 231z" />
    <glyph glyph-name="E" unicode="E" horiz-adv-x="657" 
d="M624 0h-552v723h541v-137h-327v-153h311v-134h-311v-164h338v-135z" />
    <glyph glyph-name="F" unicode="F" horiz-adv-x="622" 
d="M600 586h-314v-164h296v-133h-296v-289h-214v723h528v-137z" />
    <glyph glyph-name="G" unicode="G" horiz-adv-x="802" 
d="M747 39c-104 -38 -199 -54 -317 -54c-128 0 -225 33 -291 97s-102 162 -102 279c0 232 140 374 388 374c191 0 313 -75 322 -240h-210c-10 74 -49 105 -115 105c-113 0 -154 -101 -154 -243c0 -69 15 -136 42 -178s69 -64 132 -64c37 0 69 4 104 15v146h-127v119h328
v-356z" />
    <glyph glyph-name="H" unicode="H" horiz-adv-x="818" 
d="M746 0h-222v298h-230v-298h-222v723h222v-288h230v288h222v-723z" />
    <glyph glyph-name="I" unicode="I" horiz-adv-x="366" 
d="M294 0h-222v723h222v-723z" />
    <glyph glyph-name="J" unicode="J" horiz-adv-x="655" 
d="M591 253c0 -102 -26 -165 -86 -211c-52 -40 -120 -58 -212 -58c-177 0 -287 69 -287 232v24h213c-1 -30 1 -36 2 -50c3 -47 28 -73 71 -73c32 0 53 15 64 38c10 20 13 47 13 95v473h222v-470z" />
    <glyph glyph-name="K" unicode="K" horiz-adv-x="798" 
d="M809 0h-264l-250 396l224 327h250l-250 -320zM294 0h-222v723h222v-723z" />
    <glyph glyph-name="L" unicode="L" horiz-adv-x="626" 
d="M612 0h-540v723h222v-589h318v-134z" />
    <glyph glyph-name="M" unicode="M" horiz-adv-x="1063" 
d="M991 0h-202v570l-175 -570h-185l-175 570v-570h-182v723h318l143 -503l140 503h318v-723z" />
    <glyph glyph-name="N" unicode="N" horiz-adv-x="853" 
d="M781 0h-295l-223 532v-532h-191v723h295l222 -520v520h192v-723z" />
    <glyph glyph-name="O" unicode="O" horiz-adv-x="806" 
d="M769 362c0 -113 -28 -201 -86 -266c-64 -72 -160 -112 -286 -112c-237 0 -360 147 -360 378c0 228 127 377 370 377c242 0 362 -149 362 -377zM541 363c0 64 -12 135 -35 178c-23 42 -54 65 -103 65c-57 0 -90 -31 -112 -87c-17 -44 -25 -105 -25 -158
c0 -138 31 -243 136 -243s139 105 139 245z" />
    <glyph glyph-name="P" unicode="P" horiz-adv-x="725" 
d="M703 495c0 -98 -47 -173 -133 -207c-39 -15 -89 -21 -158 -21h-122v-267h-218v723h328c93 0 159 -7 212 -43c62 -41 91 -105 91 -185zM487 496c0 75 -52 95 -129 95h-68v-193h63c76 0 134 23 134 98z" />
    <glyph glyph-name="Q" unicode="Q" horiz-adv-x="806" 
d="M822 0h-117c-56 0 -114 -1 -136 -2c-63 -3 -127 -9 -189 -9c-93 0 -174 30 -232 81c-74 65 -111 167 -111 290c0 226 129 378 365 378s368 -138 368 -348c0 -115 -41 -209 -130 -270c37 5 62 7 104 8c32 1 51 1 78 1v-129zM542 363c0 70 -15 145 -44 189
c-22 33 -51 52 -95 52c-101 0 -137 -106 -137 -240c0 -141 32 -244 138 -244c50 0 83 24 104 65c23 45 34 115 34 178z" />
    <glyph glyph-name="R" unicode="R" horiz-adv-x="765" 
d="M736 0h-224c-9 29 -14 59 -19 89c-5 32 -9 64 -14 95c-13 81 -28 103 -108 103h-78v-287h-221v723h347c87 0 139 -4 188 -27c63 -30 103 -84 103 -156c0 -58 -25 -107 -67 -139c-26 -20 -55 -31 -101 -42c99 -4 135 -73 149 -145c8 -42 15 -85 21 -128
c5 -31 12 -57 24 -86zM501 505c0 74 -57 87 -138 87h-70v-178h68c77 0 140 15 140 91z" />
    <glyph glyph-name="S" unicode="S" horiz-adv-x="747" 
d="M713 224c0 -189 -195 -240 -348 -240c-200 0 -331 67 -332 238h221c1 -78 38 -114 115 -114c60 0 113 30 113 88c0 34 -22 54 -57 68c-36 14 -72 21 -141 40c-81 22 -137 42 -177 75c-38 31 -61 73 -61 129c0 155 146 229 337 229c190 0 313 -69 314 -222h-220
c-3 71 -38 102 -104 102c-54 0 -99 -30 -99 -79c0 -62 149 -89 204 -105c112 -33 235 -65 235 -209z" />
    <glyph glyph-name="T" unicode="T" horiz-adv-x="667" 
d="M663 584h-219v-584h-222v584h-218v139h659v-139z" />
    <glyph glyph-name="U" unicode="U" horiz-adv-x="803" 
d="M735 298c0 -106 -22 -174 -71 -225c-57 -59 -149 -89 -270 -89c-124 0 -227 31 -281 116c-35 55 -45 117 -45 192v431h222v-451c0 -98 22 -154 113 -154c92 0 118 60 118 156v449h214v-425z" />
    <glyph glyph-name="V" unicode="V" horiz-adv-x="735" 
d="M744 723l-252 -723h-255l-246 723h234l151 -523l159 523h209z" />
    <glyph glyph-name="W" unicode="W" horiz-adv-x="1137" 
d="M1133 723l-178 -723h-254l-129 542l-137 -542h-257l-174 723h218l104 -521l123 521h254l133 -511l94 511h203z" />
    <glyph glyph-name="X" unicode="X" horiz-adv-x="777" 
d="M786 0h-242l-158 261l-152 -261h-243l257 379l-239 344h247l138 -238l137 238h233l-239 -346z" />
    <glyph glyph-name="Y" unicode="Y" horiz-adv-x="704" 
d="M723 724l-263 -467v-257h-222v262l-257 462h238l141 -307l148 307h215z" />
    <glyph glyph-name="Z" unicode="Z" horiz-adv-x="663" 
d="M641 0h-619v142l357 444h-334v137h583v-146l-355 -443h368v-134z" />
    <glyph glyph-name="bracketleft" unicode="[" horiz-adv-x="355" 
d="M350 -157h-286v880h286v-91h-121v-697h121v-92z" />
    <glyph glyph-name="backslash" unicode="\" horiz-adv-x="338" 
d="M374 -16h-149l-261 755h148z" />
    <glyph glyph-name="bracketright" unicode="]" horiz-adv-x="355" 
d="M291 -157h-286v92h121v697h-121v91h286v-880z" />
    <glyph glyph-name="asciicircum" unicode="^" horiz-adv-x="662" 
d="M572 272h-141l-100 273l-100 -273h-141l181 432h120z" />
    <glyph glyph-name="underscore" unicode="_" horiz-adv-x="501" 
d="M501 -124h-501v49h501v-49z" />
    <glyph glyph-name="quoteleft" unicode="&#x2018;" horiz-adv-x="366" 
d="M55 454l115 269h141l-69 -269h-187z" />
    <glyph glyph-name="a" unicode="a" horiz-adv-x="649" 
d="M599 0h-191c-7 27 -10 47 -12 81c-39 -66 -95 -91 -183 -91c-112 0 -185 51 -185 155c0 136 135 171 314 171h53v31c0 41 -19 81 -71 81c-50 0 -72 -27 -72 -68h-195c6 135 157 157 264 157c98 0 169 -13 214 -51c39 -32 56 -75 56 -150v-168c0 -60 0 -97 8 -148z
M395 238c-22 1 -48 1 -54 1c-61 0 -124 -23 -124 -82c0 -40 31 -67 71 -67c83 0 107 71 107 148z" />
    <glyph glyph-name="b" unicode="b" horiz-adv-x="696" 
d="M665 254c0 -157 -77 -266 -237 -266c-73 0 -117 22 -164 76l-1 -64h-205c2 23 2 112 2 135v588h206v-292c45 60 96 86 171 86c156 0 228 -104 228 -263zM454 253c0 91 -20 157 -93 157c-76 0 -100 -66 -100 -162c0 -86 23 -156 95 -156c77 0 98 68 98 161z" />
    <glyph glyph-name="c" unicode="c" horiz-adv-x="635" 
d="M611 314h-200c-2 69 -23 104 -77 104c-75 0 -93 -70 -93 -162s17 -164 90 -164c57 0 78 36 80 105h199c-12 -82 -27 -209 -280 -209c-102 0 -168 20 -217 62c-52 45 -82 116 -82 200s32 157 88 204c50 42 121 64 219 64c167 0 260 -58 273 -204z" />
    <glyph glyph-name="d" unicode="d" horiz-adv-x="696" 
d="M638 0h-205c-1 10 -3 46 -4 66c-45 -56 -85 -77 -167 -77c-157 0 -231 104 -231 260c0 153 72 268 229 268c75 0 124 -22 170 -81v287h206v-578c0 -58 -2 -104 2 -145zM435 248c0 95 -25 161 -101 161c-74 0 -93 -65 -93 -159c0 -90 22 -158 98 -158c72 0 96 70 96 156z
" />
    <glyph glyph-name="e" unicode="e" horiz-adv-x="654" 
d="M624 224h-391c3 -83 30 -138 101 -138c56 0 87 28 93 83h191c-7 -48 -31 -85 -68 -117c-53 -45 -126 -63 -219 -63c-111 0 -182 24 -232 75c-43 44 -68 110 -68 183c0 170 105 271 302 271c131 0 225 -45 267 -142c19 -43 23 -86 24 -152zM427 312c0 74 -32 114 -92 114
s-99 -41 -99 -114h191z" />
    <glyph glyph-name="f" unicode="f" horiz-adv-x="423" 
d="M427 607c-18 1 -34 1 -48 1c-66 -2 -73 -21 -73 -77v-26h111v-123h-111v-382h-206v382h-92v123h92v42c0 114 63 180 208 180c49 0 57 -1 119 -5v-115z" />
    <glyph glyph-name="g" unicode="g" horiz-adv-x="694" 
d="M636 505c-1 -28 -2 -134 -2 -150v-288c0 -73 -11 -116 -40 -159c-49 -71 -133 -107 -270 -107c-129 0 -257 40 -268 172h183c2 -50 38 -69 88 -69c79 0 105 49 107 127c0 11 1 65 1 77c-43 -64 -98 -91 -180 -91c-146 0 -223 102 -223 250c0 150 77 249 233 249
c77 0 129 -24 173 -84v73h198zM435 268c0 81 -27 145 -97 145c-71 0 -95 -63 -95 -148c0 -78 24 -140 94 -140c73 0 98 64 98 143z" />
    <glyph glyph-name="h" unicode="h" horiz-adv-x="688" 
d="M628 0h-206v278c0 73 -7 122 -74 122c-36 0 -58 -20 -70 -48c-9 -22 -12 -44 -12 -78v-274h-206v723h206v-295c44 59 96 86 176 86c84 0 141 -29 168 -85c13 -27 18 -56 18 -116v-313z" />
    <glyph glyph-name="i" unicode="i" horiz-adv-x="326" 
d="M266 584h-206v139h206v-139zM266 0h-206v505h206v-505z" />
    <glyph glyph-name="j" unicode="j" horiz-adv-x="326" 
d="M266 584h-206v139h206v-139zM266 -23c0 -78 -12 -109 -44 -136c-27 -23 -65 -32 -118 -32c-11 0 -107 1 -118 2v121h22c38 0 52 26 52 80v493h206v-528z" />
    <glyph glyph-name="k" unicode="k" horiz-adv-x="677" 
d="M680 0h-237l-177 281l162 224h231l-177 -214zM266 0h-206v723h206v-723z" />
    <glyph glyph-name="l" unicode="l" horiz-adv-x="326" 
d="M266 0h-206v723h206v-723z" />
    <glyph glyph-name="m" unicode="m" horiz-adv-x="1046" 
d="M986 0h-206v289c0 67 -12 110 -75 110c-65 0 -79 -43 -79 -113v-286h-206v288c0 32 -1 52 -8 70c-10 25 -30 42 -65 42c-34 0 -58 -17 -70 -43c-8 -18 -11 -34 -11 -69v-288h-206v349c0 55 -1 102 -5 156h203c2 -14 5 -61 6 -79c42 62 99 87 179 87s132 -25 165 -92
c48 68 102 92 184 92c91 0 148 -32 175 -91c13 -29 19 -64 19 -117v-305z" />
    <glyph glyph-name="n" unicode="n" horiz-adv-x="687" 
d="M627 0h-206v278c0 37 0 61 -8 81c-10 25 -31 41 -66 41c-36 0 -59 -19 -70 -47c-10 -23 -11 -48 -11 -84v-269h-206v376c0 48 -1 82 -5 129h204c2 -14 5 -68 5 -78c53 63 97 86 175 86c71 0 123 -21 154 -62c24 -32 34 -74 34 -138v-313z" />
    <glyph glyph-name="o" unicode="o" horiz-adv-x="681" 
d="M650 255c0 -171 -114 -267 -311 -267c-193 0 -308 96 -308 266c0 78 31 146 82 191c55 48 132 73 232 73c191 0 305 -96 305 -263zM439 254c0 89 -24 161 -100 161c-75 0 -99 -71 -99 -160c0 -39 6 -79 20 -110c16 -35 39 -54 80 -54c74 0 99 74 99 163z" />
    <glyph glyph-name="p" unicode="p" horiz-adv-x="696" 
d="M665 259c0 -159 -76 -270 -232 -270c-74 0 -118 19 -167 77v-256h-206v571c0 21 -1 103 -2 124h204l1 -69c44 58 97 82 172 82c154 0 230 -105 230 -259zM455 254c0 90 -23 158 -96 158c-74 0 -98 -70 -98 -158c0 -91 22 -162 95 -162c76 0 99 69 99 162z" />
    <glyph glyph-name="q" unicode="q" horiz-adv-x="696" 
d="M638 505c-2 -25 -2 -104 -2 -124v-571h-206v258c-49 -57 -95 -79 -168 -79c-157 0 -231 103 -231 268c0 150 76 261 227 261c77 0 129 -24 174 -82l1 69h205zM435 256c0 88 -26 158 -99 158s-94 -68 -94 -158c0 -94 21 -163 97 -163c73 0 96 71 96 163z" />
    <glyph glyph-name="r" unicode="r" horiz-adv-x="465" 
d="M456 344c-24 4 -38 6 -54 6c-50 0 -88 -18 -109 -48c-19 -27 -26 -60 -26 -114v-188h-206v357c0 60 -2 98 -5 148h202c2 -17 6 -77 6 -100c37 72 86 102 161 102c10 0 18 1 31 -2v-161z" />
    <glyph glyph-name="s" unicode="s" horiz-adv-x="602" 
d="M575 154c0 -114 -127 -166 -272 -166c-132 0 -276 34 -276 173h195c1 -57 30 -83 81 -83c45 0 84 20 84 61c0 40 -58 49 -90 58c-34 9 -69 13 -103 21c-75 17 -153 48 -153 138c0 131 151 161 253 161c109 0 262 -27 265 -163h-186c-1 51 -35 75 -75 75
c-37 0 -74 -18 -74 -54c0 -29 20 -42 65 -52c61 -13 117 -19 176 -40c59 -20 110 -52 110 -129z" />
    <glyph glyph-name="t" unicode="t" horiz-adv-x="431" 
d="M418 1c-44 -6 -87 -9 -124 -9c-146 0 -198 32 -198 167v221h-92v125h92v96l197 75v-171h125v-125h-125v-160c0 -17 1 -67 13 -80c11 -13 29 -19 60 -19c14 0 27 2 52 4v-124z" />
    <glyph glyph-name="u" unicode="u" horiz-adv-x="688" 
d="M632 0h-204c-2 14 -5 68 -5 78c-47 -61 -94 -86 -174 -86c-70 0 -121 21 -153 62c-26 33 -36 72 -36 138v313h206v-279c0 -74 6 -121 74 -121c36 0 58 17 70 44c9 21 12 43 12 83v273h206v-332c0 -63 0 -114 4 -173z" />
    <glyph glyph-name="v" unicode="v" horiz-adv-x="636" 
d="M644 505l-209 -505h-233l-210 505h224l108 -335l116 335h204z" />
    <glyph glyph-name="w" unicode="w" horiz-adv-x="982" 
d="M982 505l-174 -505h-210l-100 338l-104 -338h-216l-178 505h217l85 -321l96 321h211l93 -321l85 321h195z" />
    <glyph glyph-name="x" unicode="x" horiz-adv-x="640" 
d="M643 0h-234l-93 180l-97 -180h-222l174 263l-153 242h224l76 -163l80 163h222l-152 -242z" />
    <glyph glyph-name="y" unicode="y" horiz-adv-x="638" 
d="M646 505l-302 -695h-210l97 202l-239 493h228l111 -324l107 324h208z" />
    <glyph glyph-name="z" unicode="z" horiz-adv-x="539" 
d="M513 0h-487v119l248 266h-232v120h466v-122l-237 -265h242v-118z" />
    <glyph glyph-name="braceleft" unicode="{" horiz-adv-x="385" 
d="M375 -163c-265 17 -257 149 -262 258c-3 71 -13 131 -108 143v91c105 13 108 84 109 159c2 104 13 228 261 240v-86c-107 -4 -108 -84 -109 -164c-1 -100 -16 -185 -152 -194c140 -13 149 -101 152 -186c2 -85 -2 -168 109 -174v-87z" />
    <glyph glyph-name="bar" unicode="|" horiz-adv-x="274" 
d="M214 -213h-154v994h154v-994z" />
    <glyph glyph-name="braceright" unicode="}" horiz-adv-x="385" 
d="M380 238c-95 -12 -105 -72 -108 -143c-5 -109 3 -241 -262 -258v87c111 6 107 89 109 174s12 173 152 186c-136 9 -151 94 -152 194c-1 80 -2 160 -109 164v86c248 -12 259 -136 261 -240c1 -75 4 -146 109 -159v-91z" />
    <glyph glyph-name="asciitilde" unicode="~" horiz-adv-x="663" 
d="M608 361c-7 -87 -48 -193 -152 -193c-83 0 -180 63 -256 63c-36 0 -55 -28 -59 -60h-86c5 85 51 191 151 191c86 0 172 -61 257 -61c37 0 53 27 58 60h87z" />
    <glyph glyph-name="exclamdown" unicode="&#xa1;" horiz-adv-x="400" 
d="M297 363h-195v144h195v-144zM313 -216h-226l36 511h153z" />
    <glyph glyph-name="cent" unicode="&#xa2;" 
d="M632 197c-10 -147 -114 -210 -281 -210h-31l-33 -117l-83 17l33 115c-41 11 -81 28 -107 52c-52 47 -80 119 -80 197c0 77 27 150 83 200c54 48 150 67 241 67l31 109l84 -18l-32 -103c104 -25 163 -86 173 -191h-200c-2 69 -23 103 -76 103c-75 0 -94 -70 -94 -162
s18 -165 91 -165c56 0 76 38 79 106h202z" />
    <glyph glyph-name="sterling" unicode="&#xa3;" 
d="M665 527h-199c-3 60 -23 92 -77 92c-44 0 -68 -23 -78 -57c-9 -30 -9 -58 -9 -104v-13h132v-115h-132v-212h337v-118h-599v118h65v212h-83v115h83c0 82 10 134 37 179c43 73 128 116 251 116c115 0 200 -29 241 -94c19 -30 28 -64 31 -119z" />
    <glyph glyph-name="fraction" unicode="&#x2044;" horiz-adv-x="302" 
d="M390 746l-335 -768h-143l335 768h143z" />
    <glyph glyph-name="yen" unicode="&#xa5;" 
d="M685 723l-200 -365h120v-84h-157v-59h157v-84h-157v-131h-222v131h-157v84h157v59h-157v84h123l-192 365h233l117 -277l124 277h211z" />
    <glyph glyph-name="florin" unicode="&#x192;" 
d="M597 732l-22 -122c-13 3 -23 4 -32 4c-48 0 -62 -39 -71 -85c-2 -12 -12 -55 -14 -67h98l-22 -114h-98l-48 -248c-15 -79 -26 -130 -57 -179c-36 -56 -94 -95 -183 -95c-39 0 -71 5 -105 16l23 117c12 -2 19 -4 29 -4c48 0 62 28 73 85l60 308h-95l22 114h95
c3 14 13 73 16 88c23 115 76 195 208 195c41 0 84 -5 123 -13z" />
    <glyph glyph-name="section" unicode="&#xa7;" horiz-adv-x="641" 
d="M577 379c0 -65 -39 -106 -99 -131c54 -28 87 -57 87 -117c0 -48 -27 -87 -69 -112c-45 -26 -111 -36 -188 -36c-88 0 -151 6 -216 23v109c49 -19 105 -29 163 -29c49 0 101 8 101 48c0 22 -18 32 -63 46c-54 16 -126 37 -165 61c-41 25 -66 64 -66 113
c0 70 43 110 113 141c-56 25 -86 57 -86 111c0 100 105 136 246 136c67 0 121 -7 181 -20v-107c-48 13 -114 24 -150 24s-73 -12 -72 -43c0 -21 17 -31 59 -46c76 -27 129 -40 165 -64c38 -25 59 -60 59 -107zM395 362c0 44 -38 62 -94 88c-28 -24 -51 -47 -51 -75
c0 -45 47 -68 102 -84c24 20 43 42 43 71z" />
    <glyph glyph-name="currency" unicode="&#xa4;" 
d="M601 178l-80 -80l-67 66c-35 -19 -71 -30 -111 -30c-42 0 -76 10 -113 30l-68 -66l-78 79l66 67c-20 35 -31 70 -31 110c0 41 12 78 31 114l-66 65l78 79l68 -66c36 19 71 30 112 30s77 -11 113 -30l66 65l79 -78l-66 -66c19 -36 30 -72 30 -113c0 -40 -11 -76 -30 -111z
M446 354c0 57 -46 105 -104 105c-59 0 -105 -47 -105 -105c0 -57 48 -104 105 -104s104 47 104 104z" />
    <glyph glyph-name="quotesingle" unicode="'" horiz-adv-x="321" 
d="M239 723l-26 -268h-104l-27 268h157z" />
    <glyph glyph-name="quotedblleft" unicode="&#x201c;" horiz-adv-x="630" 
d="M319 454l115 269h141l-69 -269h-187zM55 454l115 269h141l-69 -269h-187z" />
    <glyph glyph-name="guillemotleft" unicode="&#xab;" horiz-adv-x="637" 
d="M594 54h-162l-123 196l123 193h162l-117 -194zM328 54h-162l-123 196l122 193h163l-117 -194z" />
    <glyph glyph-name="guilsinglleft" unicode="&#x2039;" horiz-adv-x="371" 
d="M328 54h-162l-123 196l123 193h162l-117 -194z" />
    <glyph glyph-name="guilsinglright" unicode="&#x203a;" horiz-adv-x="371" 
d="M328 247l-122 -193h-163l117 194l-117 195h162z" />
    <glyph glyph-name="fi" unicode="&#xfb01;" horiz-adv-x="739" 
d="M679 584h-206v139h206v-139zM679 0h-206v505h206v-505zM427 607c-18 1 -34 1 -48 1c-66 -2 -73 -21 -73 -77v-26h111v-123h-111v-382h-206v382h-92v123h92v42c0 114 63 180 208 180c49 0 57 -1 119 -5v-115z" />
    <glyph glyph-name="fl" unicode="&#xfb02;" horiz-adv-x="744" 
d="M684 0h-206v723h206v-723zM427 607c-18 1 -34 1 -48 1c-66 -2 -73 -21 -73 -77v-26h111v-123h-111v-382h-206v382h-92v123h92v42c0 114 63 180 208 180c49 0 57 -1 119 -5v-115z" />
    <glyph glyph-name="endash" unicode="&#x2013;" horiz-adv-x="500" 
d="M500 193h-500v123h500v-123z" />
    <glyph glyph-name="dagger" unicode="&#x2020;" horiz-adv-x="584" 
d="M536 442h-164v-442h-157v442h-167v123h167v158h157v-158h164v-123z" />
    <glyph glyph-name="daggerdbl" unicode="&#x2021;" horiz-adv-x="584" 
d="M536 156h-164v-156h-158v156h-166v122h166v168h-166v123h166v154h158v-154h164v-123h-164v-168h164v-122z" />
    <glyph glyph-name="periodcentered" unicode="&#xb7;" horiz-adv-x="342" 
d="M269 206h-196v161h196v-161z" />
    <glyph glyph-name="paragraph" unicode="&#xb6;" horiz-adv-x="657" 
d="M585 0h-137v619h-88v-619h-137v321c-129 12 -193 72 -193 190c0 149 111 212 264 212h291v-723z" />
    <glyph glyph-name="bullet" unicode="&#x2022;" horiz-adv-x="504" 
d="M433 360c0 -99 -81 -180 -181 -180s-181 81 -181 180s81 180 181 180s181 -81 181 -180z" />
    <glyph glyph-name="quotesinglbase" unicode="&#x201a;" horiz-adv-x="366" 
d="M311 147l-115 -269h-141l69 269h187z" />
    <glyph glyph-name="quotedblbase" unicode="&#x201e;" horiz-adv-x="630" 
d="M311 147l-115 -269h-141l69 269h187zM575 147l-115 -269h-141l69 269h187z" />
    <glyph glyph-name="quotedblright" unicode="&#x201d;" horiz-adv-x="630" 
d="M311 723l-115 -269h-141l69 269h187zM575 723l-115 -269h-141l69 269h187z" />
    <glyph glyph-name="guillemotright" unicode="&#xbb;" horiz-adv-x="637" 
d="M594 247l-122 -193h-162l116 194l-117 195h162zM328 247l-123 -193h-162l117 194l-117 195h162z" />
    <glyph glyph-name="ellipsis" unicode="&#x2026;" horiz-adv-x="1002" 
d="M932 0h-195v161h195v-161zM599 0h-196v161h196v-161zM266 0h-196v161h196v-161z" />
    <glyph glyph-name="perthousand" unicode="&#x2030;" horiz-adv-x="1333" 
d="M1318 185c0 -118 -60 -199 -188 -199c-127 0 -188 77 -188 195c0 126 60 205 189 205c126 0 187 -77 187 -201zM903 185c0 -118 -60 -199 -188 -199c-127 0 -188 77 -188 195c0 126 61 205 190 205c126 0 186 -77 186 -201zM688 746l-314 -768h-143l315 768h142zM392 539
c0 -118 -61 -199 -189 -199c-127 0 -188 78 -188 196c0 126 61 204 190 204c126 0 187 -77 187 -201zM1176 196c0 73 -12 107 -47 107c-36 0 -45 -37 -45 -111c0 -89 9 -122 46 -122s46 37 46 126zM761 196c0 73 -11 107 -46 107c-36 0 -45 -37 -45 -111
c0 -89 8 -122 45 -122s46 37 46 126zM249 551c0 73 -11 107 -46 107c-36 0 -45 -37 -45 -111c0 -89 8 -122 45 -122s46 38 46 126z" />
    <glyph glyph-name="questiondown" unicode="&#xbf;" horiz-adv-x="544" 
d="M414 374h-195v143h195v-143zM493 -206c-75 -13 -122 -19 -175 -19c-169 0 -293 54 -293 198c0 81 53 128 127 186c68 53 77 63 77 126v31h174c0 -30 3 -79 -2 -89c-1 -24 -13 -38 -38 -69c-52 -64 -119 -115 -119 -172c0 -65 62 -93 134 -93c35 0 63 6 115 19v-118z" />
    <glyph glyph-name="grave" unicode="`" horiz-adv-x="343" 
d="M287 575h-144l-185 156h216z" />
    <glyph glyph-name="acute" unicode="&#xb4;" horiz-adv-x="343" 
d="M385 731l-184 -156h-145l115 156h214z" />
    <glyph glyph-name="circumflex" unicode="&#x2c6;" horiz-adv-x="343" 
d="M385 575h-139l-74 81l-75 -81h-139l123 152h181z" />
    <glyph glyph-name="tilde" unicode="&#x2dc;" horiz-adv-x="344" 
d="M391 726c-9 -84 -61 -148 -135 -148c-29 0 -54 8 -101 21c-39 11 -59 15 -76 15c-21 0 -34 -12 -38 -34h-88c7 87 61 148 140 148c35 0 51 -7 123 -29c23 -7 36 -11 50 -11c22 0 31 13 34 38h91z" />
    <glyph glyph-name="macron" unicode="&#xaf;" horiz-adv-x="342" 
d="M355 614h-368v84h368v-84z" />
    <glyph glyph-name="breve" unicode="&#x2d8;" horiz-adv-x="343" 
d="M366 724c-15 -106 -84 -153 -194 -153c-106 0 -180 41 -193 141c-1 4 -2 8 -2 12h90c10 -48 54 -62 105 -62c53 0 89 15 106 62h88z" />
    <glyph glyph-name="dotaccent" unicode="&#x2d9;" horiz-adv-x="344" 
d="M254 585h-164v141h164v-141z" />
    <glyph glyph-name="dieresis" unicode="&#xa8;" horiz-adv-x="343" 
d="M379 585h-166v141h166v-141zM128 585h-164v141h164v-141z" />
    <glyph glyph-name="ring" unicode="&#x2da;" horiz-adv-x="343" 
d="M288 677c0 -65 -52 -115 -117 -115c-64 0 -116 52 -116 115s53 116 116 116c66 0 117 -51 117 -116zM218 677c0 26 -20 47 -46 47c-27 0 -49 -21 -48 -48c0 -26 22 -46 48 -46s46 22 46 47z" />
    <glyph glyph-name="cedilla" unicode="&#xb8;" horiz-adv-x="342" 
d="M295 -137c0 -62 -69 -90 -142 -90c-41 0 -74 7 -120 24l16 54c32 -16 60 -24 88 -24c29 0 52 10 52 36c0 24 -21 35 -47 35c-11 0 -21 -2 -34 -7l-23 17l53 97h61l-37 -69c9 1 22 3 26 3c64 0 107 -26 107 -76z" />
    <glyph glyph-name="hungarumlaut" unicode="&#x2dd;" horiz-adv-x="343" 
d="M544 731l-182 -155h-139l116 155h205zM261 730l-182 -154h-138l115 154h205z" />
    <glyph glyph-name="ogonek" unicode="&#x2db;" horiz-adv-x="343" 
d="M246 -149c-5 -2 -11 -38 -16 -40c-31 -17 -59 -24 -92 -24c-57 0 -105 31 -105 87c0 57 44 98 97 126h95c-49 -33 -85 -57 -85 -97c0 -29 23 -47 54 -47c14 0 24 4 36 9c4 2 10 -17 16 -14z" />
    <glyph glyph-name="caron" unicode="&#x2c7;" horiz-adv-x="342" 
d="M384 728l-123 -152h-181l-122 152h139l77 -82l74 82h136z" />
    <glyph glyph-name="emdash" unicode="&#x2014;" horiz-adv-x="1003" 
d="M872 193h-741v118h741v-118z" />
    <glyph glyph-name="AE" unicode="&#xc6;" horiz-adv-x="995" 
d="M962 0h-444l-20 156h-237l-65 -156h-211l330 723h642v-135h-320l18 -154h281v-136h-267l19 -162h274v-136zM487 277l-39 333l-2 -2l-137 -331h178z" />
    <glyph glyph-name="ordfeminine" unicode="&#xaa;" horiz-adv-x="465" 
d="M428 430h-139c-3 15 -6 27 -7 46c-28 -37 -64 -52 -125 -52c-78 0 -129 33 -129 95c0 80 82 105 210 105c7 0 37 -1 43 -1c0 23 -1 33 -6 42c-7 11 -21 18 -42 18c-29 0 -48 -13 -48 -40h-140c2 24 18 50 40 66c33 23 82 31 146 31c82 0 126 -15 155 -38
c28 -22 36 -48 36 -89c0 -20 -1 -92 -1 -108c0 -31 2 -50 7 -75zM281 569h-50c-39 0 -66 -14 -66 -43c0 -23 20 -39 46 -39c50 0 70 38 70 82z" />
    <glyph glyph-name="Lslash" unicode="&#x141;" horiz-adv-x="626" 
d="M612 0h-539v256l-70 -44v118l70 44v349h222v-227l157 98v-120l-157 -97v-243h317v-134z" />
    <glyph glyph-name="Oslash" unicode="&#xd8;" horiz-adv-x="806" 
d="M791 699l-89 -92c44 -63 67 -147 67 -245c0 -113 -28 -201 -86 -266c-64 -72 -160 -112 -286 -112c-94 0 -170 23 -228 66l-87 -91l-62 59l89 92c-48 64 -72 150 -72 252c0 228 127 377 370 377c99 0 178 -25 236 -70l86 90zM511 531c-2 4 -3 7 -5 10
c-23 42 -54 65 -103 65c-57 0 -90 -31 -112 -87c-17 -44 -25 -105 -25 -158c0 -29 1 -57 4 -82zM541 363c0 23 -2 48 -5 71l-239 -251c21 -41 54 -65 105 -65c105 0 139 105 139 245z" />
    <glyph glyph-name="OE" unicode="&#x152;" horiz-adv-x="1009" 
d="M976 0c-64 0 -347 2 -410 -1c-60 -3 -104 -9 -154 -9c-109 0 -194 26 -256 77c-77 63 -119 164 -119 296c0 126 36 217 108 280c66 58 159 89 265 89c49 0 93 -9 161 -9h394v-137h-286v-153h270v-134h-270v-164h297v-135zM487 129v465c-26 7 -45 9 -65 9
c-62 0 -99 -28 -125 -82c-20 -43 -33 -103 -33 -163c0 -75 17 -138 47 -181c27 -38 59 -58 110 -58c22 0 40 2 66 10z" />
    <glyph glyph-name="ordmasculine" unicode="&#xba;" horiz-adv-x="490" 
d="M460 582c0 -104 -80 -159 -216 -159c-133 0 -214 56 -214 158c0 45 21 84 54 111c38 31 92 48 163 48c131 0 213 -57 213 -158zM307 582c0 52 -16 92 -63 92s-63 -40 -63 -91c0 -22 3 -44 11 -61c10 -22 25 -34 52 -34c46 0 63 42 63 94z" />
    <glyph glyph-name="ae" unicode="&#xe6;" horiz-adv-x="996" 
d="M966 228h-385c0 -82 21 -144 98 -144c60 0 89 33 92 86h190c-8 -97 -93 -181 -269 -181c-110 0 -171 28 -222 105c-57 -74 -132 -105 -236 -105c-119 0 -208 50 -208 155c0 145 174 168 285 168c0 0 92 1 85 0c0 42 -1 64 -11 83c-11 20 -34 33 -67 33
c-46 0 -73 -23 -74 -66h-189c12 133 151 156 250 156c98 0 156 -35 184 -80c49 52 112 81 201 81c234 0 271 -137 276 -291zM771 310c-1 72 -25 119 -91 119c-65 0 -95 -49 -97 -119h188zM397 228h-68c-60 0 -114 -18 -114 -75c0 -42 33 -68 74 -68c76 0 108 69 108 143z
" />
    <glyph glyph-name="dotlessi" unicode="&#x131;" horiz-adv-x="326" 
d="M266 0h-206v505h206v-505z" />
    <glyph glyph-name="lslash" unicode="&#x142;" horiz-adv-x="326" 
d="M338 458l-72 -53v-405h-205v265l-73 -56v115l73 54v345h205v-204l72 53v-114z" />
    <glyph glyph-name="oslash" unicode="&#xf8;" horiz-adv-x="681" 
d="M650 255c0 -171 -114 -267 -311 -267c-54 0 -102 8 -143 22l-71 -83l-61 55l58 68c-59 45 -91 114 -91 204c0 78 31 146 82 191c55 48 132 73 232 73c58 0 109 -9 152 -26l67 79l62 -55l-57 -67c53 -45 81 -111 81 -194zM406 385c-15 19 -37 30 -67 30
c-75 0 -99 -71 -99 -160c0 -20 2 -40 5 -60zM439 254c0 14 -1 27 -2 40l-155 -182c14 -14 33 -21 58 -21c74 0 99 74 99 163z" />
    <glyph glyph-name="oe" unicode="&#x153;" horiz-adv-x="1052" 
d="M1022 225h-389v-7c0 -81 30 -132 100 -132c53 0 92 30 93 83h191c-15 -117 -121 -180 -274 -180c-97 0 -151 23 -206 82c-56 -59 -126 -83 -208 -83c-188 0 -297 101 -297 266c0 171 127 264 309 264c95 0 158 -25 210 -79c44 45 108 79 195 79c197 0 270 -95 276 -293z
M826 311c0 73 -33 113 -92 113c-60 0 -99 -41 -99 -113h191zM440 254c0 90 -24 162 -100 162c-75 0 -99 -73 -99 -161c0 -90 24 -165 99 -165c73 0 100 76 100 164z" />
    <glyph glyph-name="germandbls" unicode="&#xdf;" horiz-adv-x="789" 
d="M768 168c0 -117 -106 -183 -235 -183c-123 0 -213 49 -218 154c0 2 -1 13 -1 15h165c-1 -11 0 -15 1 -24c4 -28 24 -46 54 -46c36 0 59 28 59 65s-27 64 -57 85c-25 17 -53 30 -81 43c-60 28 -103 62 -103 119c0 33 17 53 37 72c9 8 18 16 27 26c6 7 2 3 30 31
c12 13 18 26 18 41c0 48 -41 74 -92 74c-54 0 -86 -26 -99 -65c-7 -20 -9 -40 -9 -80v-495h-204v466c0 86 12 150 70 201c60 53 144 74 247 74c163 0 282 -44 282 -165c0 -50 -22 -71 -68 -104c-13 -9 -24 -18 -33 -28s-14 -20 -14 -33c0 -20 11 -34 32 -48
c9 -6 2 -3 53 -30c13 -7 27 -14 39 -21c59 -35 100 -74 100 -144z" />
    <glyph glyph-name="Eth" unicode="&#xd0;" horiz-adv-x="809" 
d="M772 362c0 -161 -64 -264 -176 -319c-66 -32 -140 -43 -241 -43h-283v328h-63v116h63v279h291c129 0 218 -21 289 -74c76 -58 120 -154 120 -287zM542 363c0 95 -22 157 -64 193c-29 24 -68 35 -124 35h-63v-147h123v-116h-123v-196h65c133 0 186 61 186 231z" />
    <glyph glyph-name="eth" unicode="&#xf0;" horiz-adv-x="646" 
d="M615 303c0 -183 -87 -314 -293 -314c-164 0 -291 85 -291 258c0 145 105 239 241 239c46 0 97 -18 134 -60c-33 77 -76 118 -147 152l-109 -59l-51 54l69 40c-31 10 -55 17 -84 23l88 115c56 -12 102 -28 157 -49l95 54l53 -53l-70 -39c132 -76 208 -196 208 -361z
M426 252c0 70 -23 140 -102 140c-80 0 -106 -75 -106 -146c0 -72 20 -154 104 -154c87 0 104 86 104 160z" />
    <glyph glyph-name="Scaron" unicode="&#x160;" horiz-adv-x="747" 
d="M713 224c0 -189 -195 -240 -348 -240c-200 0 -331 67 -332 238h221c1 -78 38 -114 115 -114c60 0 113 30 113 88c0 34 -22 54 -57 68c-36 14 -72 21 -141 40c-81 22 -137 42 -177 75c-38 31 -61 73 -61 129c0 155 146 229 337 229c190 0 313 -69 314 -222h-220
c-3 71 -38 102 -104 102c-54 0 -99 -30 -99 -79c0 -62 149 -89 204 -105c112 -33 235 -65 235 -209zM595 930l-123 -152h-181l-122 152h139l77 -82l74 82h136z" />
    <glyph glyph-name="scaron" unicode="&#x161;" horiz-adv-x="602" 
d="M575 154c0 -114 -127 -166 -272 -166c-132 0 -276 34 -276 173h195c1 -57 30 -83 81 -83c45 0 84 20 84 61c0 40 -58 49 -90 58c-34 9 -69 13 -103 21c-75 17 -153 48 -153 138c0 131 151 161 253 161c109 0 262 -27 265 -163h-186c-1 51 -35 75 -75 75
c-37 0 -74 -18 -74 -54c0 -29 20 -42 65 -52c61 -13 117 -19 176 -40c59 -20 110 -52 110 -129zM519 728l-123 -152h-181l-122 152h139l77 -82l74 82h136z" />
    <glyph glyph-name="Yacute" unicode="&#xdd;" horiz-adv-x="704" 
d="M723 724l-263 -467v-257h-222v262l-257 462h238l141 -307l148 307h215zM575 931l-184 -156h-145l115 156h214z" />
    <glyph glyph-name="yacute" unicode="&#xfd;" horiz-adv-x="638" 
d="M646 505l-302 -695h-210l97 202l-239 493h228l111 -324l107 324h208zM544 731l-184 -156h-145l115 156h214z" />
    <glyph glyph-name="Thorn" unicode="&#xde;" horiz-adv-x="725" 
d="M703 380c0 -98 -47 -173 -133 -207c-45 -18 -105 -21 -181 -21h-99v-152h-218v723h218v-115h92c99 0 175 -6 230 -43c62 -42 91 -105 91 -185zM487 381c0 75 -52 95 -129 95h-68v-194h63c76 0 134 24 134 99z" />
    <glyph glyph-name="thorn" unicode="&#xfe;" horiz-adv-x="696" 
d="M665 259c0 -159 -75 -270 -231 -270c-78 0 -120 20 -168 80v-259h-206v913h206v-293c45 62 93 88 170 88c153 0 229 -106 229 -259zM455 256c0 90 -22 157 -95 157c-74 0 -98 -69 -98 -158c0 -92 21 -161 95 -161c77 0 98 68 98 162z" />
    <glyph glyph-name="Zcaron" unicode="&#x17d;" horiz-adv-x="663" 
d="M641 0h-619v142l357 444h-334v137h583v-146l-355 -443h368v-134zM563 928l-123 -152h-181l-122 152h139l77 -82l74 82h136z" />
    <glyph glyph-name="zcaron" unicode="&#x17e;" horiz-adv-x="539" 
d="M513 0h-487v119l248 266h-232v120h466v-122l-237 -265h242v-118zM495 728l-123 -152h-181l-122 152h139l77 -82l74 82h136z" />
    <glyph glyph-name="onehalf" unicode="&#xbd;" horiz-adv-x="1059" 
d="M1014 0h-391v87c117 65 239 159 239 224c0 25 -16 38 -40 38c-28 0 -45 -15 -46 -55h-145v16c4 91 78 126 193 126c58 0 105 -10 138 -33c30 -21 49 -55 49 -95c0 -48 -29 -91 -67 -128c-19 -19 -41 -36 -63 -51c-21 -15 -42 -28 -61 -40h194v-89zM736 746l-335 -768
h-144l335 768h144zM302 298h-148v292c-30 -18 -59 -30 -104 -44v110c56 17 86 34 124 67h128v-425z" />
    <glyph glyph-name="onequarter" unicode="&#xbc;" horiz-adv-x="1045" 
d="M1016 84h-61v-84h-141v84h-216v98l172 244h185v-259h61v-83zM725 746l-315 -768h-144l315 768h144zM302 298h-148v292c-30 -18 -59 -30 -104 -44v110c56 17 86 34 124 67h128v-425zM818 167v144l-102 -144h102z" />
    <glyph glyph-name="onesuperior" unicode="&#xb9;" horiz-adv-x="449" 
d="M322 298h-147v292c-30 -18 -59 -30 -104 -44v110c56 17 85 34 123 67h128v-425z" />
    <glyph glyph-name="threequarters" unicode="&#xbe;" horiz-adv-x="1095" 
d="M1072 84h-62v-84h-142v84h-215v98l173 244h184v-259h62v-83zM780 746l-315 -768h-144l315 768h144zM430 422c0 -93 -95 -130 -210 -130c-113 0 -194 44 -195 141h146c0 -30 16 -53 59 -53c27 0 50 12 50 48c0 34 -24 50 -65 50c-24 0 -26 -2 -54 -3v87c9 -1 20 -2 40 -2
c27 0 72 12 72 52c0 28 -22 40 -49 40s-45 -15 -46 -52h-145v13c1 33 13 59 34 78c35 32 98 47 167 47c100 0 186 -34 186 -119c0 -49 -27 -78 -71 -95c51 -16 81 -49 81 -102zM873 167v144l-102 -144h102z" />
    <glyph glyph-name="threesuperior" unicode="&#xb3;" horiz-adv-x="448" 
d="M423 422c0 -93 -95 -130 -210 -130c-113 0 -194 44 -195 141h146c0 -30 16 -53 59 -53c27 0 50 12 50 48c0 34 -24 50 -65 50c-24 0 -26 -2 -54 -3v87c9 -1 20 -2 40 -2c27 0 72 12 72 52c0 28 -22 40 -49 40s-45 -15 -46 -52h-145v13c1 33 13 59 34 78
c35 32 98 47 167 47c100 0 186 -34 186 -119c0 -49 -27 -78 -71 -95c51 -16 81 -49 81 -102z" />
    <glyph glyph-name="twosuperior" unicode="&#xb2;" horiz-adv-x="449" 
d="M417 302h-391v88c117 64 240 158 240 223c0 25 -17 38 -41 38c-28 0 -42 -14 -43 -54h-148v15c4 91 78 126 193 126c58 0 105 -11 138 -34c30 -21 49 -55 49 -95c0 -48 -29 -90 -67 -127c-19 -19 -40 -36 -62 -51c-21 -15 -42 -28 -61 -40h193v-89z" />
    <glyph glyph-name="brokenbar" unicode="&#xa6;" horiz-adv-x="274" 
d="M214 408h-154v250h154v-250zM214 -89h-154v249h154v-249z" />
    <glyph glyph-name="minus" unicode="&#x2212;" horiz-adv-x="662" 
d="M598 200h-534v130h534v-130z" />
    <glyph glyph-name="multiply" unicode="&#xd7;" horiz-adv-x="662" 
d="M591 98l-92 -91l-167 167l-168 -167l-92 91l167 166l-167 167l92 92l168 -166l166 165l93 -91l-167 -167z" />
    <glyph glyph-name="Adieresis" unicode="&#xc4;" horiz-adv-x="784" 
d="M794 0h-233l-50 157h-263l-50 -157h-208l261 723h276zM475 282l-96 308l-97 -308h193zM598 785h-166v141h166v-141zM347 785h-164v141h164v-141z" />
    <glyph glyph-name="Aring" unicode="&#xc5;" horiz-adv-x="784" 
d="M794 0h-233l-50 157h-263l-50 -157h-208l261 723h276zM475 282l-96 308l-97 -308h193zM509 868c0 -65 -52 -115 -117 -115c-63 0 -116 51 -116 115c0 62 53 116 116 116c66 0 117 -51 117 -116zM439 868c0 26 -20 46 -46 47c-26 0 -48 -21 -48 -48c1 -26 22 -46 48 -46
s46 22 46 47z" />
    <glyph glyph-name="Ccedilla" unicode="&#xc7;" horiz-adv-x="754" 
d="M727 230c-13 -161 -142 -242 -316 -245l-26 -49c9 1 22 3 26 3c64 0 107 -26 107 -76c0 -62 -68 -90 -141 -90c-41 0 -75 7 -121 24l16 54c32 -16 60 -24 88 -24c29 0 52 10 52 36c0 24 -21 35 -47 35c-11 0 -21 -2 -34 -7l-23 17l44 80c-208 18 -315 155 -315 366
c0 232 128 381 368 381c117 0 215 -35 271 -110c27 -36 41 -76 45 -135h-223c-5 77 -38 112 -95 112c-101 0 -136 -111 -136 -250c0 -133 35 -234 134 -234c59 0 97 37 103 112h223z" />
    <glyph glyph-name="Eacute" unicode="&#xc9;" horiz-adv-x="657" 
d="M624 0h-552v723h541v-137h-327v-153h311v-134h-311v-164h338v-135zM557 931l-184 -156h-145l115 156h214z" />
    <glyph glyph-name="Ntilde" unicode="&#xd1;" horiz-adv-x="853" 
d="M781 0h-295l-223 532v-532h-191v723h295l222 -520v520h192v-723zM654 926c-9 -84 -61 -148 -135 -148c-29 0 -54 8 -101 21c-40 11 -59 15 -76 15c-22 0 -35 -12 -38 -34h-88c6 87 61 148 140 148c35 0 50 -7 123 -29c23 -7 36 -11 50 -11c21 0 31 13 34 38h91z" />
    <glyph glyph-name="Odieresis" unicode="&#xd6;" horiz-adv-x="806" 
d="M769 362c0 -113 -28 -201 -86 -266c-64 -72 -160 -112 -286 -112c-237 0 -360 147 -360 378c0 228 127 377 370 377c242 0 362 -149 362 -377zM541 363c0 64 -12 135 -35 178c-23 42 -54 65 -103 65c-57 0 -90 -31 -112 -87c-17 -44 -25 -105 -25 -158
c0 -138 31 -243 136 -243s139 105 139 245zM614 785h-166v141h166v-141zM363 785h-164v141h164v-141z" />
    <glyph glyph-name="Udieresis" unicode="&#xdc;" horiz-adv-x="803" 
d="M735 298c0 -106 -22 -174 -71 -225c-57 -59 -149 -89 -270 -89c-124 0 -227 31 -281 116c-35 55 -45 117 -45 192v431h222v-451c0 -98 22 -154 113 -154c92 0 118 60 118 156v449h214v-425zM614 785h-166v141h166v-141zM363 785h-164v141h164v-141z" />
    <glyph glyph-name="aacute" unicode="&#xe1;" horiz-adv-x="649" 
d="M599 0h-191c-7 27 -10 47 -12 81c-39 -66 -95 -91 -183 -91c-112 0 -185 51 -185 155c0 136 135 171 314 171h53v31c0 41 -19 81 -71 81c-50 0 -72 -27 -72 -68h-195c6 135 157 157 264 157c98 0 169 -13 214 -51c39 -32 56 -75 56 -150v-168c0 -60 0 -97 8 -148z
M395 238c-22 1 -48 1 -54 1c-61 0 -124 -23 -124 -82c0 -40 31 -67 71 -67c83 0 107 71 107 148zM562 734l-184 -156h-145l115 156h214z" />
    <glyph glyph-name="agrave" unicode="&#xe0;" horiz-adv-x="649" 
d="M447 575h-144l-185 156h216zM599 0h-191c-7 27 -10 47 -12 81c-39 -66 -95 -91 -183 -91c-112 0 -185 51 -185 155c0 136 135 171 314 171h53v31c0 41 -19 81 -71 81c-50 0 -72 -27 -72 -68h-195c6 135 157 157 264 157c98 0 169 -13 214 -51c39 -32 56 -75 56 -150v-168
c0 -60 0 -97 8 -148zM395 238c-22 1 -48 1 -54 1c-61 0 -124 -23 -124 -82c0 -40 31 -67 71 -67c83 0 107 71 107 148z" />
    <glyph glyph-name="acircumflex" unicode="&#xe2;" horiz-adv-x="649" 
d="M599 0h-191c-7 27 -10 47 -12 81c-39 -66 -95 -91 -183 -91c-112 0 -185 51 -185 155c0 136 135 171 314 171h53v31c0 41 -19 81 -71 81c-50 0 -72 -27 -72 -68h-195c6 135 157 157 264 157c98 0 169 -13 214 -51c39 -32 56 -75 56 -150v-168c0 -60 0 -97 8 -148z
M395 238c-22 1 -48 1 -54 1c-61 0 -124 -23 -124 -82c0 -40 31 -67 71 -67c83 0 107 71 107 148zM542 568h-139l-74 81l-75 -81h-139l123 152h181z" />
    <glyph glyph-name="adieresis" unicode="&#xe4;" horiz-adv-x="649" 
d="M599 0h-191c-7 27 -10 47 -12 81c-39 -66 -95 -91 -183 -91c-112 0 -185 51 -185 155c0 136 135 171 314 171h53v31c0 41 -19 81 -71 81c-50 0 -72 -27 -72 -68h-195c6 135 157 157 264 157c98 0 169 -13 214 -51c39 -32 56 -75 56 -150v-168c0 -60 0 -97 8 -148z
M395 238c-22 1 -48 1 -54 1c-61 0 -124 -23 -124 -82c0 -40 31 -67 71 -67c83 0 107 71 107 148zM536 585h-166v141h166v-141zM285 585h-164v141h164v-141z" />
    <glyph glyph-name="atilde" unicode="&#xe3;" horiz-adv-x="649" 
d="M599 0h-191c-7 27 -10 47 -12 81c-39 -66 -95 -91 -183 -91c-112 0 -185 51 -185 155c0 136 135 171 314 171h53v31c0 41 -19 81 -71 81c-50 0 -72 -27 -72 -68h-195c6 135 157 157 264 157c98 0 169 -13 214 -51c39 -32 56 -75 56 -150v-168c0 -60 0 -97 8 -148z
M395 238c-22 1 -48 1 -54 1c-61 0 -124 -23 -124 -82c0 -40 31 -67 71 -67c83 0 107 71 107 148zM550 725c-9 -84 -61 -148 -135 -148c-29 0 -54 8 -101 21c-40 11 -59 15 -76 15c-22 0 -35 -12 -38 -34h-88c6 87 61 148 140 148c35 0 50 -7 123 -29c23 -7 36 -11 50 -11
c21 0 31 13 34 38h91z" />
    <glyph glyph-name="aring" unicode="&#xe5;" horiz-adv-x="649" 
d="M599 0h-191c-7 27 -10 47 -12 81c-39 -66 -95 -91 -183 -91c-112 0 -185 51 -185 155c0 136 135 171 314 171h53v31c0 41 -19 81 -71 81c-50 0 -72 -27 -72 -68h-195c6 135 157 157 264 157c98 0 169 -13 214 -51c39 -32 56 -75 56 -150v-168c0 -60 0 -97 8 -148z
M395 238c-22 1 -48 1 -54 1c-61 0 -124 -23 -124 -82c0 -40 31 -67 71 -67c83 0 107 71 107 148zM443 677c0 -65 -52 -115 -117 -115c-64 0 -116 52 -116 115s53 116 116 116c66 0 117 -51 117 -116zM373 677c0 26 -21 47 -46 47c-27 0 -49 -21 -48 -48c0 -26 22 -46 48 -46
s46 22 46 47z" />
    <glyph glyph-name="ccedilla" unicode="&#xe7;" horiz-adv-x="635" 
d="M611 314h-200c-2 69 -23 104 -77 104c-75 0 -93 -70 -93 -162s17 -164 90 -164c57 0 78 36 80 105h199c-11 -80 -27 -203 -263 -209l-28 -52c9 1 22 3 26 3c64 0 107 -26 107 -76c0 -62 -69 -90 -142 -90c-41 0 -74 7 -120 24l16 54c32 -16 60 -24 88 -24
c29 0 52 10 52 36c0 24 -21 35 -47 35c-11 0 -21 -2 -34 -7l-23 17l44 81c-78 5 -131 25 -173 61c-52 45 -82 116 -82 200s32 157 88 204c50 42 121 64 219 64c167 0 260 -58 273 -204z" />
    <glyph glyph-name="eacute" unicode="&#xe9;" horiz-adv-x="654" 
d="M624 224h-391c3 -83 30 -138 101 -138c56 0 87 28 93 83h191c-7 -48 -31 -85 -68 -117c-53 -45 -126 -63 -219 -63c-111 0 -182 24 -232 75c-43 44 -68 110 -68 183c0 170 105 271 302 271c131 0 225 -45 267 -142c19 -43 23 -86 24 -152zM427 312c0 74 -32 114 -92 114
s-99 -41 -99 -114h191zM551 731l-184 -156h-145l115 156h214z" />
    <glyph glyph-name="egrave" unicode="&#xe8;" horiz-adv-x="654" 
d="M448 575h-144l-185 156h216zM624 224h-391c3 -83 30 -138 101 -138c56 0 87 28 93 83h191c-7 -48 -31 -85 -68 -117c-53 -45 -126 -63 -219 -63c-111 0 -182 24 -232 75c-43 44 -68 110 -68 183c0 170 105 271 302 271c131 0 225 -45 267 -142c19 -43 23 -86 24 -152z
M427 312c0 74 -32 114 -92 114s-99 -41 -99 -114h191z" />
    <glyph glyph-name="ecircumflex" unicode="&#xea;" horiz-adv-x="654" 
d="M624 224h-391c3 -83 30 -138 101 -138c56 0 87 28 93 83h191c-7 -48 -31 -85 -68 -117c-53 -45 -126 -63 -219 -63c-111 0 -182 24 -232 75c-43 44 -68 110 -68 183c0 170 105 271 302 271c131 0 225 -45 267 -142c19 -43 23 -86 24 -152zM427 312c0 74 -32 114 -92 114
s-99 -41 -99 -114h191zM547 575h-139l-74 81l-75 -81h-139l123 152h181z" />
    <glyph glyph-name="edieresis" unicode="&#xeb;" horiz-adv-x="654" 
d="M624 224h-391c3 -83 30 -138 101 -138c56 0 87 28 93 83h191c-7 -48 -31 -85 -68 -117c-53 -45 -126 -63 -219 -63c-111 0 -182 24 -232 75c-43 44 -68 110 -68 183c0 170 105 271 302 271c131 0 225 -45 267 -142c19 -43 23 -86 24 -152zM427 312c0 74 -32 114 -92 114
s-99 -41 -99 -114h191zM544 585h-166v141h166v-141zM293 585h-164v141h164v-141z" />
    <glyph glyph-name="iacute" unicode="&#xed;" horiz-adv-x="326" 
d="M378 731l-184 -156h-145l115 156h214zM266 0h-206v505h206v-505z" />
    <glyph glyph-name="igrave" unicode="&#xec;" horiz-adv-x="326" 
d="M279 575h-144l-185 156h216zM266 0h-206v505h206v-505z" />
    <glyph glyph-name="icircumflex" unicode="&#xee;" horiz-adv-x="326" 
d="M266 0h-206v505h206v-505zM377 575h-139l-74 81l-75 -81h-139l123 152h181z" />
    <glyph glyph-name="idieresis" unicode="&#xef;" horiz-adv-x="326" 
d="M371 585h-166v141h166v-141zM120 585h-164v141h164v-141zM266 0h-206v505h206v-505z" />
    <glyph glyph-name="ntilde" unicode="&#xf1;" horiz-adv-x="687" 
d="M627 0h-206v278c0 37 0 61 -8 81c-10 25 -31 41 -66 41c-36 0 -59 -19 -70 -47c-10 -23 -11 -48 -11 -84v-269h-206v376c0 48 -1 82 -5 129h204c2 -14 5 -68 5 -78c53 63 97 86 175 86c71 0 123 -21 154 -62c24 -32 34 -74 34 -138v-313zM567 726
c-9 -84 -60 -148 -135 -148c-29 0 -54 8 -101 21c-39 11 -58 15 -76 15c-21 0 -34 -12 -38 -34h-88c7 87 61 148 140 148c35 0 51 -7 123 -29c24 -7 37 -11 50 -11c22 0 31 13 34 38h91z" />
    <glyph glyph-name="oacute" unicode="&#xf3;" horiz-adv-x="681" 
d="M650 255c0 -171 -114 -267 -311 -267c-193 0 -308 96 -308 266c0 78 31 146 82 191c55 48 132 73 232 73c191 0 305 -96 305 -263zM439 254c0 89 -24 161 -100 161c-75 0 -99 -71 -99 -160c0 -39 6 -79 20 -110c16 -35 39 -54 80 -54c74 0 99 74 99 163zM556 731
l-184 -156h-145l115 156h214z" />
    <glyph glyph-name="ograve" unicode="&#xf2;" horiz-adv-x="681" 
d="M460 575h-144l-185 156h216zM650 255c0 -171 -114 -267 -311 -267c-193 0 -308 96 -308 266c0 78 31 146 82 191c55 48 132 73 232 73c191 0 305 -96 305 -263zM439 254c0 89 -24 161 -100 161c-75 0 -99 -71 -99 -160c0 -39 6 -79 20 -110c16 -35 39 -54 80 -54
c74 0 99 74 99 163z" />
    <glyph glyph-name="ocircumflex" unicode="&#xf4;" horiz-adv-x="681" 
d="M650 255c0 -171 -114 -267 -311 -267c-193 0 -308 96 -308 266c0 78 31 146 82 191c55 48 132 73 232 73c191 0 305 -96 305 -263zM439 254c0 89 -24 161 -100 161c-75 0 -99 -71 -99 -160c0 -39 6 -79 20 -110c16 -35 39 -54 80 -54c74 0 99 74 99 163zM560 575h-139
l-74 81l-75 -81h-139l123 152h181z" />
    <glyph glyph-name="odieresis" unicode="&#xf6;" horiz-adv-x="681" 
d="M650 255c0 -171 -114 -267 -311 -267c-193 0 -308 96 -308 266c0 78 31 146 82 191c55 48 132 73 232 73c191 0 305 -96 305 -263zM439 254c0 89 -24 161 -100 161c-75 0 -99 -71 -99 -160c0 -39 6 -79 20 -110c16 -35 39 -54 80 -54c74 0 99 74 99 163zM555 585h-166
v141h166v-141zM304 585h-164v141h164v-141z" />
    <glyph glyph-name="otilde" unicode="&#xf5;" horiz-adv-x="681" 
d="M650 255c0 -171 -114 -267 -311 -267c-193 0 -308 96 -308 266c0 78 31 146 82 191c55 48 132 73 232 73c191 0 305 -96 305 -263zM439 254c0 89 -24 161 -100 161c-75 0 -99 -71 -99 -160c0 -39 6 -79 20 -110c16 -35 39 -54 80 -54c74 0 99 74 99 163zM563 726
c-9 -84 -61 -148 -135 -148c-29 0 -54 8 -101 21c-40 11 -59 15 -76 15c-22 0 -35 -12 -38 -34h-88c6 87 61 148 140 148c35 0 50 -7 123 -29c23 -7 36 -11 50 -11c21 0 31 13 34 38h91z" />
    <glyph glyph-name="uacute" unicode="&#xfa;" horiz-adv-x="688" 
d="M632 0h-204c-2 14 -5 68 -5 78c-47 -61 -94 -86 -174 -86c-70 0 -121 21 -153 62c-26 33 -36 72 -36 138v313h206v-279c0 -74 6 -121 74 -121c36 0 58 17 70 44c9 21 12 43 12 83v273h206v-332c0 -63 0 -114 4 -173zM563 731l-184 -156h-145l115 156h214z" />
    <glyph glyph-name="ugrave" unicode="&#xf9;" horiz-adv-x="688" 
d="M465 575h-144l-185 156h216zM632 0h-204c-2 14 -5 68 -5 78c-47 -61 -94 -86 -174 -86c-70 0 -121 21 -153 62c-26 33 -36 72 -36 138v313h206v-279c0 -74 6 -121 74 -121c36 0 58 17 70 44c9 21 12 43 12 83v273h206v-332c0 -63 0 -114 4 -173z" />
    <glyph glyph-name="ucircumflex" unicode="&#xfb;" horiz-adv-x="688" 
d="M632 0h-204c-2 14 -5 68 -5 78c-47 -61 -94 -86 -174 -86c-70 0 -121 21 -153 62c-26 33 -36 72 -36 138v313h206v-279c0 -74 6 -121 74 -121c36 0 58 17 70 44c9 21 12 43 12 83v273h206v-332c0 -63 0 -114 4 -173zM561 575h-139l-74 81l-75 -81h-139l123 152h181z" />
    <glyph glyph-name="udieresis" unicode="&#xfc;" horiz-adv-x="688" 
d="M632 0h-204c-2 14 -5 68 -5 78c-47 -61 -94 -86 -174 -86c-70 0 -121 21 -153 62c-26 33 -36 72 -36 138v313h206v-279c0 -74 6 -121 74 -121c36 0 58 17 70 44c9 21 12 43 12 83v273h206v-332c0 -63 0 -114 4 -173zM556 585h-166v141h166v-141zM305 585h-164v141h164
v-141z" />
    <glyph glyph-name="degree" unicode="&#xb0;" horiz-adv-x="402" 
d="M370 571c0 -92 -75 -167 -168 -167s-170 75 -170 167c0 93 77 169 170 169s168 -77 168 -169zM268 571c0 36 -30 66 -66 66c-37 0 -67 -29 -67 -66c0 -36 31 -66 67 -66s66 30 66 66z" />
    <glyph glyph-name="registered" unicode="&#xae;" horiz-adv-x="483" 
d="M451 531c0 -114 -93 -208 -209 -208c-115 0 -210 94 -210 208c0 115 95 208 210 208s209 -94 209 -208zM403 531c0 88 -73 159 -161 159s-161 -71 -161 -159s72 -161 161 -161s161 73 161 161zM339 424h-66c-5 18 -4 41 -9 60c-3 14 -10 21 -24 21h-22v-81h-62v215h99
c41 0 78 -11 78 -58c0 -26 -13 -41 -39 -50c31 -13 34 -37 37 -63c2 -16 3 -29 8 -44zM275 572c0 23 -18 26 -37 26h-25v-53h32c18 0 30 7 30 27z" />
    <glyph glyph-name="copyright" unicode="&#xa9;" horiz-adv-x="847" 
d="M803 361c0 -208 -170 -377 -379 -377s-380 169 -380 377s170 378 380 378s379 -170 379 -378zM723 361c0 164 -134 298 -299 298c-166 0 -300 -133 -300 -298c0 -164 135 -297 300 -297c164 0 299 133 299 297zM603 291c-2 -108 -81 -157 -176 -157
c-141 0 -201 95 -201 224c0 126 58 229 200 229c88 0 173 -45 175 -155h-120c-4 41 -24 59 -54 59c-71 0 -80 -80 -80 -135c0 -56 11 -127 81 -127c33 0 51 17 56 62h119z" />
    <glyph glyph-name="trademark" unicode="&#x2122;" horiz-adv-x="926" 
d="M835 355h-96l3 268l-80 -268h-90l-76 267v-267h-90v368h154l61 -229l61 229h153v-368zM368 647h-113v-292h-104v292h-112v76h329v-76z" />
    <glyph glyph-name="notequal" unicode="&#x2260;" horiz-adv-x="665" 
d="M599 84h-286l-79 -157l-114 57l50 100h-104v130h170l50 101h-220v131h286l79 156l114 -57l-50 -99h104v-131h-170l-50 -101h220v-130z" />
    <glyph glyph-name="infinity" unicode="&#x221e;" horiz-adv-x="853" 
d="M808 267c0 -112 -68 -199 -186 -199c-85 0 -145 52 -196 114c-53 -64 -106 -113 -194 -113c-115 0 -186 87 -186 197s66 196 182 196c93 0 144 -54 198 -121c13 17 35 42 48 55c41 40 84 66 146 66c117 0 188 -82 188 -195zM697 265c0 46 -31 82 -79 82
c-47 0 -97 -49 -123 -84c31 -38 73 -80 126 -80c48 0 76 36 76 82zM357 263c-28 35 -78 84 -126 84c-47 0 -75 -38 -75 -82c0 -46 29 -81 77 -81c45 0 100 43 124 79z" />
    <glyph glyph-name="plusminus" unicode="&#xb1;" horiz-adv-x="662" 
d="M598 279h-200v-149h-134v149h-200v130h200v157h134v-157h200v-130zM598 -36h-534v131h534v-131z" />
    <glyph glyph-name="lessequal" unicode="&#x2264;" horiz-adv-x="665" 
d="M599 114l-533 167v130l533 162v-134l-352 -92l352 -99v-134zM599 -44h-533v130h533v-130z" />
    <glyph glyph-name="greaterequal" unicode="&#x2265;" horiz-adv-x="665" 
d="M599 281l-533 -167v134l352 99l-352 92v134l533 -162v-130zM599 -44h-533v130h533v-130z" />
    <glyph glyph-name="mu" unicode="&#xb5;" horiz-adv-x="650" 
d="M546 0h-111v60c-28 -43 -60 -69 -113 -69c-46 0 -75 15 -102 52v-254h-125v711h130v-247c0 -67 2 -154 92 -154c91 0 98 79 98 150v251h131v-500z" />
    <glyph glyph-name="partialdiff" unicode="&#x2202;" horiz-adv-x="573" 
d="M524 353c0 -164 -50 -367 -253 -367c-136 0 -229 93 -229 228c0 125 89 222 217 222c50 0 96 -18 134 -49v23c-3 85 -32 198 -137 198c-47 0 -83 -22 -117 -52l-70 78c56 49 110 75 186 75c203 0 269 -185 269 -356zM389 285c-27 30 -66 53 -107 53
c-74 0 -113 -59 -113 -127c0 -62 31 -128 102 -128c100 0 118 126 118 202z" />
    <glyph glyph-name="summation" unicode="&#x2211;" horiz-adv-x="678" 
d="M650 -213h-621v112l297 392l-285 379v112h597v-129h-419l264 -361l-282 -376h449v-129z" />
    <glyph glyph-name="product" unicode="&#x220f;" horiz-adv-x="750" 
d="M695 -213h-134v866h-372v-866h-134v995h640v-995z" />
    <glyph glyph-name="pi" unicode="&#x3c0;" horiz-adv-x="613" 
d="M588 17c-33 -16 -60 -25 -97 -25c-94 0 -114 56 -114 137v257h-176v-386h-130v386h-70v119h585v-119h-79v-228c0 -29 1 -57 38 -57c15 0 29 6 43 12v-96z" />
    <glyph glyph-name="integral" unicode="&#x222b;" horiz-adv-x="655" 
d="M535 696c0 -36 -26 -64 -62 -64c-70 0 -49 89 -79 89c-21 0 -21 -40 -21 -54c0 -56 6 -113 6 -169l1 -367c0 -58 0 -121 -11 -177c-5 -26 -15 -49 -26 -72c-25 -51 -65 -95 -137 -95c-54 0 -120 30 -120 92c0 34 30 55 62 55c70 0 46 -88 76 -88c21 0 22 36 22 51
c0 48 -8 96 -8 144v429c0 124 7 310 177 310c50 0 120 -25 120 -84z" />
    <glyph glyph-name="Omega" unicode="&#x3a9;" horiz-adv-x="770" 
d="M717 425c0 -114 -60 -228 -179 -256v-49h178v-120h-288v222c95 18 142 99 142 190c0 108 -72 193 -184 193c-111 0 -186 -90 -186 -197c0 -92 46 -168 140 -186v-222h-288v120h178v49c-116 30 -178 139 -178 253c0 189 152 307 334 307c181 0 331 -117 331 -304z" />
    <glyph glyph-name="logicalnot" unicode="&#xac;" horiz-adv-x="662" 
d="M598 84h-137v231h-397v131h534v-362z" />
    <glyph glyph-name="radical" unicode="&#x221a;" horiz-adv-x="578" 
d="M585 782l-220 -995h-121l-147 300l-56 -26l-48 104l172 78l118 -254l163 793h139z" />
    <glyph glyph-name="approxequal" unicode="&#x2248;" horiz-adv-x="664" 
d="M609 473c-3 -39 -12 -80 -33 -115c-25 -42 -69 -78 -122 -78c-83 0 -174 64 -253 64c-34 0 -55 -30 -59 -61h-86c6 95 54 189 162 189c79 0 167 -58 244 -58c38 0 56 24 60 59h87zM608 246c-7 -87 -47 -193 -151 -193c-83 0 -179 64 -256 64c-36 0 -55 -27 -59 -60h-87
c6 85 53 191 153 191c85 0 171 -62 254 -62c39 0 54 25 59 60h87z" />
    <glyph glyph-name="Delta" unicode="&#x394;" horiz-adv-x="707" 
d="M695 0h-683l259 690h147zM506 126l-160 415l-151 -415h311z" />
    <glyph glyph-name="nbspace" unicode="&#xa0;" horiz-adv-x="343" 
 />
    <glyph glyph-name="Agrave" unicode="&#xc0;" horiz-adv-x="784" 
d="M794 0h-233l-50 157h-263l-50 -157h-208l261 723h276zM475 282l-96 308l-97 -308h193zM503 775h-144l-185 156h216z" />
    <glyph glyph-name="Atilde" unicode="&#xc3;" horiz-adv-x="784" 
d="M794 0h-233l-50 157h-263l-50 -157h-208l261 723h276zM475 282l-96 308l-97 -308h193zM612 926c-9 -84 -61 -148 -135 -148c-29 0 -54 8 -101 21c-39 11 -59 15 -76 15c-21 0 -34 -12 -38 -34h-88c7 87 61 148 140 148c35 0 51 -7 123 -29c24 -7 36 -11 50 -11
c22 0 31 13 34 38h91z" />
    <glyph glyph-name="Otilde" unicode="&#xd5;" horiz-adv-x="806" 
d="M769 362c0 -113 -28 -201 -86 -266c-64 -72 -160 -112 -286 -112c-237 0 -360 147 -360 378c0 228 127 377 370 377c242 0 362 -149 362 -377zM541 363c0 64 -12 135 -35 178c-23 42 -54 65 -103 65c-57 0 -90 -31 -112 -87c-17 -44 -25 -105 -25 -158
c0 -138 31 -243 136 -243s139 105 139 245zM622 926c-10 -84 -61 -148 -135 -148c-30 0 -54 8 -101 21c-40 11 -59 15 -76 15c-22 0 -35 -12 -38 -34h-88c6 87 61 148 140 148c35 0 50 -7 123 -29c23 -7 36 -11 50 -11c21 0 31 13 34 38h91z" />
    <glyph glyph-name="divide" unicode="&#xf7;" horiz-adv-x="662" 
d="M406 380h-150v146h150v-146zM598 200h-534v130h534v-130zM406 3h-150v145h150v-145z" />
    <glyph glyph-name="lozenge" unicode="&#x25ca;" horiz-adv-x="628" 
d="M562 348l-188 -389h-122l-186 389l187 388h121zM426 348l-113 255l-112 -255l112 -258z" />
    <glyph glyph-name="ydieresis" unicode="&#xff;" horiz-adv-x="638" 
d="M646 505l-302 -695h-210l97 202l-239 493h228l111 -324l107 324h208zM541 585h-166v141h166v-141zM290 585h-164v141h164v-141z" />
    <glyph glyph-name="Ydieresis" unicode="&#x178;" horiz-adv-x="704" 
d="M723 724l-263 -467v-257h-222v262l-257 462h238l141 -307l148 307h215zM576 785h-166v141h166v-141zM325 785h-164v141h164v-141z" />
    <glyph glyph-name="Acircumflex" unicode="&#xc2;" horiz-adv-x="784" 
d="M794 0h-233l-50 157h-263l-50 -157h-208l261 723h276zM475 282l-96 308l-97 -308h193zM608 775h-139l-74 81l-75 -81h-139l123 152h181z" />
    <glyph glyph-name="Ecircumflex" unicode="&#xca;" horiz-adv-x="657" 
d="M624 0h-552v723h541v-137h-327v-153h311v-134h-311v-164h338v-135zM564 775h-139l-74 81l-75 -81h-139l123 152h181z" />
    <glyph glyph-name="Aacute" unicode="&#xc1;" horiz-adv-x="784" 
d="M794 0h-233l-50 157h-263l-50 -157h-208l261 723h276zM475 282l-96 308l-97 -308h193zM614 931l-184 -156h-145l115 156h214z" />
    <glyph glyph-name="Edieresis" unicode="&#xcb;" horiz-adv-x="657" 
d="M624 0h-552v723h541v-137h-327v-153h311v-134h-311v-164h338v-135zM552 785h-166v141h166v-141zM301 785h-164v141h164v-141z" />
    <glyph glyph-name="Egrave" unicode="&#xc8;" horiz-adv-x="657" 
d="M624 0h-552v723h541v-137h-327v-153h311v-134h-311v-164h338v-135zM470 775h-144l-185 156h216z" />
    <glyph glyph-name="Iacute" unicode="&#xcd;" horiz-adv-x="366" 
d="M294 0h-222v723h222v-723zM400 931l-184 -156h-145l115 156h214z" />
    <glyph glyph-name="Icircumflex" unicode="&#xce;" horiz-adv-x="366" 
d="M294 0h-222v723h222v-723zM396 775h-139l-74 81l-75 -81h-139l123 152h181z" />
    <glyph glyph-name="Idieresis" unicode="&#xcf;" horiz-adv-x="366" 
d="M294 0h-222v723h222v-723zM392 785h-166v141h166v-141zM141 785h-164v141h164v-141z" />
    <glyph glyph-name="Igrave" unicode="&#xcc;" horiz-adv-x="366" 
d="M294 0h-222v723h222v-723zM297 775h-144l-185 156h216z" />
    <glyph glyph-name="Oacute" unicode="&#xd3;" horiz-adv-x="806" 
d="M769 362c0 -113 -28 -201 -86 -266c-64 -72 -160 -112 -286 -112c-237 0 -360 147 -360 378c0 228 127 377 370 377c242 0 362 -149 362 -377zM541 363c0 64 -12 135 -35 178c-23 42 -54 65 -103 65c-57 0 -90 -31 -112 -87c-17 -44 -25 -105 -25 -158
c0 -138 31 -243 136 -243s139 105 139 245zM622 931l-184 -156h-145l115 156h214z" />
    <glyph glyph-name="Ocircumflex" unicode="&#xd4;" horiz-adv-x="806" 
d="M769 362c0 -113 -28 -201 -86 -266c-64 -72 -160 -112 -286 -112c-237 0 -360 147 -360 378c0 228 127 377 370 377c242 0 362 -149 362 -377zM541 363c0 64 -12 135 -35 178c-23 42 -54 65 -103 65c-57 0 -90 -31 -112 -87c-17 -44 -25 -105 -25 -158
c0 -138 31 -243 136 -243s139 105 139 245zM619 775h-139l-74 81l-75 -81h-139l123 152h181z" />
    <glyph glyph-name="Ograve" unicode="&#xd2;" horiz-adv-x="806" 
d="M769 362c0 -113 -28 -201 -86 -266c-64 -72 -160 -112 -286 -112c-237 0 -360 147 -360 378c0 228 127 377 370 377c242 0 362 -149 362 -377zM541 363c0 64 -12 135 -35 178c-23 42 -54 65 -103 65c-57 0 -90 -31 -112 -87c-17 -44 -25 -105 -25 -158
c0 -138 31 -243 136 -243s139 105 139 245zM511 775h-144l-185 156h216z" />
    <glyph glyph-name="Uacute" unicode="&#xda;" horiz-adv-x="803" 
d="M735 298c0 -106 -22 -174 -71 -225c-57 -59 -149 -89 -270 -89c-124 0 -227 31 -281 116c-35 55 -45 117 -45 192v431h222v-451c0 -98 22 -154 113 -154c92 0 118 60 118 156v449h214v-425zM621 931l-184 -156h-145l115 156h214z" />
    <glyph glyph-name="Ucircumflex" unicode="&#xdb;" horiz-adv-x="803" 
d="M735 298c0 -106 -22 -174 -71 -225c-57 -59 -149 -89 -270 -89c-124 0 -227 31 -281 116c-35 55 -45 117 -45 192v431h222v-451c0 -98 22 -154 113 -154c92 0 118 60 118 156v449h214v-425zM617 775h-139l-74 81l-75 -81h-139l123 152h181z" />
    <glyph glyph-name="Ugrave" unicode="&#xd9;" horiz-adv-x="803" 
d="M735 298c0 -106 -22 -174 -71 -225c-57 -59 -149 -89 -270 -89c-124 0 -227 31 -281 116c-35 55 -45 117 -45 192v431h222v-451c0 -98 22 -154 113 -154c92 0 118 60 118 156v449h214v-425zM516 775h-144l-185 156h216z" />
    </font>
</defs>
</svg>
