<?xml version="1.0" standalone="no"?>
<!DOCTYPE svg PUBLIC "-//W3C//DTD SVG 1.1//EN" "http://www.w3.org/Graphics/SVG/1.1/DTD/svg11.dtd" >
<svg xmlns="http://www.w3.org/2000/svg" xmlns:xlink="http://www.w3.org/1999/xlink" version="1.1">
<metadata>
Created by FontForge 20161116 at Sat Oct 12 22:39:00 2002
 By Jimmy Wärting
 The digitally encoded machine readable software for producing
 the Typefaces licensed to you is copyrighted (c) 1989, 2002 Adobe
 Systems. All Rights Reserved. This software is the property of
 Adobe Systems Incorporated and its licensors, and may not be
 reproduced, used, displayed, modified, disclosed or transferred
 without the express written approval of Adobe.
 
 The digitally encoded machine readable outline data for producing the Typefaces 
 provided as part of your laser printer is copyrighted (c) 1981, 2002 Heidelberger Druckmaschinen AG. 
 All rights reserved. This data is the property of Heidelberger Druckmaschinen AG, 
 and may not be reproduced, used, displayed, modified, disclosed or transferred 
 without the express written approval of Heidelberger Druckmaschinen AG. 
</metadata>
<defs>
<font id="SabonLTStd-Italic" horiz-adv-x="556" >
  <font-face 
    font-family="Sabon LT Std"
    font-weight="400"
    font-style="italic"
    font-stretch="normal"
    units-per-em="1000"
    panose-1="2 2 5 2 5 5 6 9 3 3"
    ascent="764"
    descent="-236"
    x-height="457"
    cap-height="698"
    bbox="-146 -228.093 1059 927"
    underline-thickness="50"
    underline-position="-100"
    slope="-12"
    stemh="20"
    stemv="86"
    unicode-range="U+0020-FB02"
  />
<missing-glyph horiz-adv-x="592" 
d="M92 0v700h500v-700h-500zM342 395l170 255h-340zM372 350l170 -255v510zM172 50h340l-170 255zM142 605v-510l170 255z" />
    <glyph glyph-name="f_i" unicode="fi" 
d="M30 401l12 41h97c24 118 63 205 159 275c42 30 87 47 139 47c46 0 107 -18 107 -74c0 -26 -19 -49 -45 -49c-18 0 -29 1 -29 20c1 46 -37 62 -72 62c-46 0 -81 -28 -107 -65c-26 -38 -42 -85 -50 -123l-19 -93h278l9 -9l-93 -309c-6 -20 -10 -34 -10 -44s3 -15 13 -15
c14 0 66 56 76 67l16 -13c-31 -42 -102 -134 -159 -134c-29 0 -38 19 -38 42c0 12 4 30 10 49l92 325h-203l-141 -596l-62 -33l-8 5l130 624h-102z" />
    <glyph glyph-name="f_l" unicode="fl" 
d="M30 401l12 41h97l10 45c28 128 163 277 281 277c15 0 34 -4 58 -13l9 -3l45 14l12 -9l-155 -648c-2 -7 -4 -16 -4 -23c0 -9 4 -17 17 -17c20 0 78 55 94 70l14 -14c-35 -41 -115 -136 -174 -136c-26 0 -43 19 -43 44c0 21 12 67 17 89l136 563c-20 17 -41 29 -80 29
c-99 0 -128 -124 -147 -230l-7 -38h110l-12 -41h-107l-141 -596l-62 -33l-8 5l130 624h-102z" />
    <glyph glyph-name=".notdef" horiz-adv-x="592" 
d="M92 0v700h500v-700h-500zM342 395l170 255h-340zM372 350l170 -255v510zM172 50h340l-170 255zM142 605v-510l170 255z" />
    <glyph glyph-name="space" unicode=" " horiz-adv-x="278" 
 />
    <glyph glyph-name="exclam" unicode="!" horiz-adv-x="333" 
d="M153 188h-20l38 305c5 48 22 178 87 178c31 0 44 -25 44 -53c0 -35 -17 -87 -33 -130zM121 -15c-35 0 -66 29 -66 65c0 35 31 67 66 67s66 -31 66 -67s-30 -65 -66 -65z" />
    <glyph glyph-name="quotedbl" unicode="&#x22;" 
d="M300 638l-17 -150c-2 -16 -8 -23 -18 -23s-16 7 -18 23l-17 150c-1 4 -2 10 -2 17c0 20 5 43 37 43s37 -23 37 -43c0 -7 -1 -13 -2 -17zM427 638l-17 -150c-2 -16 -8 -23 -18 -23s-16 7 -18 23l-17 150c-1 4 -2 10 -2 17c0 20 5 43 37 43s37 -23 37 -43
c0 -7 -1 -13 -2 -17z" />
    <glyph glyph-name="numbersign" unicode="#" 
d="M521 272l-7 -54h-104l-31 -218h-62l31 218h-129l-31 -218h-62l31 218h-104l8 54h104l21 146h-105l8 54h104l31 218h61l-31 -218h130l31 218h61l-31 -218h104l-7 -54h-104l-21 -146h104zM377 418h-130l-21 -146h130z" />
    <glyph glyph-name="dollar" unicode="$" 
d="M294 286l-48 -275c68 6 127 55 127 128c0 54 -36 101 -79 147zM291 441l43 240c-66 0 -114 -36 -114 -105c0 -47 32 -92 71 -135zM45 -7l26 210h20c5 -90 17 -177 125 -192l53 303c-61 62 -123 126 -123 212c0 58 20 106 54 138c63 58 124 48 139 49l13 75h30l-13 -75
c10 -1 40 -6 60 -13c22 -7 32 -11 41 -11c11 0 21 9 27 10h10l-33 -177h-20c0 51 12 141 -91 157l-47 -265c54 -59 116 -117 135 -179c6 -18 8 -37 8 -55c0 -120 -105 -195 -218 -195l-13 -74h-31l14 77c-38 5 -77 20 -110 33l-44 -28h-12z" />
    <glyph glyph-name="percent" unicode="%" horiz-adv-x="1000" 
d="M550 137c0 101 92 184 191 184c90 0 141 -66 141 -152c0 -101 -90 -184 -188 -184c-85 0 -144 70 -144 152zM624 110c0 -43 16 -101 69 -99c79 -2 115 116 115 180c0 46 -10 106 -68 104c-81 2 -116 -120 -116 -185zM96 521c0 101 92 184 191 184c90 0 141 -66 141 -152
c0 -101 -90 -184 -188 -184c-85 0 -144 70 -144 152zM170 494c0 -43 16 -101 69 -99c79 -2 115 116 115 180c0 46 -10 106 -68 104c-81 2 -116 -120 -116 -185zM241 -23l448 736h47l-447 -736h-48z" />
    <glyph glyph-name="ampersand" unicode="&#x26;" horiz-adv-x="944" 
d="M594 304c0 -27 -28 -37 -50 -37c-20 0 -63 18 -63 76c0 80 100 160 176 160c107 0 132 -125 196 -125c21 0 34 19 34 38c0 18 -28 32 -28 61c0 17 16 30 33 30c28 0 42 -27 42 -52c0 -64 -74 -124 -135 -124c-35 0 -66 32 -88 56c-2 -68 -10 -142 -49 -212
c-47 -83 -136 -190 -318 -190c-142 0 -251 101 -251 256c0 127 129 297 263 297c23 0 47 -6 64 -23c26 32 114 101 114 145c0 14 -9 37 -9 46c0 23 19 36 40 36s35 -16 35 -45c0 -41 -64 -105 -92 -132l-207 -197l-39 -39l-48 -57c-21 -26 -37 -47 -37 -81
c0 -27 20 -53 37 -72c34 -39 97 -60 148 -60c110 0 200 60 247 114c57 64 72 152 76 234c-6 21 -60 42 -87 42c-35 0 -70 -28 -70 -64c0 -69 66 -25 66 -81zM298 484c-84 0 -146 -112 -146 -203c0 -13 0 -27 4 -40c28 38 56 71 86 102l94 99c4 4 5 7 5 11
c0 16 -23 31 -43 31z" />
    <glyph glyph-name="quoteright" unicode="&#x2019;" horiz-adv-x="278" 
d="M92 465l-11 20c46 -2 129 22 129 80c0 36 -26 17 -60 46c-6 4 -11 18 -11 25c0 38 25 62 63 62c45 0 67 -45 67 -88c0 -91 -94 -148 -177 -145z" />
    <glyph glyph-name="parenleft" unicode="(" horiz-adv-x="333" 
d="M353 713l21 -11c-131 -213 -221 -382 -221 -635c0 -83 13 -168 34 -248l-25 -12c-45 89 -75 187 -75 287c0 245 121 432 266 619z" />
    <glyph glyph-name="parenright" unicode=")" horiz-adv-x="333" 
d="M-10 -193l-21 11c131 213 221 382 221 635c0 83 -13 168 -34 248l25 12c45 -89 75 -187 75 -287c0 -245 -121 -432 -266 -619z" />
    <glyph glyph-name="asterisk" unicode="*" 
d="M503 529c0 -22 -10 -38 -33 -38c-24 0 -73 16 -110 29c2 3 2 6 2 9s-1 6 -2 9c37 13 74 30 110 30c19 0 33 -16 33 -39zM180 472c0 35 103 51 124 56c0 -4 6 -14 10 -16c-18 -22 -62 -87 -95 -87c-24 0 -39 25 -39 47zM360 366c-25 0 -35 17 -35 37c0 32 1 67 2 101
c2 -1 3 -1 5 -1c4 0 9 3 12 5c35 -48 61 -86 61 -105c0 -22 -25 -37 -45 -37zM201 645c15 16 32 22 50 8c29 -23 47 -59 68 -93c-4 0 -11 -10 -12 -14c-37 14 -77 23 -104 47c-8 6 -11 14 -12 22c0 10 4 21 10 30zM376 698c19 1 45 -13 45 -35c0 -29 -51 -86 -67 -106
c-3 3 -14 6 -18 6c2 29 3 58 3 87c0 28 13 48 37 48z" />
    <glyph glyph-name="plus" unicode="+" 
d="M245 254v188h66v-188h188v-66h-188v-188h-66v188h-188v66h188z" />
    <glyph glyph-name="comma" unicode="," horiz-adv-x="278" 
d="M0 -140l-7 20c60 8 134 27 134 101c0 6 -1 14 -7 18c-22 11 -36 5 -56 26c-9 10 -12 21 -12 34c0 47 37 58 65 58c52 0 76 -48 76 -95c0 -101 -100 -165 -193 -162z" />
    <glyph glyph-name="hyphen" unicode="-" horiz-adv-x="333" 
d="M39 206l18 66h236l-16 -66h-238z" />
    <glyph glyph-name="period" unicode="." horiz-adv-x="278" 
d="M116 -15c-35 0 -66 29 -66 65c0 35 31 67 66 67s66 -31 66 -67s-30 -65 -66 -65z" />
    <glyph glyph-name="slash" unicode="/" horiz-adv-x="278" 
d="M50 -15h-66l297 728h66z" />
    <glyph glyph-name="zero" unicode="0" 
d="M59 262c0 153 110 443 288 443c133 0 181 -137 181 -290c0 -149 -98 -430 -293 -430c-137 0 -176 167 -176 277zM139 199c0 -74 8 -188 105 -188c143 0 204 344 204 443c0 82 -1 219 -101 219c-156 0 -208 -366 -208 -474z" />
    <glyph glyph-name="one" unicode="1" 
d="M301 615l-160 -81l-13 24l266 147l10 -5l-105 -594c-4 -24 -6 -38 -6 -51c0 -28 27 -30 75 -30h41l-5 -25c-54 0 -107 2 -161 2c-55 0 -109 -1 -164 -2l5 25h32c53 0 76 0 85 40z" />
    <glyph glyph-name="two" unicode="2" 
d="M119 80h310l32 58l22 -6l-39 -132c-66 1 -133 2 -199 2c-74 0 -149 -1 -225 -2l3 35l141 133c85 82 211 225 211 350c0 68 -35 127 -109 127c-67 0 -103 -39 -149 -82l-16 23c58 61 118 119 207 119c94 0 159 -59 159 -156c0 -185 -230 -348 -348 -469z" />
    <glyph glyph-name="three" unicode="3" 
d="M184 349l5 27c83 6 191 64 191 159c0 70 -33 123 -106 123c-52 0 -84 -30 -124 -59l-16 18c60 50 107 88 188 88c76 0 144 -48 144 -131c0 -110 -85 -160 -174 -196v-2c89 -12 152 -62 152 -159c0 -123 -119 -232 -267 -232c-63 0 -95 5 -149 41l-11 51l42 13
c23 -55 61 -79 119 -79c107 0 174 100 174 196c0 80 -43 143 -126 143c-14 0 -28 1 -42 -1z" />
    <glyph glyph-name="four" unicode="4" 
d="M270 0l43 231h-288l3 35l409 439h45l-76 -408h110l-13 -66h-109l-42 -231h-82zM325 297l54 296h-2l-273 -296h221z" />
    <glyph glyph-name="five" unicode="5" 
d="M499 610h-221l-43 -107c93 -60 191 -153 191 -275c0 -134 -97 -243 -237 -243c-88 0 -132 32 -147 47l-10 43l43 15c32 -55 64 -79 128 -79c93 0 143 91 143 174c0 116 -82 198 -175 249l104 256h252z" />
    <glyph glyph-name="six" unicode="6" 
d="M201 307l11 38c34 21 88 41 134 41c78 0 149 -68 149 -168c0 -125 -102 -233 -229 -233c-134 0 -198 108 -198 220c0 237 238 445 459 485l8 -23c-137 -29 -246 -121 -311 -239c-40 -75 -70 -165 -70 -251c0 -66 22 -166 118 -166c99 0 137 106 137 188
c0 77 -38 140 -121 140c-34 0 -60 -11 -87 -32z" />
    <glyph glyph-name="seven" unicode="7" 
d="M84 567l34 123h451v-8l-426 -704l-40 22l373 610h-343l-24 -43h-25z" />
    <glyph glyph-name="eight" unicode="8" 
d="M66 131c0 113 91 165 181 205c-47 41 -101 105 -101 186c0 96 75 183 190 183c84 0 172 -52 172 -145c0 -101 -81 -159 -162 -200c59 -55 104 -97 104 -188c0 -120 -96 -187 -213 -187c-82 0 -171 55 -171 146zM132 130c0 -66 45 -113 113 -113c73 0 125 47 125 128
c0 67 -57 124 -107 173c-74 -43 -131 -97 -131 -188zM220 554c0 -69 64 -135 109 -182c64 44 113 99 113 181c0 71 -37 120 -110 120c-63 0 -112 -57 -112 -119z" />
    <glyph glyph-name="nine" unicode="9" 
d="M377 383l-11 -38c-34 -21 -88 -41 -134 -41c-78 0 -149 68 -149 168c0 125 102 233 229 233c134 0 198 -108 198 -220c0 -237 -238 -445 -459 -485l-8 23c137 29 246 121 311 239c40 75 70 165 70 251c0 66 -22 166 -118 166c-99 0 -137 -106 -137 -188
c0 -77 38 -140 121 -140c34 0 60 11 87 32z" />
    <glyph glyph-name="colon" unicode=":" horiz-adv-x="278" 
d="M170 279c-35 0 -66 29 -66 65c0 35 31 67 66 67s66 -31 66 -67s-30 -65 -66 -65zM116 -15c-35 0 -66 29 -66 65c0 35 31 67 66 67s66 -31 66 -67s-30 -65 -66 -65z" />
    <glyph glyph-name="semicolon" unicode=";" horiz-adv-x="278" 
d="M0 -140l-7 20c60 8 134 27 134 101c0 6 -1 14 -7 18c-22 11 -36 5 -56 26c-9 10 -12 21 -12 34c0 47 37 58 65 58c52 0 76 -48 76 -95c0 -101 -100 -165 -193 -162zM170 279c-35 0 -66 29 -66 65c0 35 31 67 66 67s66 -31 66 -67s-30 -65 -66 -65z" />
    <glyph glyph-name="less" unicode="&#x3c;" 
d="M499 66v-71l-442 193v66l442 193v-71l-366 -155z" />
    <glyph glyph-name="equal" unicode="=" 
d="M499 354v-66h-442v66h442zM499 154v-66h-442v66h442z" />
    <glyph glyph-name="greater" unicode="&#x3e;" 
d="M57 66l366 155l-366 155v71l442 -193v-66l-442 -193v71z" />
    <glyph glyph-name="question" unicode="?" horiz-adv-x="444" 
d="M216 627c-19 0 -31 14 -31 32c0 35 35 39 62 39c83 0 162 -67 162 -153c0 -153 -159 -143 -227 -181c-22 -13 -37 -38 -37 -64c0 -46 51 -62 74 -62c17 0 24 5 34 5c17 0 22 -10 22 -25c0 -21 -10 -40 -33 -40c-28 0 -50 14 -76 37s-62 90 -62 125c0 180 264 92 264 233
c0 43 -24 69 -69 69c-35 0 -58 -15 -83 -15zM155 -15c-35 0 -66 29 -66 65c0 35 31 67 66 67s66 -31 66 -67s-30 -65 -66 -65z" />
    <glyph glyph-name="at" unicode="@" horiz-adv-x="800" 
d="M345 282c0 -64 30 -86 67 -86c44 0 121 73 121 224c0 44 -12 68 -43 68c-51 0 -145 -76 -145 -206zM657 77l13 -32c-67 -31 -138 -60 -220 -60c-274 0 -394 207 -394 346c0 228 176 382 383 382c194 0 345 -134 345 -313c0 -108 -70 -253 -195 -253c-70 0 -95 62 -94 75
h-2c-12 -18 -60 -71 -121 -73c-29 -1 -101 11 -101 131c0 75 66 255 207 255c49 0 61 -29 75 -55l10 41h73l-65 -258c-4 -15 -6 -27 -6 -37c0 -22 8 -47 40 -47c86 0 139 128 139 221c0 122 -112 281 -305 281c-160 0 -297 -125 -297 -360c0 -149 124 -295 307 -295
c93 0 148 24 208 51z" />
    <glyph glyph-name="A" unicode="A" horiz-adv-x="722" 
d="M97 93l344 609c12 3 24 6 36 11l6 -4l110 -621c6 -43 26 -65 72 -62l-5 -26c-42 0 -84 2 -126 2c-36 0 -72 -1 -108 -2l5 26c30 -1 76 -2 70 38l-30 198h-234l-82 -170c-7 -15 -11 -27 -11 -36c0 -27 26 -30 43 -30h30l-5 -26c-39 0 -79 2 -118 2c-31 0 -61 -1 -92 -2
l5 26c47 -1 70 28 90 67zM420 601l-161 -298h207l-44 298h-2z" />
    <glyph glyph-name="B" unicode="B" horiz-adv-x="667" 
d="M255 347l-48 -266c-8 -50 64 -49 97 -49c111 0 178 82 178 188c0 113 -81 130 -174 130c-18 0 -35 -1 -53 -3zM315 664l-54 -279c29 -2 51 -3 73 -3c83 0 167 55 167 170c0 89 -75 114 -148 114c-13 0 -26 -1 -38 -2zM123 104l94 524c7 39 -41 44 -68 44h-21l4 26
c48 -2 96 -3 144 -3c32 0 65 3 98 3c97 0 225 -27 225 -149c0 -109 -100 -168 -196 -177v-2c98 -10 177 -51 177 -160c0 -144 -138 -210 -278 -210c-47 0 -93 2 -140 2c-46 0 -93 -1 -139 -2l5 26h16c68 -1 69 20 79 78z" />
    <glyph glyph-name="C" unicode="C" horiz-adv-x="722" 
d="M725 679l-33 -176l-20 6c4 44 -1 86 -39 124c-32 32 -76 48 -131 48c-204 0 -310 -195 -310 -360c0 -174 75 -304 230 -304c127 0 192 70 240 182l22 -5l-40 -170c-6 4 -16 8 -27 8c-14 0 -44 -15 -68 -24c-46 -17 -75 -23 -128 -23c-192 0 -333 133 -333 336
c0 217 180 392 394 392c149 0 167 -47 200 -47c13 0 22 12 31 20z" />
    <glyph glyph-name="D" unicode="D" horiz-adv-x="833" 
d="M122 96l84 455c8 36 10 61 10 79c0 32 -24 38 -70 42h-19l5 26c40 -2 79 -3 119 -3c48 0 78 3 149 3c146 0 211 -41 257 -76c67 -51 113 -131 113 -240c0 -235 -182 -382 -411 -382c-44 0 -89 1 -133 1c-68 0 -135 -1 -203 -1l5 26h22c47 2 62 12 72 70zM317 663
l-106 -569c-12 -59 62 -62 129 -62c208 0 332 166 332 364c0 135 -84 211 -138 236c-49 23 -77 34 -147 34c-40 0 -55 -2 -70 -3z" />
    <glyph glyph-name="E" unicode="E" horiz-adv-x="667" 
d="M19 0l5 26h14c63 -1 72 26 80 67l94 515c2 9 2 16 2 25c0 16 -16 39 -65 39h-20l5 26c81 -1 162 -4 243 -4s161 3 242 4l-11 -139h-20v24c0 72 -40 83 -154 83h-122l-52 -284h130c46 -1 86 5 97 45l13 48h17l-41 -227h-16l3 39c4 45 -27 54 -90 54h-119l-39 -223
c-2 -13 -5 -26 -5 -38c0 -27 11 -48 57 -48h157c114 0 131 34 174 136h23l-45 -168c-46 0 -222 2 -337 2c-73 0 -147 -1 -220 -2z" />
    <glyph glyph-name="F" unicode="F" 
d="M19 0l5 26h12c57 -1 66 5 80 59l93 500c3 15 4 28 4 39c0 44 -28 50 -77 48h-9l5 26c91 -4 182 -4 273 -4c54 0 107 4 161 4l-10 -137h-21c-3 29 1 68 -23 89s-108 16 -175 16h-26l-51 -284h130c79 2 88 14 108 80l5 16h21l-42 -242h-20c2 17 6 34 6 52
c0 43 -34 52 -67 53h-150l-43 -254c-1 -9 -2 -17 -2 -23c0 -32 13 -39 78 -38h17l-5 -26c-71 -1 -105 1 -153 1c-36 0 -102 -1 -124 -1z" />
    <glyph glyph-name="G" unicode="G" horiz-adv-x="833" 
d="M769 672l-27 -169h-20c0 55 -12 93 -37 121c-37 41 -108 57 -160 57c-182 0 -333 -180 -333 -363c0 -145 86 -301 238 -301c73 0 140 15 156 95l16 101c8 48 -40 49 -78 49h-21l5 26c55 -2 111 -3 166 -3c35 0 70 3 105 3l-5 -25h-13c-55 0 -65 -34 -75 -83l-23 -141
c-71 -29 -162 -54 -239 -54c-193 0 -336 128 -336 330c0 227 196 398 420 398c61 0 134 -14 186 -34c19 -7 32 -11 39 -11c10 0 17 8 20 8z" />
    <glyph glyph-name="H" unicode="H" horiz-adv-x="833" 
d="M293 571l-34 -189h373l40 218c13 70 -16 72 -47 72h-34l5 26c48 -2 94 -3 141 -3c41 0 81 3 123 3l-5 -26h-18c-63 0 -66 -21 -81 -101l-83 -444c-17 -89 -10 -102 38 -101h37l-5 -26c-44 0 -89 2 -133 2c-43 0 -86 -1 -129 -2l5 26h19c59 -1 64 20 76 84l42 231h-371
l-41 -214c-17 -89 -10 -102 38 -101h37l-5 -26c-44 0 -89 2 -133 2c-43 0 -86 -1 -129 -2l5 26h19c59 -1 64 20 76 84l90 490c13 70 -16 72 -47 72h-34l5 26c48 -2 94 -3 141 -3c41 0 81 3 123 3l-5 -26h-18c-63 0 -66 -21 -81 -101z" />
    <glyph glyph-name="I" unicode="I" horiz-adv-x="389" 
d="M23 0l5 26h17c56 0 62 12 76 71l97 529c9 50 -39 46 -67 46h-18l5 26c50 -2 98 -2 147 -2c38 0 77 2 117 2l-5 -26h-19c-10 0 -60 6 -70 -43l-98 -533c-11 -60 4 -70 66 -70h15l-5 -26c-44 0 -89 2 -133 2c-43 0 -87 -1 -130 -2z" />
    <glyph glyph-name="J" unicode="J" horiz-adv-x="389" 
d="M96 -56l121 634c9 43 11 55 11 64c0 19 -19 30 -46 30h-47l5 26c45 -2 89 -3 134 -3c42 0 85 3 128 3l-5 -26h-26c-42 0 -48 -23 -56 -63l-94 -478c-17 -93 -61 -233 -124 -305c-30 -34 -56 -54 -100 -54c-32 0 -68 21 -68 55c0 20 17 37 38 37c54 0 24 -60 63 -60
c22 0 46 34 66 140z" />
    <glyph glyph-name="K" unicode="K" horiz-adv-x="722" 
d="M130 672l5 26c46 -2 92 -2 138 -2c40 0 81 2 121 2l-5 -26c-35 0 -80 -5 -90 -59l-46 -257h11c43 0 69 37 98 65c28 27 193 202 193 228c0 21 -19 24 -36 23h-14l5 26c33 -2 66 -2 99 -2c36 0 73 2 109 2l-5 -26c-17 0 -34 0 -49 -7c-28 -13 -70 -51 -93 -73l-215 -221
l201 -275c23 -31 50 -70 91 -70h12l-5 -26c-27 0 -54 2 -81 2c-15 0 -29 -2 -44 -2c-16 0 -34 23 -67 67c-51 69 -111 157 -175 242c-9 12 -15 21 -30 21h-11l-36 -197c-4 -27 -9 -57 -9 -73c0 -15 5 -34 68 -34h15l-5 -26c-40 0 -79 2 -119 2c-46 0 -92 -1 -138 -2l5 26h4
c26 1 46 -4 65 18c13 15 20 58 24 80l88 479c3 14 4 25 4 34c0 36 -32 36 -66 35h-17z" />
    <glyph glyph-name="L" unicode="L" horiz-adv-x="667" 
d="M628 174l-54 -174c-102 1 -205 2 -307 2c-78 0 -157 0 -235 -2l5 26h26c54 5 66 27 77 92l88 498c10 56 -54 59 -89 56l5 26c50 0 101 -2 151 -2c43 0 86 2 129 2l-5 -26c-64 1 -84 -1 -99 -65l-105 -575h212c95 0 151 53 177 142h24z" />
    <glyph glyph-name="M" unicode="M" horiz-adv-x="944" 
d="M14 0l5 26h11c56 0 74 9 96 96l124 496c-17 47 -47 53 -91 54h-13l5 26c31 -2 62 -2 94 -2c29 0 58 2 87 2l136 -564l288 564c24 -2 48 -2 72 -2c34 0 69 2 102 2l-5 -26h-11c-58 0 -74 -22 -77 -68l-32 -506c-3 -54 15 -72 69 -72h16l-5 -26c-43 0 -87 2 -130 2
c-48 0 -96 -1 -144 -2l5 26h12c58 0 80 8 85 70l37 497h-2l-304 -593h-34l-132 558h-2l-109 -464c-2 -10 -5 -20 -5 -29c0 -23 7 -39 40 -39h40l-5 -26c-29 0 -58 2 -87 2c-45 0 -91 -1 -136 -2z" />
    <glyph glyph-name="N" unicode="N" horiz-adv-x="833" 
d="M19 0l4 26h14c56 0 77 10 99 136l76 432c1 5 -26 49 -54 61c-22 11 -47 17 -56 17h-9l4 26c30 -2 61 -3 91 -3c22 0 45 3 67 3l382 -567l71 417c5 22 7 45 7 67c0 52 -33 57 -73 57h-19l4 26c37 -2 74 -3 111 -3c39 0 79 3 118 3l-4 -26h-15c-66 0 -70 -55 -82 -119
l-86 -467c17 -28 38 -57 71 -66l-5 -20c-20 1 -39 2 -59 2s-40 -1 -60 -2l-371 551l-66 -404c-4 -25 -10 -55 -10 -75c0 -26 17 -46 64 -46h32l-5 -26c-40 0 -81 2 -121 2s-80 -1 -120 -2z" />
    <glyph glyph-name="O" unicode="O" horiz-adv-x="889" 
d="M186 294c0 -157 70 -277 245 -277c197 0 297 212 297 379c0 150 -74 285 -244 285c-207 0 -298 -208 -298 -387zM88 315c0 221 176 398 395 398c180 0 343 -126 343 -315c0 -228 -168 -413 -400 -413c-200 0 -338 126 -338 330z" />
    <glyph glyph-name="P" unicode="P" horiz-adv-x="611" 
d="M23 0l5 26h21c34 3 56 5 67 56l94 530c9 49 -28 60 -81 60h-11l5 26c47 -2 94 -2 141 -2s93 2 140 2c100 0 185 -47 185 -157c0 -133 -121 -205 -244 -205c-17 0 -34 0 -51 2l5 30h31c77 0 161 42 161 172c0 87 -41 126 -133 126c-15 0 -31 -2 -46 -3l-68 -377l-32 -181
l-5 -36c0 -45 46 -44 81 -43h18l-5 -26c-47 1 -94 2 -141 2c-46 0 -91 -1 -137 -2z" />
    <glyph glyph-name="Q" unicode="Q" horiz-adv-x="889" 
d="M186 294c0 -157 70 -278 245 -278c197 0 297 213 297 380c0 150 -74 285 -244 285c-207 0 -298 -208 -298 -387zM56 -101v20c85 15 248 51 288 62l26 7v2c-170 20 -282 141 -282 325c0 221 176 398 395 398c180 0 343 -126 343 -315c0 -199 -129 -367 -369 -422
c-67 -15 -131 -28 -222 -50v-2c49 -15 98 -28 147 -42c85 -24 197 -61 285 -63c24 0 69 7 69 39c0 12 -5 26 -5 32c0 18 15 31 32 31c18 0 26 -10 26 -26c0 -56 -95 -126 -213 -123c-93 2 -270 64 -366 92c-39 13 -114 33 -154 35z" />
    <glyph glyph-name="R" unicode="R" horiz-adv-x="722" 
d="M131 672l5 26c45 -2 89 -2 134 -2c34 0 69 2 103 2c98 0 226 -31 226 -153c0 -118 -103 -173 -206 -188c69 -67 110 -156 159 -239c28 -46 55 -102 119 -92l-5 -26h-123c-30 0 -79 82 -126 166c-48 85 -95 174 -121 182c-11 3 -21 2 -32 2l-42 -246l-5 -39
c0 -39 44 -39 76 -39h17l-5 -26c-46 1 -91 2 -137 2c-45 0 -91 -1 -136 -2l5 26h10c46 0 69 0 83 72l90 496c3 13 4 24 4 33c0 38 -26 45 -77 45h-16zM321 666l-52 -290c23 0 46 0 69 1c95 3 169 62 169 161c0 98 -60 128 -173 128h-13z" />
    <glyph glyph-name="S" unicode="S" horiz-adv-x="500" 
d="M50 203h20c3 -40 1 -71 17 -110c19 -47 71 -76 123 -76c75 0 137 45 137 122c0 145 -223 225 -223 390c0 108 76 184 187 184c44 0 70 -5 109 -18c9 -3 19 -7 28 -7c11 0 13 5 20 9h17l-31 -176h-22c0 14 2 28 2 42c0 74 -49 118 -122 118c-66 0 -108 -38 -108 -105
c0 -138 235 -227 235 -393c0 -113 -95 -198 -215 -198c-64 0 -108 20 -145 36l-33 -30h-23z" />
    <glyph glyph-name="T" unicode="T" horiz-adv-x="667" 
d="M267 104l99 553h-169c-82 0 -93 -73 -106 -113h-26l37 169h18c9 -5 19 -9 28 -11c10 -3 20 -4 30 -4h469c17 0 39 3 54 15h17l-17 -171h-26v27c0 67 -13 88 -79 88h-137l-97 -535c-1 -9 -9 -47 -9 -57c0 -31 21 -39 73 -39h26l-5 -26c-53 0 -107 2 -160 2
c-43 0 -87 -1 -130 -2l5 26h31c44 -1 63 15 74 78z" />
    <glyph glyph-name="U" unicode="U" horiz-adv-x="778" 
d="M155 298l45 259c4 24 7 46 7 62c0 53 -35 53 -75 53h-19l5 26c52 -2 105 -2 157 -2c44 0 88 2 133 2l-5 -25h-23c-48 -2 -74 -20 -91 -124l-54 -335c-2 -14 -3 -28 -3 -40c0 -103 84 -148 163 -148c175 0 196 127 218 272l48 274c3 17 3 26 3 38c0 44 -29 62 -85 62h-15
l5 26c40 -2 82 -2 123 -2c36 0 73 2 109 2l-5 -26h-13c-72 0 -78 -100 -87 -155l-44 -266c-18 -105 -31 -151 -82 -200c-40 -39 -101 -66 -195 -66c-114 0 -235 50 -235 183c0 43 7 87 15 130z" />
    <glyph glyph-name="V" unicode="V" horiz-adv-x="722" 
d="M370 698l-5 -26h-5c-43 0 -81 -5 -74 -42l104 -513h2l235 484c7 15 12 27 12 41c0 29 -53 30 -78 30h-8l5 26c38 -2 75 -2 113 -2c36 0 71 2 107 2l-5 -26c-44 2 -64 -12 -83 -51l-330 -636h-34l-129 615c-10 50 -22 72 -87 72h-6l5 26c42 0 85 -2 127 -2
c44 0 89 2 134 2z" />
    <glyph glyph-name="W" unicode="W" horiz-adv-x="1000" 
d="M348 698l-5 -26h-10c-27 0 -55 -4 -54 -30c1 -13 3 -24 7 -38l112 -494l137 241l-76 284c-9 26 -25 35 -65 37h-12l5 26c40 -2 81 -1 122 -2c37 -1 74 2 95 2l-5 -26h-19c-20 -1 -30 -16 -26 -32l42 -182h2l82 150c8 17 13 31 13 39c0 22 -12 24 -47 25h-9l5 26
c29 -2 59 -1 89 -2c32 -1 63 0 96 2l-5 -26h-15c-47 2 -60 -29 -83 -68c-10 -17 -114 -193 -114 -193l75 -301h2l231 480c8 17 17 35 17 55c0 21 -10 26 -61 27h-12l5 26c31 -2 67 -3 101 -2c30 1 61 2 91 2l-5 -26h-8c-36 -1 -48 -27 -68 -66l-318 -621h-28l-85 317
l-184 -317h-26l-154 650c-6 26 -22 35 -62 37h-12l5 26c40 -2 81 -1 122 -2c37 -1 74 2 112 2z" />
    <glyph glyph-name="X" unicode="X" horiz-adv-x="778" 
d="M14 0l5 26h16c22 2 35 4 58 16c10 5 29 22 49 44l224 250l-158 287c-23 42 -44 49 -93 49h-13l5 26c43 -2 87 -1 131 -2c46 -1 91 0 137 2l-5 -26h-8c-21 0 -55 -1 -55 -24c0 -6 5 -22 15 -40l110 -202l185 216c9 11 12 18 12 24c0 8 -4 26 -61 26h-10l5 26
c38 0 77 -2 115 -2c35 0 69 2 105 2l-5 -26h-15c-25 0 -59 -23 -76 -42l-236 -257l152 -273c28 -51 44 -74 85 -74h23l-5 -26c-42 0 -83 2 -125 2c-46 0 -91 -1 -137 -2l5 26h11c22 -1 53 -1 53 25c0 8 -7 27 -19 49l-109 201l-180 -215c-10 -11 -22 -24 -22 -40
c0 -21 35 -21 55 -20h9l-5 -26c-37 0 -75 2 -112 2c-39 0 -77 -1 -116 -2z" />
    <glyph glyph-name="Y" unicode="Y" horiz-adv-x="667" 
d="M351 698l-5 -26h-36c-20 0 -45 -9 -33 -37l128 -303l182 285c11 17 13 29 13 34c0 20 -38 21 -62 21h-17l4 26c40 -2 81 -2 121 -2c25 0 49 0 74 2l-5 -26c-29 3 -51 -24 -67 -47l-10 -15l-220 -323l-37 -196c-12 -65 27 -65 77 -65h18l-5 -26c-51 0 -103 2 -154 2
c-43 0 -86 -1 -129 -2l4 26h22c60 -1 67 14 76 60l38 199l-154 352c-11 24 -42 35 -71 35h-10l4 26c41 -2 82 -2 123 -2c44 0 87 2 131 2z" />
    <glyph glyph-name="Z" unicode="Z" horiz-adv-x="722" 
d="M21 0v8l548 652h-233c-112 0 -155 -4 -196 -113h-24l44 151h544v-8l-542 -649h316c73 0 94 22 111 36c23 18 46 71 57 106h23l-47 -183c-103 1 -206 2 -309 2c-97 0 -195 -2 -292 -2z" />
    <glyph glyph-name="bracketleft" unicode="[" horiz-adv-x="333" 
d="M210 -167l-4 -26c-28 0 -56 2 -84 2c-25 0 -56 -2 -78 -2l-3 11l169 887l7 8c22 0 52 -2 72 -2c25 0 51 2 76 2l-4 -26h-33c-41 0 -61 -3 -68 -42l-146 -764c-1 -8 -3 -16 -3 -24c0 -22 30 -24 55 -24h44z" />
    <glyph glyph-name="backslash" unicode="\" horiz-adv-x="278" 
d="M309 -15h-66l-234 728h66z" />
    <glyph glyph-name="bracketright" unicode="]" horiz-adv-x="333" 
d="M133 687l4 26c28 0 56 -2 84 -2c25 0 56 2 78 2l3 -11l-169 -887l-7 -8c-22 0 -52 2 -72 2c-25 0 -51 -2 -76 -2l4 26h33c41 0 61 3 68 42l146 764c1 8 3 16 3 24c0 6 -2 14 -7 18c-9 7 -28 6 -48 6h-44z" />
    <glyph glyph-name="asciicircum" unicode="^" 
d="M135 325h-68l181 365h60l181 -365h-68l-143 291z" />
    <glyph glyph-name="underscore" unicode="_" horiz-adv-x="500" 
d="M500 -125h-500v50h500v-50z" />
    <glyph glyph-name="quoteleft" unicode="&#x2018;" horiz-adv-x="278" 
d="M294 698l11 -20c-46 2 -129 -22 -129 -80c0 -36 26 -17 60 -46c6 -4 11 -18 11 -25c0 -38 -25 -62 -63 -62c-45 0 -67 45 -67 88c0 91 94 148 177 145z" />
    <glyph glyph-name="a" unicode="a" horiz-adv-x="500" 
d="M87 128c0 -34 12 -69 51 -69c97 0 221 211 221 300c0 25 -24 51 -50 51c-108 0 -222 -183 -222 -282zM400 424l14 32c4 7 10 20 22 20h21c6 0 9 -2 9 -5c0 -2 -1 -4 -2 -8l-99 -355c-3 -9 -4 -15 -4 -25c0 -7 3 -14 12 -14c29 0 55 42 74 59l16 -13
c-39 -41 -97 -130 -160 -130c-15 0 -34 8 -34 28c0 17 8 45 17 73l28 88l-1 3c-51 -77 -144 -192 -224 -192c-61 0 -76 47 -76 83c0 159 195 389 324 389c25 0 48 -14 63 -33z" />
    <glyph glyph-name="b" unicode="b" 
d="M301 762l-130 -447l2 -2c54 62 136 144 226 144c80 0 113 -51 113 -127c0 -160 -183 -345 -341 -345c-66 0 -119 34 -119 107c0 25 6 50 12 74l132 526l-47 29l3 18c21 2 48 7 77 13c18 4 46 10 64 16zM432 346c0 38 -14 70 -60 70c-124 0 -246 -208 -246 -320
c0 -41 15 -85 61 -85c123 0 245 221 245 335z" />
    <glyph glyph-name="c" unicode="c" horiz-adv-x="444" 
d="M402 146l14 -18c-65 -74 -143 -143 -246 -143c-80 0 -122 58 -122 136c0 136 103 254 221 302c28 12 83 34 112 34c22 0 49 -14 49 -40c0 -30 -21 -52 -46 -52c-35 0 -51 32 -82 32c-101 0 -174 -183 -174 -266c0 -57 36 -92 95 -92c68 0 135 60 179 107z" />
    <glyph glyph-name="d" unicode="d" 
d="M116 131c0 -46 18 -92 72 -92c102 0 201 207 201 288c0 48 -17 89 -71 89c-113 0 -202 -192 -202 -285zM507 135l14 -14c-35 -48 -104 -136 -168 -136c-17 0 -31 13 -31 31c0 24 11 62 19 88l7 22h-2c-55 -66 -121 -141 -213 -141c-72 0 -97 56 -97 121
c0 64 29 132 68 189c47 68 149 162 236 162c27 0 53 -9 76 -22l49 252l-60 32l5 14c22 2 48 6 73 11c27 6 51 13 73 20l10 -4l-155 -647c-3 -13 -5 -23 -5 -33c0 -11 6 -16 16 -16c28 0 68 51 85 71z" />
    <glyph glyph-name="e" unicode="e" horiz-adv-x="444" 
d="M372 132l14 -17c-66 -73 -139 -130 -227 -130c-92 0 -123 68 -123 135c0 160 143 337 288 337c45 0 98 -16 98 -71c0 -136 -191 -183 -298 -193c-6 -26 -8 -51 -8 -77c0 -50 35 -77 82 -77c58 0 117 38 174 93zM129 219c92 6 213 54 213 163c0 26 -15 43 -41 43
c-77 0 -156 -140 -172 -206z" />
    <glyph glyph-name="f" unicode="f" horiz-adv-x="333" 
d="M242 442h110l-12 -41h-109l-167 -611l-61 -18l-3 6l154 623h-90l11 41h88c32 111 58 194 150 274c27 24 69 48 107 48c20 0 41 -8 41 -32c0 -14 -10 -48 -28 -48c-19 0 -40 20 -63 20c-61 0 -79 -68 -93 -125z" />
    <glyph glyph-name="g" unicode="g" horiz-adv-x="500" 
d="M176 95l157 -81c46 -25 78 -42 78 -100c0 -101 -142 -142 -223 -142c-71 0 -206 18 -206 115c0 73 101 114 157 136c-19 12 -56 27 -56 55c0 38 54 68 81 86c-54 30 -85 61 -85 125c0 94 101 168 195 168c59 0 81 -18 132 -31c7 -2 15 -5 21 -5c12 0 23 6 33 12
s20 12 31 12c13 0 16 -15 16 -29c0 -18 -8 -37 -24 -37c-21 0 -41 22 -79 26c22 -24 32 -53 32 -84c0 -105 -104 -172 -202 -172c-15 0 -31 1 -46 3c-9 -3 -31 -25 -31 -35c0 -13 9 -17 19 -22zM296 -55l-127 65c-20 -7 -121 -51 -121 -107c0 -75 91 -99 152 -99
c48 0 145 16 145 81c0 27 -23 47 -49 60zM356 346c0 42 -19 85 -71 85c-81 4 -126 -101 -126 -167c0 -48 18 -89 73 -89c80 0 124 103 124 171z" />
    <glyph glyph-name="h" unicode="h" 
d="M295 760l-141 -527h2c43 68 179 224 272 224c53 0 72 -38 72 -87c0 -101 -122 -370 -225 -370c-19 0 -24 10 -24 22c0 6 3 14 5 20l21 49h69c31 62 74 178 74 247c0 34 -10 59 -40 59c-69 0 -187 -153 -216 -208c-34 -64 -41 -95 -60 -171c-2 -9 -9 -16 -43 -16
c-13 0 -32 5 -32 17c0 10 4 21 6 31l158 647l-49 28l3 13c16 2 41 5 66 9c24 4 47 10 71 17z" />
    <glyph glyph-name="i" unicode="i" horiz-adv-x="278" 
d="M63 313l-14 14c29 44 101 130 158 130c24 0 31 -10 31 -25s-9 -41 -14 -56l-82 -254c-6 -19 -10 -33 -10 -42c0 -10 3 -15 13 -15c14 0 66 54 76 65l16 -13c-31 -42 -102 -132 -159 -132c-29 0 -38 17 -38 40c0 12 5 29 11 49l86 254c5 14 9 28 9 37c0 7 -4 12 -12 12
c-21 0 -59 -48 -71 -64zM229 690c25 0 46 -23 46 -47c0 -23 -22 -45 -46 -45s-46 22 -46 45c0 24 21 47 46 47z" />
    <glyph glyph-name="j" unicode="j" horiz-adv-x="278" 
d="M-31 -228l-7 22c25 15 48 45 61 95l115 440c3 11 8 24 8 36c0 7 -4 12 -12 12c-21 0 -59 -48 -71 -64l-14 14c29 44 101 130 158 130c24 0 31 -10 31 -25c0 -12 -15 -59 -22 -85l-104 -374c-24 -85 -34 -94 -64 -136c-20 -28 -49 -50 -79 -65zM229 690
c23 0 46 -21 46 -46c0 -24 -22 -46 -46 -46c-25 0 -46 23 -46 46c0 24 22 46 46 46z" />
    <glyph glyph-name="k" unicode="k" 
d="M41 7l167 678l-49 30l3 16c33 6 106 23 137 33l9 -4l-116 -443h2c36 51 130 140 210 140c45 0 75 -27 75 -74c0 -100 -136 -168 -224 -189v-2c46 -19 93 -100 140 -140c25 -21 40 -26 74 -26c10 0 22 6 30 11v-26c-30 -18 -64 -26 -97 -26c-51 0 -88 25 -119 65l-71 94
c-13 19 -28 37 -52 42l-49 -180c-4 -15 -16 -20 -37 -20c-19 0 -36 10 -33 21zM405 350c0 27 -16 47 -53 47c-85 0 -170 -123 -189 -191c14 0 28 1 42 2c72 6 200 62 200 142z" />
    <glyph glyph-name="l" unicode="l" horiz-adv-x="278" 
d="M292 758l-156 -652c-1 -4 -3 -13 -3 -20c0 -11 1 -21 13 -21c19 0 66 62 77 77l12 -21c-33 -43 -89 -136 -151 -136c-31 0 -37 23 -37 49c0 19 4 37 7 49l140 604l-60 32l5 14c22 2 48 6 73 11c27 6 51 13 73 20z" />
    <glyph glyph-name="m" unicode="m" horiz-adv-x="833" 
d="M781 137l14 -15l-31 -34c-39 -43 -86 -88 -141 -88c-19 0 -37 8 -37 34c0 11 5 27 12 47l81 232c5 14 11 31 11 41c0 16 -12 24 -23 24c-52 0 -143 -101 -175 -140c-47 -58 -75 -110 -103 -182l-19 -46c-3 -9 -25 -12 -34 -12c-12 0 -32 7 -35 14l90 266
c3 10 17 48 17 74c0 14 -5 25 -19 25c-54 0 -114 -70 -146 -105c-55 -59 -98 -128 -125 -204l-20 -57c-3 -8 -25 -11 -37 -11c-10 0 -27 6 -32 13l106 319c1 6 4 16 4 25c0 11 -4 20 -16 20c-21 0 -40 -17 -58 -35l-27 -30l-15 18c38 47 108 127 174 127c24 0 34 -16 34 -35
c0 -17 -7 -36 -11 -48l-52 -151h2c48 69 196 234 285 234c31 0 45 -14 45 -33c0 -16 -5 -36 -11 -54l-48 -149h2c54 68 204 236 299 236c31 0 40 -19 40 -41c0 -16 -5 -35 -10 -49l-80 -234c-5 -16 -14 -36 -14 -47c0 -8 9 -12 16 -12c18 0 72 47 87 63z" />
    <glyph glyph-name="n" unicode="n" 
d="M45 313l-15 18c38 47 108 126 174 126c24 0 34 -15 34 -34c0 -17 -7 -36 -11 -48l-52 -151h2c48 69 196 234 294 233c31 0 40 -19 40 -41c0 -16 -5 -35 -10 -49l-80 -220c-9 -24 -15 -40 -15 -52s4 -21 18 -21c27 0 71 47 86 70l17 -13l-36 -44c-35 -43 -84 -87 -139 -87
c-26 0 -38 15 -38 33c0 16 3 33 14 62l78 213c3 9 13 36 13 50c0 13 -12 19 -23 19c-56 0 -113 -67 -146 -104c-55 -59 -98 -128 -125 -204l-20 -57c-3 -8 -25 -11 -37 -11c-10 0 -27 6 -32 13l98 295c6 19 12 38 12 50c0 10 -4 18 -16 18c-21 0 -40 -16 -58 -34z" />
    <glyph glyph-name="o" unicode="o" 
d="M128 152c0 -75 28 -141 116 -141c129 0 184 176 184 279c0 71 -27 141 -113 141c-134 0 -187 -169 -187 -279zM48 186c0 144 123 271 268 271c116 0 192 -88 192 -203c0 -141 -120 -269 -263 -269c-120 0 -197 80 -197 201z" />
    <glyph glyph-name="p" unicode="p" 
d="M157 421l32 120l83 24l-31 -126c21 8 59 18 110 18c85 0 151 -30 151 -124c0 -134 -143 -348 -289 -348c-29 0 -58 12 -80 29l-49 -195l81 -14l-5 -18c-28 -2 -53 -4 -88 -7c-29 -3 -47 -5 -69 -8l-6 8l152 607c-40 -14 -81 -28 -119 -48l7 39c39 17 79 31 120 43z
M233 410l-63 -251c-4 -23 -11 -43 -11 -81c0 -22 19 -67 55 -67c104 0 202 224 202 321c0 82 -62 93 -97 93c-36 0 -67 -6 -86 -15z" />
    <glyph glyph-name="q" unicode="q" 
d="M324 410c-106 0 -214 -176 -214 -275c0 -41 17 -84 65 -84c105 0 223 187 223 286c0 45 -28 73 -74 73zM437 401l23 66l60 19l-169 -679l67 -14l-5 -21c-35 2 -69 2 -104 2c-40 0 -80 0 -120 -2l5 24l78 11l97 361h-2c-50 -68 -150 -183 -243 -183c-57 0 -88 55 -88 99
c0 208 215 373 323 373c38 0 63 -13 76 -56h2z" />
    <glyph glyph-name="r" unicode="r" horiz-adv-x="389" 
d="M41 306l-13 17c25 37 102 134 151 134c25 0 41 -11 41 -38c0 -11 -4 -30 -10 -52l-38 -137h2c27 51 121 227 184 227c21 0 31 -12 31 -34c0 -23 -11 -74 -42 -74c-12 0 -25 4 -37 4c-69 0 -140 -194 -173 -296l-18 -64c-2 -7 -18 -8 -36 -8c-13 0 -32 9 -32 18
c0 3 1 6 2 9l79 276c5 16 12 44 12 59c0 11 -6 26 -19 26c-27 0 -68 -47 -84 -67z" />
    <glyph glyph-name="s" unicode="s" horiz-adv-x="389" 
d="M37 125h13c10 -57 75 -80 127 -80c28 0 89 7 89 45c0 69 -146 112 -175 177c-7 14 -9 31 -9 46c0 52 70 97 109 122c27 17 42 22 74 22c41 0 87 -11 87 -60c0 -12 -9 -45 -21 -45h-12c-8 0 -10 7 -14 15c-9 19 -49 36 -82 36c-34 0 -75 -18 -75 -57
c0 -82 177 -104 177 -208c0 -39 -39 -82 -65 -107c-33 -33 -73 -46 -119 -46c-48 0 -127 14 -127 78c0 23 12 42 23 62z" />
    <glyph glyph-name="t" unicode="t" horiz-adv-x="333" 
d="M162 442l38 126h80l-41 -126h107l-12 -41h-106l-87 -289c-3 -9 -6 -21 -6 -31c0 -12 5 -22 20 -22c39 0 98 61 124 87l14 -17c-45 -50 -127 -144 -200 -144c-29 0 -44 26 -44 52c0 20 8 47 13 64l89 300h-98l12 41h97z" />
    <glyph glyph-name="u" unicode="u" 
d="M505 136l14 -14c-41 -45 -104 -122 -171 -122c-24 0 -37 13 -37 35c0 16 8 42 19 74l60 177h-2c-49 -63 -212 -286 -310 -286c-22 0 -42 18 -42 39c0 8 4 24 10 43l87 258c0 -1 4 11 4 22c0 8 -3 15 -13 15c-29 0 -64 -46 -83 -65l-16 17l34 35c41 41 94 93 141 93
c20 0 33 -12 33 -32c0 -16 -5 -31 -13 -52l-90 -269c-1 -5 -2 -9 -2 -14c0 -7 8 -10 17 -10c68 0 257 257 291 346c7 18 14 31 34 31c17 0 34 -19 45 -29l-109 -326c-2 -5 -3 -10 -3 -14c0 -8 4 -14 15 -14c26 0 67 46 87 62z" />
    <glyph glyph-name="v" unicode="v" horiz-adv-x="500" 
d="M41 328l-16 16c44 40 105 113 169 113c24 0 33 -14 33 -37c0 -15 -5 -35 -12 -57l-68 -229c-6 -17 -12 -33 -12 -52c0 -23 19 -37 44 -37c83 0 179 135 205 206c13 33 20 57 20 94c0 17 -2 35 -2 52c0 30 11 60 45 60c28 0 37 -25 37 -49c0 -91 -91 -227 -149 -293
c-46 -53 -130 -130 -204 -130c-45 0 -76 25 -76 74c0 15 4 36 11 60l61 195c5 18 8 33 8 44c0 13 -4 25 -19 25c-23 0 -60 -38 -75 -55z" />
    <glyph glyph-name="w" unicode="w" horiz-adv-x="778" 
d="M43 315l-15 17c32 39 115 125 168 125c18 0 38 -8 38 -31c0 -7 -1 -14 -4 -23l-94 -289c-3 -11 -4 -17 -4 -28c0 -13 5 -21 22 -21c59 0 205 160 221 189c6 22 41 150 68 177c9 10 36 21 49 24c13 -3 24 -14 32 -25c-1 -11 -6 -38 -18 -64c-11 -26 -41 -67 -49 -78
l-40 -171c-2 -8 -4 -18 -4 -28c0 -24 12 -44 40 -44c74 0 142 87 179 143c28 43 51 92 51 144c0 25 -8 48 -8 73c0 23 22 50 46 50c33 0 42 -28 42 -56c0 -92 -103 -233 -161 -300c-46 -51 -130 -114 -202 -114c-40 0 -67 29 -67 65c0 48 20 95 30 143h-2
c-54 -52 -191 -208 -268 -208c-36 0 -41 36 -41 53c0 18 3 38 9 60l71 242c1 3 2 12 2 15c0 9 -4 16 -14 16c-17 0 -64 -45 -77 -56z" />
    <glyph glyph-name="x" unicode="x" 
d="M274 80l-29 98l-68 -96c-28 -39 -82 -97 -122 -97c-37 0 -53 27 -53 52c0 31 23 57 50 67l11 -7c-1 -5 -2 -10 -2 -14c0 -14 10 -24 26 -24c27 0 54 26 80 59l69 90l-26 89c-13 43 -32 80 -63 80c-34 0 -56 -35 -69 -63l-19 10c17 57 58 133 125 133c44 0 65 -38 79 -80
l29 -89l49 65c38 49 83 101 137 101c26 0 43 -20 43 -45c0 -34 -26 -58 -48 -69l-8 5c-4 16 -8 29 -33 29c-34 0 -62 -32 -87 -64l-43 -57l36 -121c9 -32 18 -70 51 -70c41 0 61 44 82 72l16 -12c-28 -47 -72 -139 -136 -139c-47 0 -64 53 -77 97z" />
    <glyph glyph-name="y" unicode="y" horiz-adv-x="500" 
d="M60 299l-9 -7l-24 14c0 66 27 151 108 151c141 0 139 -312 159 -408c42 75 109 179 109 266c0 37 -12 54 -12 82c0 30 16 60 47 60c29 0 39 -27 39 -53c0 -110 -161 -385 -232 -475c-42 -55 -111 -157 -191 -157c-21 0 -41 18 -41 40s12 41 36 41c13 0 26 -7 42 -7
c22 0 52 10 85 48l54 63l-3 52l-9 83c-16 115 -52 291 -117 291c-28 0 -48 -19 -48 -46c0 -14 2 -25 7 -38z" />
    <glyph glyph-name="z" unicode="z" horiz-adv-x="444" 
d="M31 55l288 296c-40 -3 -76 12 -112 28c-17 7 -39 12 -57 12c-22 0 -46 -15 -46 -38c0 -4 11 -18 9 -30c-2 -13 -11 -22 -23 -22c-18 0 -26 18 -26 34c0 25 16 41 33 58c26 27 65 64 104 64c49 0 113 -52 155 -52c12 0 21 2 27 6c8 4 6 8 7 17c1 18 6 35 28 35
c13 0 19 -8 19 -20c0 -13 -32 -50 -52 -69l-260 -269c62 5 157 -108 207 -108c21 0 40 15 30 37c-1 8 -15 27 -15 40c0 8 10 22 26 22c18 0 27 -20 27 -35c0 -59 -57 -130 -118 -130s-143 127 -202 127c-10 0 -27 -7 -27 -19c0 -19 7 -22 7 -33c0 -13 -9 -20 -21 -21
c-16 -2 -26 12 -26 27c0 19 4 29 18 43z" />
    <glyph glyph-name="braceleft" unicode="{" horiz-adv-x="333" 
d="M149 380l34 186c23 126 82 147 174 147l-3 -14c-65 -14 -91 -55 -104 -127l-32 -177c-13 -74 -33 -116 -105 -134l-1 -2c46 -13 63 -37 63 -76c0 -16 -2 -36 -6 -58l-32 -177c-3 -18 -5 -34 -5 -48c0 -43 17 -68 63 -79l-3 -14c-76 0 -126 14 -126 92c0 15 2 34 6 55
l34 186c3 18 5 33 5 47c0 37 -16 59 -59 73c65 19 85 52 97 120z" />
    <glyph glyph-name="bar" unicode="|" horiz-adv-x="222" 
d="M93 -15v779h66v-779h-66z" />
    <glyph glyph-name="braceright" unicode="}" horiz-adv-x="333" 
d="M198 140l-34 -186c-23 -126 -82 -147 -174 -147l3 14c65 14 91 55 104 127l32 177c14 74 33 116 106 134v2c-44 12 -63 35 -63 72c0 17 2 38 6 62l33 177c3 17 5 33 5 46c0 44 -17 70 -63 81l2 14c79 0 126 -15 126 -98c0 -14 -2 -30 -5 -49l-34 -186
c-4 -21 -5 -38 -5 -53c0 -34 18 -54 59 -67c-66 -19 -86 -52 -98 -120z" />
    <glyph glyph-name="asciitilde" unicode="~" 
d="M473 291l36 -50c-30 -42 -63 -86 -125 -86c-40 0 -72 17 -106 33c-33 17 -67 33 -111 33s-68 -35 -84 -70l-36 50c22 42 58 86 125 86c42 0 81 -16 117 -33c36 -16 69 -33 96 -33c40 0 65 35 88 70z" />
    <glyph glyph-name="exclamdown" unicode="&#xa1;" horiz-adv-x="333" 
d="M167 282h20l-38 -305c-6 -48 -22 -178 -87 -178c-31 0 -44 25 -44 53c0 35 17 87 33 130zM199 485c35 0 66 -29 66 -65c0 -35 -31 -67 -66 -67s-66 31 -66 67s30 65 66 65z" />
    <glyph glyph-name="cent" unicode="&#xa2;" 
d="M215 43l96 352c-95 -7 -164 -180 -164 -257c0 -50 20 -86 68 -95zM422 146l14 -19c-55 -62 -120 -121 -202 -137l-36 -132h-34l35 128c-4 -1 -6 -1 -9 -1c-80 0 -123 59 -123 136c0 151 122 271 255 316l34 125h35l-31 -113c8 3 16 5 22 6c7 1 14 2 19 2
c25 0 49 -9 49 -41c0 -25 -21 -51 -46 -51s-38 22 -60 26l-96 -352c67 2 130 61 174 107z" />
    <glyph glyph-name="sterling" unicode="&#xa3;" 
d="M186 368h-112l8 41h110c19 99 36 194 103 274c28 33 67 65 110 75c16 4 26 6 43 6c37 0 87 -13 87 -59c0 -23 -15 -39 -36 -39c-8 0 -16 3 -23 6c-7 20 -2 31 -18 46c-9 8 -25 15 -37 15c-112 0 -118 -246 -136 -324h136l-8 -41h-135c-17 -90 -51 -177 -107 -251
c12 1 25 6 37 6c93 0 150 -91 212 -91c27 0 50 19 50 46c0 29 -16 36 -41 46c4 32 18 43 40 43c30 0 41 -30 41 -56c0 -76 -75 -126 -145 -126c-109 0 -143 97 -212 97c-25 -24 -56 -82 -96 -82c-13 0 -20 6 -20 19c0 42 60 81 94 92c4 4 9 18 16 33c21 47 36 198 39 224z
" />
    <glyph glyph-name="fraction" unicode="&#x2044;" horiz-adv-x="167" 
d="M-146 -23l448 736h47l-447 -736h-48z" />
    <glyph glyph-name="yen" unicode="&#xa5;" 
d="M245 331l-127 292c-9 20 -18 36 -42 43c-17 5 -38 5 -53 5l5 27c40 -2 81 -3 122 -3c44 0 87 3 131 3l-5 -26c-39 0 -71 0 -71 -22c0 -8 3 -17 7 -26l123 -292l157 243c35 54 38 71 38 78c0 19 -65 19 -79 19l5 26c39 -2 80 -3 120 -3c25 0 49 1 74 3l-5 -26
c-35 0 -60 -37 -77 -62l-189 -279h103l-8 -41h-125c-4 -7 -7 -14 -8 -20l-10 -57h130l-8 -41h-130l-16 -87c-1 -7 -2 -13 -2 -26c0 -33 42 -33 85 -33h16l-5 -26c-51 0 -103 2 -154 2c-43 0 -86 -1 -129 -2l5 26h11c72 0 81 12 87 45l20 101h-132l8 41h132l14 72l-3 5h-126
l8 41h103z" />
    <glyph glyph-name="florin" unicode="&#x192;" 
d="M461 449l-6 -32h-119l-72 -327c-18 -82 -74 -318 -188 -318c-43 0 -64 28 -64 58s16 42 32 42c20 0 34 -7 34 -28c0 -10 -7 -18 -7 -27c-1 -12 7 -19 19 -19c26 0 49 45 72 150l90 469h-97l7 32h98c20 99 75 264 203 264c38 0 86 -22 86 -68c0 -20 -8 -47 -36 -47
c-24 0 -38 13 -38 37c0 11 5 22 5 33c0 14 -17 19 -29 19c-80 0 -97 -186 -108 -238h118z" />
    <glyph glyph-name="section" unicode="&#xa7;" 
d="M429 114c0 -84 -34 -157 -87 -213c-48 -52 -122 -94 -194 -94c-34 0 -99 16 -99 60c0 23 14 41 38 41c44 0 43 -69 95 -69c73 0 99 81 98 153c0 72 -36 154 -68 218c-30 68 -66 139 -66 215c0 81 35 152 90 203c77 76 130 85 169 85c46 0 96 -21 96 -60
c0 -24 -11 -46 -38 -46c-45 0 -35 74 -88 74c-59 0 -80 -63 -80 -121c0 -77 35 -157 66 -223c33 -71 68 -144 68 -223zM327 27c0 -47 -12 -88 -34 -129l2 -2c54 52 87 120 87 202c0 74 -35 144 -65 210c-33 72 -63 125 -69 203c0 43 14 78 31 116l-2 2
c-48 -45 -84 -112 -84 -184c0 -76 34 -146 67 -212c25 -55 67 -144 67 -206z" />
    <glyph glyph-name="currency" unicode="&#xa4;" 
d="M99 495l-57 57l44 44l56 -55c41 34 98 52 153 52c54 0 108 -18 148 -52l56 55l44 -44l-57 -57c39 -38 55 -94 55 -150c0 -54 -16 -108 -52 -150l55 -57l-43 -43l-54 57c-42 -37 -97 -55 -152 -55c-58 0 -112 17 -156 55l-54 -57l-43 43l55 57c-35 43 -52 94 -52 150
c0 54 15 110 54 150zM111 345c0 -103 83 -188 184 -188s180 89 180 188s-80 188 -180 188c-102 0 -184 -86 -184 -188z" />
    <glyph glyph-name="quotesingle" unicode="'" horiz-adv-x="278" 
d="M226 638l-17 -150c-2 -16 -8 -23 -18 -23s-16 7 -18 23l-17 150c-1 4 -2 10 -2 17c0 20 5 43 37 43s37 -23 37 -43c0 -7 -1 -13 -2 -17z" />
    <glyph glyph-name="quotedblleft" unicode="&#x201c;" 
d="M330 698l11 -20c-46 2 -129 -22 -129 -80c0 -36 26 -17 60 -46c6 -4 11 -18 11 -25c0 -38 -25 -62 -63 -62c-45 0 -67 45 -67 88c0 91 94 148 177 145zM527 698l11 -20c-46 2 -129 -22 -129 -80c0 -36 26 -17 60 -46c6 -4 11 -18 11 -25c0 -38 -25 -62 -63 -62
c-45 0 -67 45 -67 88c0 91 94 148 177 145z" />
    <glyph glyph-name="guillemotleft" unicode="&#xab;" 
d="M472 421l15 -14l-141 -163l83 -167l-17 -10l-152 177zM312 421l15 -14l-141 -163l83 -167l-17 -10l-152 177z" />
    <glyph glyph-name="guilsinglleft" unicode="&#x2039;" horiz-adv-x="278" 
d="M262 421l15 -14l-141 -163l83 -167l-17 -10l-152 177z" />
    <glyph glyph-name="guilsinglright" unicode="&#x203a;" horiz-adv-x="278" 
d="M29 67l-15 14l141 163l-83 167l17 10l152 -177z" />
    <glyph glyph-name="endash" unicode="&#x2013;" horiz-adv-x="500" 
d="M-11 211l22 66h500l-22 -66h-500z" />
    <glyph glyph-name="dagger" unicode="&#x2020;" 
d="M280 407h-38c-33 0 -104 -1 -154 -6l-6 6c8 30 4 12 9 44l6 6c15 -1 42 -4 72 -6c30 -1 62 -3 87 -3h33l29 168c4 24 9 57 9 76l6 6c14 0 23 -3 34 -3s22 3 32 3l6 -6c-6 -19 -15 -52 -21 -76l-41 -168h26c52 0 122 6 166 9l6 -6c-6 -14 -9 -32 -9 -44l-6 -6
c-30 2 -100 6 -160 6h-32c-31 -151 -71 -350 -101 -518c-4 -24 -9 -57 -10 -76l-6 -6c-13 0 -23 3 -34 3s-21 -3 -32 -3l-6 6c7 19 16 52 22 76c41 168 82 367 113 518z" />
    <glyph glyph-name="daggerdbl" unicode="&#x2021;" 
d="M280 409h-38c-33 0 -110 -1 -154 -5l-6 6c8 30 4 12 9 43l6 6c29 -3 109 -9 159 -9h33l29 167c4 24 9 56 9 75l6 6c14 0 23 -3 34 -3s22 3 32 3l6 -6c-6 -19 -15 -51 -21 -75l-41 -167h26c52 0 122 6 166 9l6 -6c-6 -13 -9 -31 -9 -43l-6 -6c-30 2 -100 5 -160 5h-32
l-7 -27c-17 -65 -18 -109 -19 -130c-6 -16 -28 -63 -36 -131l-3 -26h29c23 0 119 1 163 6l6 -6c-8 -30 -4 -12 -9 -43l-6 -6c-29 3 -109 8 -159 8h-33l-29 -166c-4 -24 -9 -56 -9 -75l-6 -6c-14 0 -23 3 -34 3s-22 -3 -32 -3l-6 6c6 19 15 51 21 75l41 166h-26
c-52 0 -122 -5 -166 -8l-6 6c6 13 9 31 9 43l6 6c30 -2 100 -6 160 -6h32l5 26c13 67 24 115 22 131c9 16 21 64 33 130z" />
    <glyph glyph-name="periodcentered" unicode="&#xb7;" horiz-adv-x="278" 
d="M205 295c0 -34 -30 -66 -65 -66c-37 0 -67 30 -67 66c0 37 30 66 66 66s66 -30 66 -66z" />
    <glyph glyph-name="paragraph" unicode="&#xb6;" 
d="M517 620l-151 -723c-2 -8 -2 -14 -2 -20c0 -25 20 -28 74 -35l-5 -20h-148l174 844h-93l-174 -844h-148l5 20c50 7 82 4 93 54l78 377c-108 3 -156 67 -156 156c0 137 96 269 242 269h309l-4 -20c-68 -9 -84 -9 -94 -58zM230 320l69 346h-7c-112 0 -149 -139 -154 -229
c-2 -82 42 -117 92 -117z" />
    <glyph glyph-name="bullet" unicode="&#x2022;" horiz-adv-x="500" 
d="M85 349c0 97 78 175 175 175s175 -78 175 -175s-78 -175 -175 -175s-175 78 -175 175z" />
    <glyph glyph-name="quotesinglbase" unicode="&#x201a;" horiz-adv-x="278" 
d="M56 -124l-11 20c46 -2 129 22 129 80c0 36 -26 17 -60 46c-6 4 -11 18 -11 25c0 38 25 62 63 62c45 0 67 -45 67 -88c0 -91 -94 -148 -177 -145z" />
    <glyph glyph-name="quotedblbase" unicode="&#x201e;" 
d="M268 -124l-11 20c46 -2 129 22 129 80c0 36 -26 17 -60 46c-6 4 -11 18 -11 25c0 38 25 62 63 62c45 0 67 -45 67 -88c0 -91 -94 -148 -177 -145zM71 -124l-11 20c46 -2 129 22 129 80c0 36 -26 17 -60 46c-6 4 -11 18 -11 25c0 38 25 62 63 62c45 0 67 -45 67 -88
c0 -91 -94 -148 -177 -145z" />
    <glyph glyph-name="quotedblright" unicode="&#x201d;" 
d="M137 465l-11 20c46 -2 129 22 129 80c0 36 -26 17 -60 46c-6 4 -11 18 -11 25c0 38 25 62 63 62c45 0 67 -45 67 -88c0 -91 -94 -148 -177 -145zM334 465l-11 20c46 -2 129 22 129 80c0 36 -26 17 -60 46c-6 4 -11 18 -11 25c0 38 25 62 63 62c45 0 67 -45 67 -88
c0 -91 -94 -148 -177 -145z" />
    <glyph glyph-name="guillemotright" unicode="&#xbb;" 
d="M244 67l-15 14l141 163l-83 167l17 10l152 -177zM84 67l-15 14l141 163l-83 167l17 10l152 -177z" />
    <glyph glyph-name="ellipsis" unicode="&#x2026;" horiz-adv-x="1000" 
d="M148 -15c-35 0 -66 29 -66 65c0 35 31 67 66 67s66 -31 66 -67s-30 -65 -66 -65zM481 -15c-35 0 -66 29 -66 65c0 35 31 67 66 67s66 -31 66 -67s-30 -65 -66 -65zM814 -15c-35 0 -66 29 -66 65c0 35 31 67 66 67s66 -31 66 -67s-30 -65 -66 -65z" />
    <glyph glyph-name="perthousand" unicode="&#x2030;" horiz-adv-x="1000" 
d="M79 529c0 92 68 176 164 176c74 0 123 -54 123 -127c0 -90 -73 -185 -168 -185c-80 0 -119 62 -119 136zM145 487c0 -37 14 -68 55 -68c71 0 100 131 100 186c0 52 -23 74 -56 74c-80 0 -99 -139 -99 -192zM352 121c0 92 68 176 164 176c74 0 123 -54 123 -127
c0 -90 -73 -185 -168 -185c-80 0 -119 62 -119 136zM418 79c0 -37 14 -68 55 -68c71 0 100 131 100 186c0 52 -23 74 -56 74c-80 0 -99 -139 -99 -192zM686 121c0 92 68 176 164 176c74 0 123 -54 123 -127c0 -90 -73 -185 -168 -185c-80 0 -119 62 -119 136zM752 79
c0 -37 14 -68 55 -68c71 0 100 131 100 186c0 52 -23 74 -56 74c-80 0 -99 -139 -99 -192zM108 -23l448 736h47l-447 -736h-48z" />
    <glyph glyph-name="questiondown" unicode="&#xbf;" horiz-adv-x="444" 
d="M232 -157c19 0 31 -14 31 -32c0 -35 -35 -39 -62 -39c-83 0 -162 67 -162 153c0 153 159 143 227 181c22 13 37 38 37 64c0 46 -51 62 -74 62c-17 0 -24 -5 -34 -5c-17 0 -22 10 -22 25c0 21 10 40 33 40c28 0 50 -14 76 -37s62 -90 62 -125c0 -180 -264 -92 -264 -233
c0 -43 24 -69 69 -69c35 0 58 15 83 15zM293 485c35 0 66 -29 66 -65c0 -35 -31 -67 -66 -67s-66 31 -66 67s30 65 66 65z" />
    <glyph glyph-name="grave" unicode="`" horiz-adv-x="278" 
d="M151 697l121 -151h-21c-8 0 -13 5 -17 8l-117 88c-16 13 -29 27 -29 39c0 14 15 32 30 32c17 0 22 -3 33 -16z" />
    <glyph glyph-name="acute" unicode="&#xb4;" horiz-adv-x="278" 
d="M174 546h-26l152 148c12 9 21 19 34 19c16 0 32 -15 32 -33c0 -19 -24 -32 -35 -39l-115 -75c-16 -11 -35 -20 -42 -20z" />
    <glyph glyph-name="circumflex" unicode="&#x2c6;" horiz-adv-x="278" 
d="M256 713l88 -167h-33l-82 107l-135 -107h-37l161 167h38z" />
    <glyph glyph-name="tilde" unicode="&#x2dc;" horiz-adv-x="278" 
d="M61 568h-27c13 52 51 96 108 96c21 0 46 -11 70 -22s46 -22 62 -22c32 0 47 24 59 49h26c-7 -48 -53 -100 -105 -100c-19 0 -44 11 -68 22c-23 11 -47 26 -65 26c-34 0 -46 -19 -60 -49z" />
    <glyph glyph-name="macron" unicode="&#xaf;" horiz-adv-x="278" 
d="M346 586h-259l8 47h259z" />
    <glyph glyph-name="breve" unicode="&#x2d8;" horiz-adv-x="278" 
d="M74 705h26c5 -65 44 -101 109 -101c67 0 112 40 135 101h26c-19 -87 -71 -161 -168 -161s-130 71 -128 161z" />
    <glyph glyph-name="dotaccent" unicode="&#x2d9;" horiz-adv-x="278" 
d="M164 610c0 28 21 49 48 49c28 0 50 -21 50 -49c0 -27 -22 -49 -50 -49c-27 0 -48 22 -48 49z" />
    <glyph glyph-name="dieresis" unicode="&#xa8;" horiz-adv-x="278" 
d="M64 610c0 28 21 49 48 49c28 0 50 -21 50 -49c0 -27 -22 -49 -50 -49c-27 0 -48 22 -48 49zM264 610c0 28 21 49 48 49c28 0 50 -21 50 -49c0 -27 -22 -49 -50 -49c-27 0 -48 22 -48 49z" />
    <glyph glyph-name="ring" unicode="&#x2da;" horiz-adv-x="278" 
d="M179 526c-54 0 -98 44 -98 98s44 98 98 98s98 -44 98 -98s-44 -98 -98 -98zM179 558c36 0 66 30 66 66s-30 66 -66 66s-66 -30 -66 -66s30 -66 66 -66z" />
    <glyph glyph-name="cedilla" unicode="&#xb8;" horiz-adv-x="278" 
d="M32 -92l63 93h36l-44 -65l2 -2c5 3 19 5 31 5c38 0 69 -22 69 -66c0 -65 -62 -86 -117 -86c-31 0 -62 8 -90 21l18 26c17 -7 37 -15 56 -15c29 0 67 11 67 46c0 26 -21 42 -45 42c-14 0 -29 -4 -39 -9z" />
    <glyph glyph-name="hungarumlaut" unicode="&#x2dd;" horiz-adv-x="278" 
d="M75 546h-26l152 148c12 9 21 19 34 19c16 0 32 -15 32 -33c0 -19 -24 -32 -35 -39l-115 -75c-16 -11 -35 -20 -42 -20zM275 546h-26l152 148c12 9 21 19 34 19c16 0 32 -15 32 -33c0 -19 -24 -32 -35 -39l-115 -75c-16 -11 -35 -20 -42 -20z" />
    <glyph glyph-name="ogonek" unicode="&#x2db;" horiz-adv-x="278" 
d="M183 -138l18 -10c-30 -43 -74 -65 -105 -65c-17 0 -78 0 -77 60c0 71 84 124 139 153h38c-44 -31 -111 -81 -111 -141c1 -18 15 -31 31 -31c26 0 51 16 67 34z" />
    <glyph glyph-name="caron" unicode="&#x2c7;" horiz-adv-x="278" 
d="M169 546l-88 167h33l82 -107l135 107h37l-161 -167h-38z" />
    <glyph glyph-name="emdash" unicode="&#x2014;" horiz-adv-x="1000" 
d="M-11 211l22 66h1000l-22 -66h-1000z" />
    <glyph glyph-name="AE" unicode="&#xc6;" horiz-adv-x="1000" 
d="M-1 0l5 26h9c29 0 52 13 101 84l356 516c4 6 9 15 9 24c0 18 -22 22 -67 22h-14l5 26c94 -3 189 -3 268 -2c81 1 162 1 243 2l-21 -139h-20v44c0 52 -30 63 -194 63h-40l-49 -284h85c46 -1 80 5 91 45l13 48h23l-41 -227h-22l3 39c4 45 -27 54 -84 54h-75l-33 -224
c-2 -13 -6 -35 -6 -46c0 -31 58 -39 97 -39h53c83 0 143 24 167 130h26l-41 -162c-83 2 -166 2 -249 2c-84 0 -169 0 -254 -2l7 26h16c70 3 80 20 96 111l35 204h-179l-172 -269c-3 -4 -9 -12 -9 -23c0 -22 39 -23 49 -23h15l-5 -26c-34 0 -69 2 -103 2c-31 0 -63 -1 -94 -2
zM346 382h157l46 270c1 6 2 12 -3 12c-7 0 -9 -7 -13 -13z" />
    <glyph glyph-name="ordfeminine" unicode="&#xaa;" horiz-adv-x="325" 
d="M109 508c0 -11 7 -31 33 -31c63 -1 143 116 143 169c0 15 -15 27 -32 27c-74 0 -144 -106 -144 -165zM343 508l10 -8c-25 -25 -63 -77 -104 -77c-10 0 -22 7 -22 17c0 24 21 69 31 98l-3 2c-30 -34 -78 -117 -155 -117c-29 0 -44 21 -44 58c0 88 128 224 215 224
c16 0 31 -8 41 -20c7 11 10 28 24 28c12 0 20 0 19 -5l-66 -213c-1 -3 -3 -8 -3 -12s3 -6 8 -6c19 0 36 21 49 31z" />
    <glyph glyph-name="Lslash" unicode="&#x141;" horiz-adv-x="667" 
d="M140 118l25 143l-93 -69l11 68l94 70l51 286c10 56 -54 59 -89 56l5 26c50 0 101 -2 151 -2c43 0 86 2 129 2l-5 -26c-64 1 -84 -1 -99 -65l-36 -199l213 158l-11 -68l-214 -158l-57 -308h212c95 0 151 53 177 142h24l-54 -174c-102 1 -205 2 -307 2
c-78 0 -157 0 -235 -2l5 26h26c54 5 66 27 77 92z" />
    <glyph glyph-name="Oslash" unicode="&#xd8;" horiz-adv-x="889" 
d="M219 135l459 449c-39 58 -103 97 -194 97c-207 0 -298 -208 -298 -387c0 -60 10 -114 33 -159zM827 730l21 -26l-102 -100c50 -54 80 -124 80 -206c0 -228 -168 -413 -400 -413c-94 0 -174 28 -232 79l-98 -95l-24 23l98 95c-52 56 -82 133 -82 228
c0 221 176 398 395 398c90 0 177 -32 239 -86zM695 554l-458 -448c39 -56 102 -89 194 -89c197 0 297 212 297 379c0 57 -11 112 -33 158z" />
    <glyph glyph-name="OE" unicode="&#x152;" horiz-adv-x="1000" 
d="M519 159l61 411c3 20 5 35 5 56c1 55 -83 61 -126 61c-201 0 -301 -194 -301 -376c0 -146 72 -300 239 -300c91 0 109 54 122 148zM683 666l-45 -284h126c63 0 82 10 100 68l11 35h22l-41 -237h-22c1 10 2 31 2 46c0 45 -25 47 -89 47h-115l-29 -189
c-2 -14 -12 -69 -12 -83c0 -35 55 -37 149 -37c93 0 165 4 196 92l14 43h26l-47 -167h-205c-64 0 -130 -4 -189 -7c-59 -4 -111 -8 -151 -8c-205 0 -324 141 -324 325c0 255 182 403 402 403c28 0 67 -3 114 -6c46 -3 101 -11 159 -11c81 0 162 2 243 2l-11 -140h-20v24
c0 83 -26 84 -188 84h-76z" />
    <glyph glyph-name="ordmasculine" unicode="&#xba;" horiz-adv-x="361" 
d="M129 522c0 -40 18 -79 72 -79c80 0 116 104 116 162c0 38 -18 80 -70 80c-84 0 -118 -102 -118 -163zM70 543c0 86 80 162 178 162c79 0 128 -53 128 -122c0 -83 -78 -160 -174 -160c-82 0 -132 48 -132 120z" />
    <glyph glyph-name="ae" unicode="&#xe6;" horiz-adv-x="722" 
d="M411 417l31 64l44 8l15 -5l-38 -81h2c40 27 91 54 145 54c45 0 88 -15 88 -65c0 -136 -209 -190 -315 -199c-4 -21 -8 -40 -8 -60c0 -58 24 -94 85 -94c68 0 126 43 178 84l15 -15c-61 -66 -139 -123 -232 -123c-77 0 -120 42 -120 120c0 14 1 29 2 43h-2
c-37 -54 -136 -163 -212 -163c-53 -3 -67 42 -67 92c0 142 172 365 319 365c30 0 47 -6 70 -25zM96 113c0 -30 9 -54 46 -54c82 0 219 195 219 291c0 31 -16 51 -53 51c-114 0 -212 -191 -212 -288zM618 381c0 28 -18 44 -44 44c-90 0 -166 -127 -184 -206
c83 0 228 65 228 162z" />
    <glyph glyph-name="dotlessi" unicode="&#x131;" horiz-adv-x="278" 
d="M63 313l-14 14c29 44 101 130 158 130c21 0 31 -10 31 -25s-9 -41 -14 -56l-82 -254c-6 -19 -10 -33 -10 -42c0 -10 3 -15 13 -15c14 0 66 54 76 65l16 -13c-31 -42 -102 -132 -159 -132c-29 0 -38 17 -38 40c0 12 4 29 11 49l86 254c5 14 9 28 9 37c0 7 -4 12 -12 12
c-21 0 -59 -48 -71 -64z" />
    <glyph glyph-name="lslash" unicode="&#x142;" horiz-adv-x="278" 
d="M136 397l68 290l-60 31l5 15c22 1 46 5 73 10c22 4 45 11 73 21l7 -6l-72 -299l2 -2l78 59l-15 -61l-79 -58l-70 -291c-1 -5 -4 -16 -4 -25c1 -6 2 -16 14 -16c19 0 66 62 77 77l12 -21c-33 -43 -89 -136 -151 -136c-31 0 -38 23 -38 49c1 19 5 37 7 49l60 255l-2 2
l-74 -58l15 64z" />
    <glyph glyph-name="oslash" unicode="&#xf8;" 
d="M410 374c-15 33 -45 57 -95 57c-134 0 -187 -169 -187 -279c0 -19 2 -37 6 -54zM244 11c129 0 184 176 184 279c0 20 -2 40 -7 58l-276 -280c17 -35 48 -57 99 -57zM508 473l20 -18l-66 -65c30 -36 46 -83 46 -136c0 -141 -120 -269 -263 -269c-56 0 -102 17 -135 48
l-61 -61l-21 20l62 62c-27 33 -42 78 -42 132c0 144 123 271 268 271c52 0 96 -18 129 -48z" />
    <glyph glyph-name="oe" unicode="&#x153;" horiz-adv-x="778" 
d="M715 123l15 -15c-61 -66 -139 -123 -236 -123c-49 0 -87 34 -106 82c-55 -54 -97 -82 -176 -82c-110 0 -172 77 -172 183c0 145 122 289 271 289c72 0 121 -31 153 -98c50 53 116 98 192 98c51 0 102 -20 102 -78c0 -135 -203 -177 -302 -186c-1 -13 -3 -30 -3 -48
c0 -57 20 -106 84 -106c68 0 126 43 178 84zM217 11c130 1 183 198 183 301c0 62 -25 113 -94 113c-120 0 -186 -184 -186 -282c0 -63 22 -132 97 -132zM462 219c90 6 222 59 222 167c0 26 -20 39 -45 39c-95 0 -164 -124 -177 -206z" />
    <glyph glyph-name="germandbls" unicode="&#xdf;" 
d="M3 -228l146 668c9 37 19 74 32 106c35 88 157 218 257 218c70 0 122 -44 122 -116c0 -91 -67 -129 -131 -178c-26 -20 -52 -40 -52 -75c0 -64 109 -147 109 -237c0 -44 -21 -80 -50 -110c-39 -38 -86 -63 -141 -63c-32 0 -73 21 -73 58c0 21 10 40 28 52h8
c21 -33 55 -56 95 -56s74 22 74 64c0 85 -124 164 -124 259c0 98 183 131 183 258c0 54 -38 84 -91 84c-97 0 -123 -104 -142 -181l-181 -721l-60 -30h-9z" />
    <glyph glyph-name="logicalnot" unicode="&#xac;" 
d="M433 76v212h-376v66h442v-278h-66z" />
    <glyph glyph-name="mu" unicode="&#xb5;" 
d="M48 82l85 258c0 -1 4 11 4 22c0 8 -3 15 -13 15c-29 0 -64 -46 -83 -65l-16 17l34 35c41 41 94 93 141 93c20 0 33 -12 33 -32c0 -16 -5 -31 -13 -52l-90 -269c-1 -5 -2 -9 -2 -14c0 -7 8 -10 17 -10c73 0 266 279 291 346c7 18 14 31 34 31c17 0 34 -19 45 -29
l-109 -326c-2 -5 -3 -10 -3 -14c0 -8 4 -14 15 -14c26 0 67 46 87 62l14 -14c-41 -45 -104 -122 -171 -122c-24 0 -37 13 -37 35c0 16 7 42 19 74l65 174h-2c-54 -60 -217 -283 -315 -283c-11 -55 -15 -119 -23 -166c-4 -23 -6 -62 -53 -62c-22 0 -33 15 -33 32
c0 63 48 183 79 278z" />
    <glyph glyph-name="trademark" unicode="&#x2122;" horiz-adv-x="990" 
d="M271 678v-325c0 -32 5 -33 49 -39v-20h-172v20c44 6 49 7 49 39v325h-48c-42 0 -59 -31 -67 -68h-20v88h344v-88h-20c-8 37 -25 68 -66 68h-49zM696 294l-149 304h-2v-219c0 -44 8 -60 53 -65v-20h-131v20c44 5 52 21 52 65v249c-12 29 -40 49 -69 49v21h121l154 -309
l160 309h103v-21c-41 -2 -53 -20 -53 -54v-270c0 -32 5 -33 49 -39v-20h-172v20c44 6 49 7 49 39v247h-2l-152 -306h-11z" />
    <glyph glyph-name="Eth" unicode="&#xd0;" horiz-adv-x="833" 
d="M122 96l45 245h-91l7 41h92l31 169c8 36 10 61 10 79c0 32 -24 38 -70 42h-19l5 26c40 -2 79 -3 119 -3c48 0 78 3 149 3c146 0 211 -41 257 -76c67 -51 113 -131 113 -240c0 -235 -182 -382 -411 -382c-44 0 -89 1 -133 1c-68 0 -135 -1 -203 -1l5 26h22
c47 2 62 12 72 70zM475 382l-7 -41h-211l-46 -247c-12 -59 62 -62 129 -62c208 0 332 166 332 364c0 135 -84 211 -138 236c-49 23 -77 34 -147 34c-40 0 -55 -2 -70 -3l-52 -281h210z" />
    <glyph glyph-name="onehalf" unicode="&#xbd;" horiz-adv-x="834" 
d="M168 -23l448 736h47l-447 -736h-48zM235 651l-106 -49l-10 15l176 88l6 -3l-69 -356c-4 -15 -5 -24 -5 -31c0 -10 9 -13 27 -13c17 0 35 -1 52 -1l-4 -19c-35 0 -70 1 -106 1c-37 0 -72 0 -109 -1l4 19c16 1 31 1 46 1c21 0 29 7 31 23zM511 54h202l21 35l14 -4l-25 -85
c-43 1 -87 1 -130 1c-46 0 -92 0 -138 -1c-3 0 -7 1 -7 6s1 10 1 18c1 4 4 7 6 9l86 74c50 44 135 126 135 199c0 41 -23 76 -69 76c-44 0 -67 -23 -97 -44l-10 14c37 36 76 71 134 71c65 0 108 -35 108 -94c0 -111 -154 -208 -231 -275z" />
    <glyph glyph-name="plusminus" unicode="&#xb1;" 
d="M245 299v110h66v-110h188v-66h-188v-110h-66v110h-188v66h188zM57 0v66h442v-66h-442z" />
    <glyph glyph-name="Thorn" unicode="&#xde;" horiz-adv-x="611" 
d="M292 540l-54 -291c25 -3 55 -4 80 -4c77 0 161 45 161 175c0 84 -41 123 -133 123c-14 0 -30 -2 -54 -3zM116 82l99 547c8 44 -46 44 -81 43h-18l5 26c47 -1 94 -2 141 -2c46 0 91 1 137 2l-5 -26h-21c-34 0 -58 -5 -67 -56l-7 -44c30 2 61 3 93 3
c100 0 185 -44 185 -154c0 -136 -121 -208 -244 -208c-38 0 -72 2 -100 6l-21 -114l-5 -36c0 -45 46 -44 81 -43h18l-5 -26c-47 1 -94 2 -141 2c-46 0 -91 -1 -137 -2l5 26h21c34 3 56 5 67 56z" />
    <glyph glyph-name="onequarter" unicode="&#xbc;" horiz-adv-x="834" 
d="M630 186l36 164h-2l-177 -164h143zM595 0l27 139h-188l3 29l270 255h34l-49 -237h62l-8 -47h-62l-27 -139h-62zM168 -23l448 736h47l-447 -736h-48zM228 651l-106 -49l-10 15l176 88l12 -3l-69 -356c-4 -15 -5 -24 -5 -31c0 -10 9 -13 27 -13c17 0 35 -1 52 -1l-4 -19
c-41 0 -76 1 -112 1c-37 0 -72 0 -109 -1l4 19c16 1 31 1 46 1c21 0 29 7 31 23z" />
    <glyph glyph-name="divide" unicode="&#xf7;" 
d="M499 188h-442v66h442v-66zM212 51c0 37 30 66 67 66c35 0 65 -30 65 -66c0 -34 -30 -66 -65 -66c-37 0 -67 30 -67 66zM212 391c0 37 30 66 66 66s66 -30 66 -66c0 -34 -30 -66 -66 -66s-66 30 -66 66z" />
    <glyph glyph-name="brokenbar" unicode="&#xa6;" horiz-adv-x="222" 
d="M93 -15v282h66v-282h-66zM93 482v282h66v-282h-66z" />
    <glyph glyph-name="degree" unicode="&#xb0;" horiz-adv-x="400" 
d="M161 562c0 -59 45 -89 84 -89s84 30 84 89s-45 89 -84 89s-84 -30 -84 -89zM245 705c80 0 143 -63 143 -143s-63 -143 -143 -143s-143 63 -143 143s63 143 143 143z" />
    <glyph glyph-name="thorn" unicode="&#xfe;" 
d="M158 423l69 274l-49 28l3 13c16 2 41 5 66 9c24 4 47 10 71 17l11 -4l-89 -321c22 8 60 18 111 18c70 0 151 -30 151 -124c0 -134 -143 -348 -289 -348c-29 0 -58 12 -80 29l-49 -188l80 -13l-4 -26c-28 0 -53 0 -88 -5c-29 -2 -47 -6 -69 -10l-6 8l152 607
c-40 -14 -81 -28 -119 -48l7 39c39 17 79 31 121 45zM233 410l-63 -251c-4 -23 -11 -43 -11 -81c0 -22 19 -67 61 -67c110 0 202 228 202 321c0 82 -62 93 -103 93c-36 0 -67 -6 -86 -15z" />
    <glyph glyph-name="threequarters" unicode="&#xbe;" horiz-adv-x="834" 
d="M595 0l27 139h-188l3 29l270 255h34l-49 -237h62l-8 -47h-62l-27 -139h-62zM630 186l36 164h-2l-177 -164h143zM198 -23l448 736h47l-447 -736h-48zM174 492l3 20c46 2 120 36 119 91c1 38 -20 70 -64 70c-34 0 -54 -18 -80 -36l-11 11c39 34 70 57 122 57
c55 0 99 -29 99 -79c0 -68 -63 -98 -118 -117v-2c62 -7 105 -37 105 -95c0 -80 -91 -139 -176 -139c-40 0 -66 3 -101 25l-7 34l27 8c15 -33 40 -47 74 -47c61 0 109 58 109 113c0 63 -44 93 -101 86z" />
    <glyph glyph-name="registered" unicode="&#xae;" horiz-adv-x="800" 
d="M400 -15c-203 0 -364 163 -364 361c0 203 161 367 364 367c204 0 364 -164 364 -367c0 -198 -160 -361 -364 -361zM400 32c171 0 305 148 305 314c0 172 -133 320 -305 320c-171 0 -305 -149 -305 -320c0 -166 135 -314 305 -314zM401 173v-14h-172v14c45 6 53 5 53 33
v276c0 48 1 47 -51 52v16h186c64 0 123 -30 123 -97c0 -54 -36 -95 -86 -111l60 -84c28 -38 60 -75 80 -91v-8h-67c-34 0 -60 73 -127 173h-52v-126c0 -28 8 -27 53 -33zM348 530v-178h47c49 0 71 38 71 96c0 62 -34 82 -73 82h-45z" />
    <glyph glyph-name="minus" unicode="&#x2212;" 
d="M499 188h-442v66h442v-66z" />
    <glyph glyph-name="eth" unicode="&#xf0;" 
d="M128 152c0 -75 28 -141 116 -141c129 0 184 176 184 279c0 71 -27 141 -113 141c-134 0 -187 -169 -187 -279zM48 186c0 144 123 271 268 271c41 0 77 -12 106 -41h2c-14 80 -61 155 -103 199l-145 -55l-20 34l132 51c-36 37 -82 77 -121 97l22 22
c63 -25 105 -49 158 -96l132 53l19 -33l-120 -50c91 -93 130 -202 130 -312c0 -220 -120 -341 -263 -341c-120 0 -197 80 -197 201z" />
    <glyph glyph-name="multiply" unicode="&#xd7;" 
d="M278 176l-174 -173l-47 46l176 172l-176 175l48 46l173 -175l173 175l48 -46l-176 -175l176 -172l-47 -46z" />
    <glyph glyph-name="copyright" unicode="&#xa9;" horiz-adv-x="800" 
d="M400 -15c-203 0 -364 163 -364 361c0 203 161 367 364 367c204 0 364 -164 364 -367c0 -198 -160 -361 -364 -361zM400 32c171 0 305 148 305 314c0 172 -133 320 -305 320c-171 0 -305 -149 -305 -320c0 -166 135 -314 305 -314zM562 260h18l-17 -74
c-1 -12 -11 -15 -28 -20c-21 -7 -63 -18 -113 -18c-125 0 -228 60 -228 210c0 88 71 204 235 204c55 0 82 -10 111 -19c16 -5 22 -13 22 -22v-74h-20c-5 44 -35 95 -116 95c-104 0 -152 -77 -152 -180c0 -111 45 -194 158 -194c72 0 110 43 130 92z" />
    <glyph glyph-name="Aacute" unicode="&#xc1;" horiz-adv-x="722" 
d="M97 93l344 609c12 3 24 6 36 11l6 -4l110 -621c6 -43 26 -65 72 -62l-5 -26c-42 0 -84 2 -126 2c-36 0 -72 -1 -108 -2l5 26c30 -1 76 -2 70 38l-30 198h-234l-82 -170c-7 -15 -11 -27 -11 -36c0 -27 26 -30 43 -30h30l-5 -26c-39 0 -79 2 -118 2c-31 0 -61 -1 -92 -2
l5 26c47 -1 70 28 90 67zM420 601l-161 -298h207l-44 298h-2zM423 737h-26l152 148c12 9 21 19 34 19c16 0 32 -15 32 -33c0 -19 -24 -32 -35 -39l-115 -75c-16 -11 -35 -20 -42 -20z" />
    <glyph glyph-name="Acircumflex" unicode="&#xc2;" horiz-adv-x="722" 
d="M97 93l344 609c12 3 24 6 36 11l6 -4l110 -621c6 -43 26 -65 72 -62l-5 -26c-42 0 -84 2 -126 2c-36 0 -72 -1 -108 -2l5 26c30 -1 76 -2 70 38l-30 198h-234l-82 -170c-7 -15 -11 -27 -11 -36c0 -27 26 -30 43 -30h30l-5 -26c-39 0 -79 2 -118 2c-31 0 -61 -1 -92 -2
l5 26c47 -1 70 28 90 67zM420 601l-161 -298h207l-44 298h-2zM505 904l88 -167h-33l-82 107l-135 -107h-37l161 167h38z" />
    <glyph glyph-name="Adieresis" unicode="&#xc4;" horiz-adv-x="722" 
d="M97 93l344 609c12 3 24 6 36 11l6 -4l110 -621c6 -43 26 -65 72 -62l-5 -26c-42 0 -84 2 -126 2c-36 0 -72 -1 -108 -2l5 26c30 -1 76 -2 70 38l-30 198h-234l-82 -170c-7 -15 -11 -27 -11 -36c0 -27 26 -30 43 -30h30l-5 -26c-39 0 -79 2 -118 2c-31 0 -61 -1 -92 -2
l5 26c47 -1 70 28 90 67zM420 601l-161 -298h207l-44 298h-2zM313 801c0 28 21 49 48 49c28 0 50 -21 50 -49c0 -27 -22 -49 -50 -49c-27 0 -48 22 -48 49zM513 801c0 28 21 49 48 49c28 0 50 -21 50 -49c0 -27 -22 -49 -50 -49c-27 0 -48 22 -48 49z" />
    <glyph glyph-name="Agrave" unicode="&#xc0;" horiz-adv-x="722" 
d="M97 93l344 609c12 3 24 6 36 11l6 -4l110 -621c6 -43 26 -65 72 -62l-5 -26c-42 0 -84 2 -126 2c-36 0 -72 -1 -108 -2l5 26c30 -1 76 -2 70 38l-30 198h-234l-82 -170c-7 -15 -11 -27 -11 -36c0 -27 26 -30 43 -30h30l-5 -26c-39 0 -79 2 -118 2c-31 0 -61 -1 -92 -2
l5 26c47 -1 70 28 90 67zM420 601l-161 -298h207l-44 298h-2zM400 888l121 -151h-21c-8 0 -13 5 -17 8l-117 88c-16 13 -29 27 -29 39c0 14 15 32 30 32c17 0 22 -3 33 -16z" />
    <glyph glyph-name="Aring" unicode="&#xc5;" horiz-adv-x="722" 
d="M97 93l344 609c12 3 24 6 36 11l6 -4l110 -621c6 -43 26 -65 72 -62l-5 -26c-42 0 -84 2 -126 2c-36 0 -72 -1 -108 -2l5 26c30 -1 76 -2 70 38l-30 198h-234l-82 -170c-7 -15 -11 -27 -11 -36c0 -27 26 -30 43 -30h30l-5 -26c-39 0 -79 2 -118 2c-31 0 -61 -1 -92 -2
l5 26c47 -1 70 28 90 67zM420 601l-161 -298h207l-44 298h-2zM464 731c-54 0 -98 44 -98 98s44 98 98 98s98 -44 98 -98s-44 -98 -98 -98zM464 763c36 0 66 30 66 66s-30 66 -66 66s-66 -30 -66 -66s30 -66 66 -66z" />
    <glyph glyph-name="Atilde" unicode="&#xc3;" horiz-adv-x="722" 
d="M97 93l344 609c12 3 24 6 36 11l6 -4l110 -621c6 -43 26 -65 72 -62l-5 -26c-42 0 -84 2 -126 2c-36 0 -72 -1 -108 -2l5 26c30 -1 76 -2 70 38l-30 198h-234l-82 -170c-7 -15 -11 -27 -11 -36c0 -27 26 -30 43 -30h30l-5 -26c-39 0 -79 2 -118 2c-31 0 -61 -1 -92 -2
l5 26c47 -1 70 28 90 67zM420 601l-161 -298h207l-44 298h-2zM328 759h-27c13 52 51 96 108 96c21 0 46 -11 70 -22s46 -22 62 -22c32 0 47 24 59 49h26c-7 -48 -53 -100 -105 -100c-19 0 -44 11 -68 22c-23 11 -47 26 -65 26c-34 0 -46 -19 -60 -49z" />
    <glyph glyph-name="Ccedilla" unicode="&#xc7;" horiz-adv-x="722" 
d="M725 679l-33 -176l-20 6c4 44 -1 86 -39 124c-32 32 -76 48 -131 48c-204 0 -310 -195 -310 -360c0 -174 75 -304 230 -304c127 0 192 70 240 182l22 -5l-40 -170c-6 4 -16 8 -27 8c-14 0 -44 -15 -68 -24c-46 -17 -75 -23 -128 -23c-10 0 -19 0 -28 1l-34 -50l2 -2
c5 3 19 5 31 5c38 0 69 -22 69 -66c0 -65 -62 -86 -117 -86c-31 0 -62 8 -90 21l18 26c17 -7 37 -15 56 -15c29 0 67 11 67 46c0 26 -21 42 -45 42c-14 0 -29 -4 -39 -9l-7 10l55 82c-160 25 -271 150 -271 331c0 217 180 392 394 392c149 0 167 -47 200 -47
c13 0 22 12 31 20z" />
    <glyph glyph-name="Eacute" unicode="&#xc9;" horiz-adv-x="667" 
d="M19 0l5 26h14c63 -1 72 26 80 67l94 515c2 9 2 16 2 25c0 16 -16 39 -65 39h-20l5 26c81 -1 162 -4 243 -4s161 3 242 4l-11 -139h-20v24c0 72 -40 83 -154 83h-122l-52 -284h130c46 -1 86 5 97 45l13 48h17l-41 -227h-16l3 39c4 45 -27 54 -90 54h-119l-39 -223
c-2 -13 -5 -26 -5 -38c0 -27 11 -48 57 -48h157c114 0 131 34 174 136h23l-45 -168c-46 0 -222 2 -337 2c-73 0 -147 -1 -220 -2zM369 737h-26l152 148c12 9 21 19 34 19c16 0 32 -15 32 -33c0 -19 -24 -32 -35 -39l-115 -75c-16 -11 -35 -20 -42 -20z" />
    <glyph glyph-name="Ecircumflex" unicode="&#xca;" horiz-adv-x="667" 
d="M19 0l5 26h14c63 -1 72 26 80 67l94 515c2 9 2 16 2 25c0 16 -16 39 -65 39h-20l5 26c81 -1 162 -4 243 -4s161 3 242 4l-11 -139h-20v24c0 72 -40 83 -154 83h-122l-52 -284h130c46 -1 86 5 97 45l13 48h17l-41 -227h-16l3 39c4 45 -27 54 -90 54h-119l-39 -223
c-2 -13 -5 -26 -5 -38c0 -27 11 -48 57 -48h157c114 0 131 34 174 136h23l-45 -168c-46 0 -222 2 -337 2c-73 0 -147 -1 -220 -2zM451 904l88 -167h-33l-82 107l-135 -107h-37l161 167h38z" />
    <glyph glyph-name="Edieresis" unicode="&#xcb;" horiz-adv-x="667" 
d="M19 0l5 26h14c63 -1 72 26 80 67l94 515c2 9 2 16 2 25c0 16 -16 39 -65 39h-20l5 26c81 -1 162 -4 243 -4s161 3 242 4l-11 -139h-20v24c0 72 -40 83 -154 83h-122l-52 -284h130c46 -1 86 5 97 45l13 48h17l-41 -227h-16l3 39c4 45 -27 54 -90 54h-119l-39 -223
c-2 -13 -5 -26 -5 -38c0 -27 11 -48 57 -48h157c114 0 131 34 174 136h23l-45 -168c-46 0 -222 2 -337 2c-73 0 -147 -1 -220 -2zM259 801c0 28 21 49 48 49c28 0 50 -21 50 -49c0 -27 -22 -49 -50 -49c-27 0 -48 22 -48 49zM459 801c0 28 21 49 48 49c28 0 50 -21 50 -49
c0 -27 -22 -49 -50 -49c-27 0 -48 22 -48 49z" />
    <glyph glyph-name="Egrave" unicode="&#xc8;" horiz-adv-x="667" 
d="M19 0l5 26h14c63 -1 72 26 80 67l94 515c2 9 2 16 2 25c0 16 -16 39 -65 39h-20l5 26c81 -1 162 -4 243 -4s161 3 242 4l-11 -139h-20v24c0 72 -40 83 -154 83h-122l-52 -284h130c46 -1 86 5 97 45l13 48h17l-41 -227h-16l3 39c4 45 -27 54 -90 54h-119l-39 -223
c-2 -13 -5 -26 -5 -38c0 -27 11 -48 57 -48h157c114 0 131 34 174 136h23l-45 -168c-46 0 -222 2 -337 2c-73 0 -147 -1 -220 -2zM346 888l121 -151h-21c-8 0 -13 5 -17 8l-117 88c-16 13 -29 27 -29 39c0 14 15 32 30 32c17 0 22 -3 33 -16z" />
    <glyph glyph-name="Iacute" unicode="&#xcd;" horiz-adv-x="389" 
d="M23 0l5 26h17c56 0 62 12 76 71l97 529c9 50 -39 46 -67 46h-18l5 26c50 -2 98 -2 147 -2c38 0 77 2 117 2l-5 -26h-19c-10 0 -60 6 -70 -43l-98 -533c-11 -60 4 -70 66 -70h15l-5 -26c-44 0 -89 2 -133 2c-43 0 -87 -1 -130 -2zM255 737h-26l152 148c12 9 21 19 34 19
c16 0 32 -15 32 -33c0 -19 -24 -32 -35 -39l-115 -75c-16 -11 -35 -20 -42 -20z" />
    <glyph glyph-name="Icircumflex" unicode="&#xce;" horiz-adv-x="389" 
d="M23 0l5 26h17c56 0 62 12 76 71l97 529c9 50 -39 46 -67 46h-18l5 26c50 -2 98 -2 147 -2c38 0 77 2 117 2l-5 -26h-19c-10 0 -60 6 -70 -43l-98 -533c-11 -60 4 -70 66 -70h15l-5 -26c-44 0 -89 2 -133 2c-43 0 -87 -1 -130 -2zM337 904l88 -167h-33l-82 107l-135 -107
h-37l161 167h38z" />
    <glyph glyph-name="Idieresis" unicode="&#xcf;" horiz-adv-x="389" 
d="M23 0l5 26h17c56 0 62 12 76 71l97 529c9 50 -39 46 -67 46h-18l5 26c50 -2 98 -2 147 -2c38 0 77 2 117 2l-5 -26h-19c-10 0 -60 6 -70 -43l-98 -533c-11 -60 4 -70 66 -70h15l-5 -26c-44 0 -89 2 -133 2c-43 0 -87 -1 -130 -2zM145 801c0 28 21 49 48 49
c28 0 50 -21 50 -49c0 -27 -22 -49 -50 -49c-27 0 -48 22 -48 49zM345 801c0 28 21 49 48 49c28 0 50 -21 50 -49c0 -27 -22 -49 -50 -49c-27 0 -48 22 -48 49z" />
    <glyph glyph-name="Igrave" unicode="&#xcc;" horiz-adv-x="389" 
d="M23 0l5 26h17c56 0 62 12 76 71l97 529c9 50 -39 46 -67 46h-18l5 26c50 -2 98 -2 147 -2c38 0 77 2 117 2l-5 -26h-19c-10 0 -60 6 -70 -43l-98 -533c-11 -60 4 -70 66 -70h15l-5 -26c-44 0 -89 2 -133 2c-43 0 -87 -1 -130 -2zM232 888l121 -151h-21c-8 0 -13 5 -17 8
l-117 88c-16 13 -29 27 -29 39c0 14 15 32 30 32c17 0 22 -3 33 -16z" />
    <glyph glyph-name="Ntilde" unicode="&#xd1;" horiz-adv-x="833" 
d="M19 0l4 26h14c56 0 77 10 99 136l76 432c1 5 -26 49 -54 61c-22 11 -47 17 -56 17h-9l4 26c30 -2 61 -3 91 -3c22 0 45 3 67 3l382 -567l71 417c5 22 7 45 7 67c0 52 -33 57 -73 57h-19l4 26c37 -2 74 -3 111 -3c39 0 79 3 118 3l-4 -26h-15c-66 0 -70 -55 -82 -119
l-86 -467c17 -28 38 -57 71 -66l-5 -20c-20 1 -39 2 -59 2s-40 -1 -60 -2l-371 551l-66 -404c-4 -25 -10 -55 -10 -75c0 -26 17 -46 64 -46h32l-5 -26c-40 0 -81 2 -121 2s-80 -1 -120 -2zM369 759h-27c13 52 51 96 108 96c21 0 46 -11 70 -22s46 -22 62 -22
c32 0 47 24 59 49h26c-7 -48 -53 -100 -105 -100c-19 0 -44 11 -68 22c-23 11 -47 26 -65 26c-34 0 -46 -19 -60 -49z" />
    <glyph glyph-name="Oacute" unicode="&#xd3;" horiz-adv-x="889" 
d="M186 294c0 -157 70 -277 245 -277c197 0 297 212 297 379c0 150 -74 285 -244 285c-207 0 -298 -208 -298 -387zM88 315c0 221 176 398 395 398c180 0 343 -126 343 -315c0 -228 -168 -413 -400 -413c-200 0 -338 126 -338 330zM505 737h-26l152 148c12 9 21 19 34 19
c16 0 32 -15 32 -33c0 -19 -24 -32 -35 -39l-115 -75c-16 -11 -35 -20 -42 -20z" />
    <glyph glyph-name="Ocircumflex" unicode="&#xd4;" horiz-adv-x="889" 
d="M186 294c0 -157 70 -277 245 -277c197 0 297 212 297 379c0 150 -74 285 -244 285c-207 0 -298 -208 -298 -387zM88 315c0 221 176 398 395 398c180 0 343 -126 343 -315c0 -228 -168 -413 -400 -413c-200 0 -338 126 -338 330zM587 904l88 -167h-33l-82 107l-135 -107
h-37l161 167h38z" />
    <glyph glyph-name="Odieresis" unicode="&#xd6;" horiz-adv-x="889" 
d="M186 294c0 -157 70 -277 245 -277c197 0 297 212 297 379c0 150 -74 285 -244 285c-207 0 -298 -208 -298 -387zM88 315c0 221 176 398 395 398c180 0 343 -126 343 -315c0 -228 -168 -413 -400 -413c-200 0 -338 126 -338 330zM395 801c0 28 21 49 48 49
c28 0 50 -21 50 -49c0 -27 -22 -49 -50 -49c-27 0 -48 22 -48 49zM595 801c0 28 21 49 48 49c28 0 50 -21 50 -49c0 -27 -22 -49 -50 -49c-27 0 -48 22 -48 49z" />
    <glyph glyph-name="Ograve" unicode="&#xd2;" horiz-adv-x="889" 
d="M186 294c0 -157 70 -277 245 -277c197 0 297 212 297 379c0 150 -74 285 -244 285c-207 0 -298 -208 -298 -387zM88 315c0 221 176 398 395 398c180 0 343 -126 343 -315c0 -228 -168 -413 -400 -413c-200 0 -338 126 -338 330zM482 888l121 -151h-21c-8 0 -13 5 -17 8
l-117 88c-16 13 -29 27 -29 39c0 14 15 32 30 32c17 0 22 -3 33 -16z" />
    <glyph glyph-name="Otilde" unicode="&#xd5;" horiz-adv-x="889" 
d="M186 294c0 -157 70 -277 245 -277c197 0 297 212 297 379c0 150 -74 285 -244 285c-207 0 -298 -208 -298 -387zM88 315c0 221 176 398 395 398c180 0 343 -126 343 -315c0 -228 -168 -413 -400 -413c-200 0 -338 126 -338 330zM392 759h-27c13 52 51 96 108 96
c21 0 46 -11 70 -22s46 -22 62 -22c32 0 47 24 59 49h26c-7 -48 -53 -100 -105 -100c-19 0 -44 11 -68 22c-23 11 -47 26 -65 26c-34 0 -46 -19 -60 -49z" />
    <glyph glyph-name="Scaron" unicode="&#x160;" horiz-adv-x="500" 
d="M50 203h20c3 -40 1 -71 17 -110c19 -47 71 -76 123 -76c75 0 137 45 137 122c0 145 -223 225 -223 390c0 108 76 184 187 184c44 0 70 -5 109 -18c9 -3 19 -7 28 -7c11 0 13 5 20 9h17l-31 -176h-22c0 14 2 28 2 42c0 74 -49 118 -122 118c-66 0 -108 -38 -108 -105
c0 -138 235 -227 235 -393c0 -113 -95 -198 -215 -198c-64 0 -108 20 -145 36l-33 -30h-23zM305 737l-88 167h33l82 -107l135 107h37l-161 -167h-38z" />
    <glyph glyph-name="Uacute" unicode="&#xda;" horiz-adv-x="778" 
d="M155 298l45 259c4 24 7 46 7 62c0 53 -35 53 -75 53h-19l5 26c52 -2 105 -2 157 -2c44 0 88 2 133 2l-5 -25h-23c-48 -2 -74 -20 -91 -124l-54 -335c-2 -14 -3 -28 -3 -40c0 -103 84 -148 163 -148c175 0 196 127 218 272l48 274c3 17 3 26 3 38c0 44 -29 62 -85 62h-15
l5 26c40 -2 82 -2 123 -2c36 0 73 2 109 2l-5 -26h-13c-72 0 -78 -100 -87 -155l-44 -266c-18 -105 -31 -151 -82 -200c-40 -39 -101 -66 -195 -66c-114 0 -235 50 -235 183c0 43 7 87 15 130zM449 737h-26l152 148c12 9 21 19 34 19c16 0 32 -15 32 -33
c0 -19 -24 -32 -35 -39l-115 -75c-16 -11 -35 -20 -42 -20z" />
    <glyph glyph-name="Ucircumflex" unicode="&#xdb;" horiz-adv-x="778" 
d="M155 298l45 259c4 24 7 46 7 62c0 53 -35 53 -75 53h-19l5 26c52 -2 105 -2 157 -2c44 0 88 2 133 2l-5 -25h-23c-48 -2 -74 -20 -91 -124l-54 -335c-2 -14 -3 -28 -3 -40c0 -103 84 -148 163 -148c175 0 196 127 218 272l48 274c3 17 3 26 3 38c0 44 -29 62 -85 62h-15
l5 26c40 -2 82 -2 123 -2c36 0 73 2 109 2l-5 -26h-13c-72 0 -78 -100 -87 -155l-44 -266c-18 -105 -31 -151 -82 -200c-40 -39 -101 -66 -195 -66c-114 0 -235 50 -235 183c0 43 7 87 15 130zM531 904l88 -167h-33l-82 107l-135 -107h-37l161 167h38z" />
    <glyph glyph-name="Udieresis" unicode="&#xdc;" horiz-adv-x="778" 
d="M155 298l45 259c4 24 7 46 7 62c0 53 -35 53 -75 53h-19l5 26c52 -2 105 -2 157 -2c44 0 88 2 133 2l-5 -25h-23c-48 -2 -74 -20 -91 -124l-54 -335c-2 -14 -3 -28 -3 -40c0 -103 84 -148 163 -148c175 0 196 127 218 272l48 274c3 17 3 26 3 38c0 44 -29 62 -85 62h-15
l5 26c40 -2 82 -2 123 -2c36 0 73 2 109 2l-5 -26h-13c-72 0 -78 -100 -87 -155l-44 -266c-18 -105 -31 -151 -82 -200c-40 -39 -101 -66 -195 -66c-114 0 -235 50 -235 183c0 43 7 87 15 130zM344 801c0 28 21 49 48 49c28 0 50 -21 50 -49c0 -27 -22 -49 -50 -49
c-27 0 -48 22 -48 49zM544 801c0 28 21 49 48 49c28 0 50 -21 50 -49c0 -27 -22 -49 -50 -49c-27 0 -48 22 -48 49z" />
    <glyph glyph-name="Ugrave" unicode="&#xd9;" horiz-adv-x="778" 
d="M155 298l45 259c4 24 7 46 7 62c0 53 -35 53 -75 53h-19l5 26c52 -2 105 -2 157 -2c44 0 88 2 133 2l-5 -25h-23c-48 -2 -74 -20 -91 -124l-54 -335c-2 -14 -3 -28 -3 -40c0 -103 84 -148 163 -148c175 0 196 127 218 272l48 274c3 17 3 26 3 38c0 44 -29 62 -85 62h-15
l5 26c40 -2 82 -2 123 -2c36 0 73 2 109 2l-5 -26h-13c-72 0 -78 -100 -87 -155l-44 -266c-18 -105 -31 -151 -82 -200c-40 -39 -101 -66 -195 -66c-114 0 -235 50 -235 183c0 43 7 87 15 130zM426 888l121 -151h-21c-8 0 -13 5 -17 8l-117 88c-16 13 -29 27 -29 39
c0 14 15 32 30 32c17 0 22 -3 33 -16z" />
    <glyph glyph-name="Yacute" unicode="&#xdd;" horiz-adv-x="667" 
d="M351 698l-5 -26h-36c-20 0 -45 -9 -33 -37l128 -303l182 285c11 17 13 29 13 34c0 20 -38 21 -62 21h-17l4 26c40 -2 81 -2 121 -2c25 0 49 0 74 2l-5 -26c-29 3 -51 -24 -67 -47l-10 -15l-220 -323l-37 -196c-12 -65 27 -65 77 -65h18l-5 -26c-51 0 -103 2 -154 2
c-43 0 -86 -1 -129 -2l4 26h22c60 -1 67 14 76 60l38 199l-154 352c-11 24 -42 35 -71 35h-10l4 26c41 -2 82 -2 123 -2c44 0 87 2 131 2zM394 737h-26l152 148c12 9 21 19 34 19c16 0 32 -15 32 -33c0 -19 -24 -32 -35 -39l-115 -75c-16 -11 -35 -20 -42 -20z" />
    <glyph glyph-name="Ydieresis" unicode="&#x178;" horiz-adv-x="667" 
d="M351 698l-5 -26h-36c-20 0 -45 -9 -33 -37l128 -303l182 285c11 17 13 29 13 34c0 20 -38 21 -62 21h-17l4 26c40 -2 81 -2 121 -2c25 0 49 0 74 2l-5 -26c-29 3 -51 -24 -67 -47l-10 -15l-220 -323l-37 -196c-12 -65 27 -65 77 -65h18l-5 -26c-51 0 -103 2 -154 2
c-43 0 -86 -1 -129 -2l4 26h22c60 -1 67 14 76 60l38 199l-154 352c-11 24 -42 35 -71 35h-10l4 26c41 -2 82 -2 123 -2c44 0 87 2 131 2zM284 801c0 28 21 49 48 49c28 0 50 -21 50 -49c0 -27 -22 -49 -50 -49c-27 0 -48 22 -48 49zM484 801c0 28 21 49 48 49
c28 0 50 -21 50 -49c0 -27 -22 -49 -50 -49c-27 0 -48 22 -48 49z" />
    <glyph glyph-name="Zcaron" unicode="&#x17d;" horiz-adv-x="722" 
d="M21 0v8l548 652h-233c-112 0 -155 -4 -196 -113h-24l44 151h544v-8l-542 -649h316c73 0 94 22 111 36c23 18 46 71 57 106h23l-47 -183c-103 1 -206 2 -309 2c-97 0 -195 -2 -292 -2zM416 737l-88 167h33l82 -107l135 107h37l-161 -167h-38z" />
    <glyph glyph-name="aacute" unicode="&#xe1;" horiz-adv-x="500" 
d="M87 128c0 -34 12 -69 51 -69c97 0 221 211 221 300c0 25 -24 51 -50 51c-108 0 -222 -183 -222 -282zM400 424l14 32c4 7 10 20 22 20h21c6 0 9 -2 9 -5c0 -2 -1 -4 -2 -8l-99 -355c-3 -9 -4 -15 -4 -25c0 -7 3 -14 12 -14c29 0 55 42 74 59l16 -13
c-39 -41 -97 -130 -160 -130c-15 0 -34 8 -34 28c0 17 8 45 17 73l28 88l-1 3c-51 -77 -144 -192 -224 -192c-61 0 -76 47 -76 83c0 159 195 389 324 389c25 0 48 -14 63 -33zM285 546h-26l152 148c12 9 21 19 34 19c16 0 32 -15 32 -33c0 -19 -24 -32 -35 -39l-115 -75
c-16 -11 -35 -20 -42 -20z" />
    <glyph glyph-name="acircumflex" unicode="&#xe2;" horiz-adv-x="500" 
d="M87 128c0 -34 12 -69 51 -69c97 0 221 211 221 300c0 25 -24 51 -50 51c-108 0 -222 -183 -222 -282zM400 424l14 32c4 7 10 20 22 20h21c6 0 9 -2 9 -5c0 -2 -1 -4 -2 -8l-99 -355c-3 -9 -4 -15 -4 -25c0 -7 3 -14 12 -14c29 0 55 42 74 59l16 -13
c-39 -41 -97 -130 -160 -130c-15 0 -34 8 -34 28c0 17 8 45 17 73l28 88l-1 3c-51 -77 -144 -192 -224 -192c-61 0 -76 47 -76 83c0 159 195 389 324 389c25 0 48 -14 63 -33zM367 713l88 -167h-33l-82 107l-135 -107h-37l161 167h38z" />
    <glyph glyph-name="adieresis" unicode="&#xe4;" horiz-adv-x="500" 
d="M87 128c0 -34 12 -69 51 -69c97 0 221 211 221 300c0 25 -24 51 -50 51c-108 0 -222 -183 -222 -282zM400 424l14 32c4 7 10 20 22 20h21c6 0 9 -2 9 -5c0 -2 -1 -4 -2 -8l-99 -355c-3 -9 -4 -15 -4 -25c0 -7 3 -14 12 -14c29 0 55 42 74 59l16 -13
c-39 -41 -97 -130 -160 -130c-15 0 -34 8 -34 28c0 17 8 45 17 73l28 88l-1 3c-51 -77 -144 -192 -224 -192c-61 0 -76 47 -76 83c0 159 195 389 324 389c25 0 48 -14 63 -33zM175 610c0 28 21 49 48 49c28 0 50 -21 50 -49c0 -27 -22 -49 -50 -49c-27 0 -48 22 -48 49z
M375 610c0 28 21 49 48 49c28 0 50 -21 50 -49c0 -27 -22 -49 -50 -49c-27 0 -48 22 -48 49z" />
    <glyph glyph-name="agrave" unicode="&#xe0;" horiz-adv-x="500" 
d="M87 128c0 -34 12 -69 51 -69c97 0 221 211 221 300c0 25 -24 51 -50 51c-108 0 -222 -183 -222 -282zM400 424l14 32c4 7 10 20 22 20h21c6 0 9 -2 9 -5c0 -2 -1 -4 -2 -8l-99 -355c-3 -9 -4 -15 -4 -25c0 -7 3 -14 12 -14c29 0 55 42 74 59l16 -13
c-39 -41 -97 -130 -160 -130c-15 0 -34 8 -34 28c0 17 8 45 17 73l28 88l-1 3c-51 -77 -144 -192 -224 -192c-61 0 -76 47 -76 83c0 159 195 389 324 389c25 0 48 -14 63 -33zM262 697l121 -151h-21c-8 0 -13 5 -17 8l-117 88c-16 13 -29 27 -29 39c0 14 15 32 30 32
c17 0 22 -3 33 -16z" />
    <glyph glyph-name="aring" unicode="&#xe5;" horiz-adv-x="500" 
d="M87 128c0 -34 12 -69 51 -69c97 0 221 211 221 300c0 25 -24 51 -50 51c-108 0 -222 -183 -222 -282zM400 424l14 32c4 7 10 20 22 20h21c6 0 9 -2 9 -5c0 -2 -1 -4 -2 -8l-99 -355c-3 -9 -4 -15 -4 -25c0 -7 3 -14 12 -14c29 0 55 42 74 59l16 -13
c-39 -41 -97 -130 -160 -130c-15 0 -34 8 -34 28c0 17 8 45 17 73l28 88l-1 3c-51 -77 -144 -192 -224 -192c-61 0 -76 47 -76 83c0 159 195 389 324 389c25 0 48 -14 63 -33zM362 526c-54 0 -98 44 -98 98s44 98 98 98s98 -44 98 -98s-44 -98 -98 -98zM362 558
c36 0 66 30 66 66s-30 66 -66 66s-66 -30 -66 -66s30 -66 66 -66z" />
    <glyph glyph-name="atilde" unicode="&#xe3;" horiz-adv-x="500" 
d="M87 128c0 -34 12 -69 51 -69c97 0 221 211 221 300c0 25 -24 51 -50 51c-108 0 -222 -183 -222 -282zM400 424l14 32c4 7 10 20 22 20h21c6 0 9 -2 9 -5c0 -2 -1 -4 -2 -8l-99 -355c-3 -9 -4 -15 -4 -25c0 -7 3 -14 12 -14c29 0 55 42 74 59l16 -13
c-39 -41 -97 -130 -160 -130c-15 0 -34 8 -34 28c0 17 8 45 17 73l28 88l-1 3c-51 -77 -144 -192 -224 -192c-61 0 -76 47 -76 83c0 159 195 389 324 389c25 0 48 -14 63 -33zM172 568h-27c13 52 51 96 108 96c21 0 46 -11 70 -22s46 -22 62 -22c32 0 47 24 59 49h26
c-7 -48 -53 -100 -105 -100c-19 0 -44 11 -68 22c-23 11 -47 26 -65 26c-34 0 -46 -19 -60 -49z" />
    <glyph glyph-name="ccedilla" unicode="&#xe7;" horiz-adv-x="444" 
d="M402 146l14 -18c-57 -65 -125 -127 -211 -140l-35 -52l2 -2c5 3 19 5 31 5c38 0 69 -22 69 -66c0 -65 -62 -86 -117 -86c-31 0 -62 8 -90 21l18 26c17 -7 37 -15 56 -15c29 0 67 11 67 46c0 26 -21 42 -45 42c-14 0 -29 -4 -39 -9l-7 10l52 77c-78 1 -119 59 -119 136
c0 136 103 254 221 302c28 12 83 34 112 34c22 0 49 -14 49 -40c0 -30 -21 -52 -46 -52c-35 0 -51 32 -82 32c-101 0 -174 -183 -174 -266c0 -57 36 -92 95 -92c68 0 135 60 179 107z" />
    <glyph glyph-name="eacute" unicode="&#xe9;" horiz-adv-x="444" 
d="M372 132l14 -17c-66 -73 -139 -130 -227 -130c-92 0 -123 68 -123 135c0 160 143 337 288 337c45 0 98 -16 98 -71c0 -136 -191 -183 -298 -193c-6 -26 -8 -51 -8 -77c0 -50 35 -77 82 -77c58 0 117 38 174 93zM129 219c92 6 213 54 213 163c0 26 -15 43 -41 43
c-77 0 -156 -140 -172 -206zM257 546h-26l152 148c12 9 21 19 34 19c16 0 32 -15 32 -33c0 -19 -24 -32 -35 -39l-115 -75c-16 -11 -35 -20 -42 -20z" />
    <glyph glyph-name="ecircumflex" unicode="&#xea;" horiz-adv-x="444" 
d="M372 132l14 -17c-66 -73 -139 -130 -227 -130c-92 0 -123 68 -123 135c0 160 143 337 288 337c45 0 98 -16 98 -71c0 -136 -191 -183 -298 -193c-6 -26 -8 -51 -8 -77c0 -50 35 -77 82 -77c58 0 117 38 174 93zM129 219c92 6 213 54 213 163c0 26 -15 43 -41 43
c-77 0 -156 -140 -172 -206zM339 713l88 -167h-33l-82 107l-135 -107h-37l161 167h38z" />
    <glyph glyph-name="edieresis" unicode="&#xeb;" horiz-adv-x="444" 
d="M372 132l14 -17c-66 -73 -139 -130 -227 -130c-92 0 -123 68 -123 135c0 160 143 337 288 337c45 0 98 -16 98 -71c0 -136 -191 -183 -298 -193c-6 -26 -8 -51 -8 -77c0 -50 35 -77 82 -77c58 0 117 38 174 93zM129 219c92 6 213 54 213 163c0 26 -15 43 -41 43
c-77 0 -156 -140 -172 -206zM147 610c0 28 21 49 48 49c28 0 50 -21 50 -49c0 -27 -22 -49 -50 -49c-27 0 -48 22 -48 49zM347 610c0 28 21 49 48 49c28 0 50 -21 50 -49c0 -27 -22 -49 -50 -49c-27 0 -48 22 -48 49z" />
    <glyph glyph-name="egrave" unicode="&#xe8;" horiz-adv-x="444" 
d="M372 132l14 -17c-66 -73 -139 -130 -227 -130c-92 0 -123 68 -123 135c0 160 143 337 288 337c45 0 98 -16 98 -71c0 -136 -191 -183 -298 -193c-6 -26 -8 -51 -8 -77c0 -50 35 -77 82 -77c58 0 117 38 174 93zM129 219c92 6 213 54 213 163c0 26 -15 43 -41 43
c-77 0 -156 -140 -172 -206zM234 697l121 -151h-21c-8 0 -13 5 -17 8l-117 88c-16 13 -29 27 -29 39c0 14 15 32 30 32c17 0 22 -3 33 -16z" />
    <glyph glyph-name="iacute" unicode="&#xed;" horiz-adv-x="278" 
d="M63 313l-14 14c29 44 101 130 158 130c21 0 31 -10 31 -25s-9 -41 -14 -56l-82 -254c-6 -19 -10 -33 -10 -42c0 -10 3 -15 13 -15c14 0 66 54 76 65l16 -13c-31 -42 -102 -132 -159 -132c-29 0 -38 17 -38 40c0 12 4 29 11 49l86 254c5 14 9 28 9 37c0 7 -4 12 -12 12
c-21 0 -59 -48 -71 -64zM174 546h-26l152 148c12 9 21 19 34 19c16 0 32 -15 32 -33c0 -19 -24 -32 -35 -39l-115 -75c-16 -11 -35 -20 -42 -20z" />
    <glyph glyph-name="icircumflex" unicode="&#xee;" horiz-adv-x="278" 
d="M63 313l-14 14c29 44 101 130 158 130c21 0 31 -10 31 -25s-9 -41 -14 -56l-82 -254c-6 -19 -10 -33 -10 -42c0 -10 3 -15 13 -15c14 0 66 54 76 65l16 -13c-31 -42 -102 -132 -159 -132c-29 0 -38 17 -38 40c0 12 4 29 11 49l86 254c5 14 9 28 9 37c0 7 -4 12 -12 12
c-21 0 -59 -48 -71 -64zM256 713l88 -167h-33l-82 107l-135 -107h-37l161 167h38z" />
    <glyph glyph-name="idieresis" unicode="&#xef;" horiz-adv-x="278" 
d="M63 313l-14 14c29 44 101 130 158 130c21 0 31 -10 31 -25s-9 -41 -14 -56l-82 -254c-6 -19 -10 -33 -10 -42c0 -10 3 -15 13 -15c14 0 66 54 76 65l16 -13c-31 -42 -102 -132 -159 -132c-29 0 -38 17 -38 40c0 12 4 29 11 49l86 254c5 14 9 28 9 37c0 7 -4 12 -12 12
c-21 0 -59 -48 -71 -64zM64 610c0 28 21 49 48 49c28 0 50 -21 50 -49c0 -27 -22 -49 -50 -49c-27 0 -48 22 -48 49zM264 610c0 28 21 49 48 49c28 0 50 -21 50 -49c0 -27 -22 -49 -50 -49c-27 0 -48 22 -48 49z" />
    <glyph glyph-name="igrave" unicode="&#xec;" horiz-adv-x="278" 
d="M63 313l-14 14c29 44 101 130 158 130c21 0 31 -10 31 -25s-9 -41 -14 -56l-82 -254c-6 -19 -10 -33 -10 -42c0 -10 3 -15 13 -15c14 0 66 54 76 65l16 -13c-31 -42 -102 -132 -159 -132c-29 0 -38 17 -38 40c0 12 4 29 11 49l86 254c5 14 9 28 9 37c0 7 -4 12 -12 12
c-21 0 -59 -48 -71 -64zM151 697l121 -151h-21c-8 0 -13 5 -17 8l-117 88c-16 13 -29 27 -29 39c0 14 15 32 30 32c17 0 22 -3 33 -16z" />
    <glyph glyph-name="ntilde" unicode="&#xf1;" 
d="M45 313l-15 18c38 47 108 126 174 126c24 0 34 -15 34 -34c0 -17 -7 -36 -11 -48l-52 -151h2c48 69 196 234 294 233c31 0 40 -19 40 -41c0 -16 -5 -35 -10 -49l-80 -220c-9 -24 -15 -40 -15 -52s4 -21 18 -21c27 0 71 47 86 70l17 -13l-36 -44c-35 -43 -84 -87 -139 -87
c-26 0 -38 15 -38 33c0 16 3 33 14 62l78 213c3 9 13 36 13 50c0 13 -12 19 -23 19c-56 0 -113 -67 -146 -104c-55 -59 -98 -128 -125 -204l-20 -57c-3 -8 -25 -11 -37 -11c-10 0 -27 6 -32 13l98 295c6 19 12 38 12 50c0 10 -4 18 -16 18c-21 0 -40 -16 -58 -34zM200 568
h-27c13 52 51 96 108 96c21 0 46 -11 70 -22s46 -22 62 -22c32 0 47 24 59 49h26c-7 -48 -53 -100 -105 -100c-19 0 -44 11 -68 22c-23 11 -47 26 -65 26c-34 0 -46 -19 -60 -49z" />
    <glyph glyph-name="oacute" unicode="&#xf3;" 
d="M128 152c0 -75 28 -141 116 -141c129 0 184 176 184 279c0 71 -27 141 -113 141c-134 0 -187 -169 -187 -279zM48 186c0 144 123 271 268 271c116 0 192 -88 192 -203c0 -141 -120 -269 -263 -269c-120 0 -197 80 -197 201zM313 546h-26l152 148c12 9 21 19 34 19
c16 0 32 -15 32 -33c0 -19 -24 -32 -35 -39l-115 -75c-16 -11 -35 -20 -42 -20z" />
    <glyph glyph-name="ocircumflex" unicode="&#xf4;" 
d="M128 152c0 -75 28 -141 116 -141c129 0 184 176 184 279c0 71 -27 141 -113 141c-134 0 -187 -169 -187 -279zM48 186c0 144 123 271 268 271c116 0 192 -88 192 -203c0 -141 -120 -269 -263 -269c-120 0 -197 80 -197 201zM395 713l88 -167h-33l-82 107l-135 -107h-37
l161 167h38z" />
    <glyph glyph-name="odieresis" unicode="&#xf6;" 
d="M128 152c0 -75 28 -141 116 -141c129 0 184 176 184 279c0 71 -27 141 -113 141c-134 0 -187 -169 -187 -279zM48 186c0 144 123 271 268 271c116 0 192 -88 192 -203c0 -141 -120 -269 -263 -269c-120 0 -197 80 -197 201zM203 610c0 28 21 49 48 49c28 0 50 -21 50 -49
c0 -27 -22 -49 -50 -49c-27 0 -48 22 -48 49zM403 610c0 28 21 49 48 49c28 0 50 -21 50 -49c0 -27 -22 -49 -50 -49c-27 0 -48 22 -48 49z" />
    <glyph glyph-name="ograve" unicode="&#xf2;" 
d="M128 152c0 -75 28 -141 116 -141c129 0 184 176 184 279c0 71 -27 141 -113 141c-134 0 -187 -169 -187 -279zM48 186c0 144 123 271 268 271c116 0 192 -88 192 -203c0 -141 -120 -269 -263 -269c-120 0 -197 80 -197 201zM290 697l121 -151h-21c-8 0 -13 5 -17 8
l-117 88c-16 13 -29 27 -29 39c0 14 15 32 30 32c17 0 22 -3 33 -16z" />
    <glyph glyph-name="otilde" unicode="&#xf5;" 
d="M128 152c0 -75 28 -141 116 -141c129 0 184 176 184 279c0 71 -27 141 -113 141c-134 0 -187 -169 -187 -279zM48 186c0 144 123 271 268 271c116 0 192 -88 192 -203c0 -141 -120 -269 -263 -269c-120 0 -197 80 -197 201zM200 568h-27c13 52 51 96 108 96
c21 0 46 -11 70 -22s46 -22 62 -22c32 0 47 24 59 49h26c-7 -48 -53 -100 -105 -100c-19 0 -44 11 -68 22c-23 11 -47 26 -65 26c-34 0 -46 -19 -60 -49z" />
    <glyph glyph-name="scaron" unicode="&#x161;" horiz-adv-x="389" 
d="M37 125h13c10 -57 75 -80 127 -80c28 0 89 7 89 45c0 69 -146 112 -175 177c-7 14 -9 31 -9 46c0 52 70 97 109 122c27 17 42 22 74 22c41 0 87 -11 87 -60c0 -12 -9 -45 -21 -45h-12c-8 0 -10 7 -14 15c-9 19 -49 36 -82 36c-34 0 -75 -18 -75 -57
c0 -82 177 -104 177 -208c0 -39 -39 -82 -65 -107c-33 -33 -73 -46 -119 -46c-48 0 -127 14 -127 78c0 23 12 42 23 62zM225 546l-88 167h33l82 -107l135 107h37l-161 -167h-38z" />
    <glyph glyph-name="uacute" unicode="&#xfa;" 
d="M505 136l14 -14c-41 -45 -104 -122 -171 -122c-24 0 -37 13 -37 35c0 16 8 42 19 74l60 177h-2c-49 -63 -212 -286 -310 -286c-22 0 -42 18 -42 39c0 8 4 24 10 43l87 258c0 -1 4 11 4 22c0 8 -3 15 -13 15c-29 0 -64 -46 -83 -65l-16 17l34 35c41 41 94 93 141 93
c20 0 33 -12 33 -32c0 -16 -5 -31 -13 -52l-90 -269c-1 -5 -2 -9 -2 -14c0 -7 8 -10 17 -10c68 0 257 257 291 346c7 18 14 31 34 31c17 0 34 -19 45 -29l-109 -326c-2 -5 -3 -10 -3 -14c0 -8 4 -14 15 -14c26 0 67 46 87 62zM313 546h-26l152 148c12 9 21 19 34 19
c16 0 32 -15 32 -33c0 -19 -24 -32 -35 -39l-115 -75c-16 -11 -35 -20 -42 -20z" />
    <glyph glyph-name="ucircumflex" unicode="&#xfb;" 
d="M505 136l14 -14c-41 -45 -104 -122 -171 -122c-24 0 -37 13 -37 35c0 16 8 42 19 74l60 177h-2c-49 -63 -212 -286 -310 -286c-22 0 -42 18 -42 39c0 8 4 24 10 43l87 258c0 -1 4 11 4 22c0 8 -3 15 -13 15c-29 0 -64 -46 -83 -65l-16 17l34 35c41 41 94 93 141 93
c20 0 33 -12 33 -32c0 -16 -5 -31 -13 -52l-90 -269c-1 -5 -2 -9 -2 -14c0 -7 8 -10 17 -10c68 0 257 257 291 346c7 18 14 31 34 31c17 0 34 -19 45 -29l-109 -326c-2 -5 -3 -10 -3 -14c0 -8 4 -14 15 -14c26 0 67 46 87 62zM395 713l88 -167h-33l-82 107l-135 -107h-37
l161 167h38z" />
    <glyph glyph-name="udieresis" unicode="&#xfc;" 
d="M505 136l14 -14c-41 -45 -104 -122 -171 -122c-24 0 -37 13 -37 35c0 16 8 42 19 74l60 177h-2c-49 -63 -212 -286 -310 -286c-22 0 -42 18 -42 39c0 8 4 24 10 43l87 258c0 -1 4 11 4 22c0 8 -3 15 -13 15c-29 0 -64 -46 -83 -65l-16 17l34 35c41 41 94 93 141 93
c20 0 33 -12 33 -32c0 -16 -5 -31 -13 -52l-90 -269c-1 -5 -2 -9 -2 -14c0 -7 8 -10 17 -10c68 0 257 257 291 346c7 18 14 31 34 31c17 0 34 -19 45 -29l-109 -326c-2 -5 -3 -10 -3 -14c0 -8 4 -14 15 -14c26 0 67 46 87 62zM203 610c0 28 21 49 48 49c28 0 50 -21 50 -49
c0 -27 -22 -49 -50 -49c-27 0 -48 22 -48 49zM403 610c0 28 21 49 48 49c28 0 50 -21 50 -49c0 -27 -22 -49 -50 -49c-27 0 -48 22 -48 49z" />
    <glyph glyph-name="ugrave" unicode="&#xf9;" 
d="M505 136l14 -14c-41 -45 -104 -122 -171 -122c-24 0 -37 13 -37 35c0 16 8 42 19 74l60 177h-2c-49 -63 -212 -286 -310 -286c-22 0 -42 18 -42 39c0 8 4 24 10 43l87 258c0 -1 4 11 4 22c0 8 -3 15 -13 15c-29 0 -64 -46 -83 -65l-16 17l34 35c41 41 94 93 141 93
c20 0 33 -12 33 -32c0 -16 -5 -31 -13 -52l-90 -269c-1 -5 -2 -9 -2 -14c0 -7 8 -10 17 -10c68 0 257 257 291 346c7 18 14 31 34 31c17 0 34 -19 45 -29l-109 -326c-2 -5 -3 -10 -3 -14c0 -8 4 -14 15 -14c26 0 67 46 87 62zM290 697l121 -151h-21c-8 0 -13 5 -17 8
l-117 88c-16 13 -29 27 -29 39c0 14 15 32 30 32c17 0 22 -3 33 -16z" />
    <glyph glyph-name="yacute" unicode="&#xfd;" horiz-adv-x="500" 
d="M60 299l-9 -7l-24 14c0 66 27 151 108 151c141 0 139 -312 159 -408c42 75 109 179 109 266c0 37 -12 54 -12 82c0 30 16 60 47 60c29 0 39 -27 39 -53c0 -110 -161 -385 -232 -475c-42 -55 -111 -157 -191 -157c-21 0 -41 18 -41 40s12 41 36 41c13 0 26 -7 42 -7
c22 0 52 10 85 48l54 63l-3 52l-9 83c-16 115 -52 291 -117 291c-28 0 -48 -19 -48 -46c0 -14 2 -25 7 -38zM285 546h-26l152 148c12 9 21 19 34 19c16 0 32 -15 32 -33c0 -19 -24 -32 -35 -39l-115 -75c-16 -11 -35 -20 -42 -20z" />
    <glyph glyph-name="ydieresis" unicode="&#xff;" horiz-adv-x="500" 
d="M60 299l-9 -7l-24 14c0 66 27 151 108 151c141 0 139 -312 159 -408c42 75 109 179 109 266c0 37 -12 54 -12 82c0 30 16 60 47 60c29 0 39 -27 39 -53c0 -110 -161 -385 -232 -475c-42 -55 -111 -157 -191 -157c-21 0 -41 18 -41 40s12 41 36 41c13 0 26 -7 42 -7
c22 0 52 10 85 48l54 63l-3 52l-9 83c-16 115 -52 291 -117 291c-28 0 -48 -19 -48 -46c0 -14 2 -25 7 -38zM175 610c0 28 21 49 48 49c28 0 50 -21 50 -49c0 -27 -22 -49 -50 -49c-27 0 -48 22 -48 49zM375 610c0 28 21 49 48 49c28 0 50 -21 50 -49c0 -27 -22 -49 -50 -49
c-27 0 -48 22 -48 49z" />
    <glyph glyph-name="zcaron" unicode="&#x17e;" horiz-adv-x="444" 
d="M31 55l288 296c-40 -3 -76 12 -112 28c-17 7 -39 12 -57 12c-22 0 -46 -15 -46 -38c0 -4 11 -18 9 -30c-2 -13 -11 -22 -23 -22c-18 0 -26 18 -26 34c0 25 16 41 33 58c26 27 65 64 104 64c49 0 113 -52 155 -52c12 0 21 2 27 6c8 4 6 8 7 17c1 18 6 35 28 35
c13 0 19 -8 19 -20c0 -13 -32 -50 -52 -69l-260 -269c62 5 157 -108 207 -108c21 0 40 15 30 37c-1 8 -15 27 -15 40c0 8 10 22 26 22c18 0 27 -20 27 -35c0 -59 -57 -130 -118 -130s-143 127 -202 127c-10 0 -27 -7 -27 -19c0 -19 7 -22 7 -33c0 -13 -9 -20 -21 -21
c-16 -2 -26 12 -26 27c0 19 4 29 18 43zM252 546l-88 167h33l82 -107l135 107h37l-161 -167h-38z" />
    <glyph glyph-name="one.superior" unicode="&#xb9;" horiz-adv-x="361" 
d="M219 651l-106 -49l-10 15l176 88l12 -3l-69 -356c-4 -15 -5 -24 -5 -31c0 -10 9 -13 27 -13c17 0 35 -1 52 -1l-4 -19c-41 0 -76 1 -112 1c-37 0 -72 0 -109 -1l4 19c16 1 31 1 46 1c21 0 29 7 31 23z" />
    <glyph glyph-name="two.superior" unicode="&#xb2;" horiz-adv-x="361" 
d="M97 336h202l21 35l14 -4l-25 -85c-43 1 -87 1 -130 1c-46 0 -92 0 -138 -1c-3 0 -7 1 -7 6s1 10 1 18c1 4 4 7 6 9l86 74c50 44 135 126 135 199c0 41 -23 76 -69 76c-44 0 -67 -23 -97 -44l-10 14c37 36 76 71 134 71c65 0 108 -35 108 -94c0 -111 -154 -208 -231 -275z
" />
    <glyph glyph-name="three.superior" unicode="&#xb3;" horiz-adv-x="361" 
d="M140 492l3 20c46 2 120 36 119 91c1 38 -20 70 -64 70c-34 0 -54 -18 -80 -36l-11 11c39 34 70 57 122 57c55 0 99 -29 99 -79c0 -68 -63 -98 -118 -117v-2c62 -7 105 -37 105 -95c0 -80 -91 -139 -176 -139c-40 0 -66 3 -101 25l-7 34l27 8c15 -33 40 -47 74 -47
c61 0 109 58 109 113c0 63 -44 93 -101 86z" />
    <glyph glyph-name="Delta" unicode="&#x2206;" horiz-adv-x="626" 
d="M534 0h-554l4 21l400 673l35 10l120 -683zM452 42l-93 550l-322 -550h415z" />
    <glyph glyph-name="Omega" unicode="&#x2126;" horiz-adv-x="727" 
d="M665 135l-53 -135h-230l-2 18c61 80 182 211 213 363c45 217 -41 295 -143 295c-111 0 -222 -82 -268 -301c-31 -146 23 -265 58 -357l-11 -18h-228l6 135l22 1c7 -67 21 -78 59 -78h109c-49 56 -133 160 -98 324c42 197 197 322 359 322c166 0 262 -117 220 -313
c-31 -146 -152 -259 -239 -333h111c43 0 55 8 92 78z" />
    <glyph glyph-name="uni03BC" unicode="&#x3bc;" 
d="M48 82l85 258c0 -1 4 11 4 22c0 8 -3 15 -13 15c-29 0 -64 -46 -83 -65l-16 17l34 35c41 41 94 93 141 93c20 0 33 -12 33 -32c0 -16 -5 -31 -13 -52l-90 -269c-1 -5 -2 -9 -2 -14c0 -7 8 -10 17 -10c73 0 266 279 291 346c7 18 14 31 34 31c17 0 34 -19 45 -29
l-109 -326c-2 -5 -3 -10 -3 -14c0 -8 4 -14 15 -14c26 0 67 46 87 62l14 -14c-41 -45 -104 -122 -171 -122c-24 0 -37 13 -37 35c0 16 7 42 19 74l65 174h-2c-54 -60 -217 -283 -315 -283c-11 -55 -15 -119 -23 -166c-4 -23 -6 -62 -53 -62c-22 0 -33 15 -33 32
c0 63 48 183 79 278z" />
    <glyph glyph-name="pi" unicode="&#x3c0;" horiz-adv-x="558" 
d="M551 475l21 -9c-17 -37 -36 -64 -52 -81c-17 -3 -42 -4 -71 -4c-18 -60 -42 -177 -57 -248c-12 -59 -8 -93 26 -93c21 0 36 11 58 33l9 -19c-35 -47 -78 -66 -112 -66c-50 0 -78 26 -57 127c20 92 46 187 68 269c-60 1 -124 2 -166 2l-5 -22
c-48 -230 -124 -342 -142 -359c-17 -7 -44 -16 -59 -17l-2 16c94 90 152 278 174 383c-69 0 -99 -21 -140 -48l-9 19c35 33 84 87 184 87c36 0 78 -1 123 -2s93 -2 142 -2c30 0 44 5 67 34z" />
    <glyph glyph-name="Euro" unicode="&#x20ac;" 
d="M576 516h-21c2 9 3 17 3 26c0 88 -68 137 -143 137c-136 0 -208 -135 -233 -268h314l-14 -41h-307c-3 -24 -4 -48 -4 -70v-7h285l-13 -41h-270c13 -113 71 -230 202 -230c47 0 97 21 132 53l15 -18c-40 -42 -105 -72 -169 -72c-161 0 -249 126 -265 267h-72l14 41h55v9
c0 22 2 45 5 68h-61l13 41h56c37 157 152 302 312 302c90 0 130 -40 155 -40c13 0 23 8 32 16h11z" />
    <glyph glyph-name="afii61289" unicode="&#x2113;" horiz-adv-x="399" 
d="M329 108l15 -15c-52 -69 -112 -106 -181 -106c-44 0 -73 14 -88 39c-17 28 -20 64 -3 145l19 88l-71 -47l-7 21l85 60l27 126c36 171 56 225 110 275c30 29 58 43 88 43c57 0 72 -61 57 -131c-26 -121 -112 -217 -211 -301l-20 -98c-29 -135 -1 -171 55 -171
c47 0 89 31 125 72zM207 481l-29 -134c74 71 137 169 156 258c13 59 6 103 -26 103c-39 0 -66 -64 -101 -227z" />
    <glyph glyph-name="estimated" unicode="&#x212e;" horiz-adv-x="959" 
d="M925 334h-646c-3 0 -6 -1 -6 -4v-196c0 -8 4 -15 9 -22c63 -65 149 -106 245 -106c103 0 194 47 257 119h57c-71 -84 -187 -139 -315 -139c-221 0 -399 160 -399 358c0 199 178 359 399 359s399 -160 399 -359v-10zM779 360v197c0 8 -4 17 -10 23
c-63 62 -148 102 -242 102c-95 0 -181 -41 -244 -105c-6 -7 -10 -15 -10 -25v-192c0 -2 3 -6 6 -6h495c4 0 5 4 5 6z" />
    <glyph glyph-name="partialdiff" unicode="&#x2202;" horiz-adv-x="522" 
d="M295 431h1c47 0 101 -23 124 -74c10 32 21 67 30 105c12 52 16 109 7 162c-9 50 -51 106 -115 106c-52 0 -105 -25 -146 -54c-16 -3 -29 32 -16 54c39 22 91 42 148 42c93 0 144 -53 171 -142c23 -76 11 -173 -2 -232c-16 -74 -49 -179 -101 -256
c-61 -92 -138 -155 -231 -155c-108 0 -164 77 -137 203c15 69 54 128 93 166c45 42 112 75 174 75zM306 394h-1c-44 0 -86 -16 -127 -59c-41 -47 -69 -113 -84 -180c-16 -74 10 -139 76 -139c58 0 109 53 144 106c41 61 63 114 91 194c-7 29 -42 78 -99 78z" />
    <glyph glyph-name="product" unicode="&#x220f;" horiz-adv-x="763" 
d="M735 695v-24c-86 -6 -90 -12 -90 -62v-599c0 -60 7 -68 88 -74v-23h-244v23c79 6 85 9 85 73v624c0 28 -6 31 -35 31h-225c-28 0 -33 -3 -33 -27v-628c0 -58 -1 -66 78 -73v-23h-237v23c79 6 87 12 87 73v600c0 51 -5 56 -90 62v24h616z" />
    <glyph glyph-name="summation" unicode="&#x2211;" horiz-adv-x="637" 
d="M614 89l-41 -178h-453v21l227 357l-221 384v22h447c1 -19 7 -94 12 -157l-24 -5c-9 49 -20 82 -32 102c-13 22 -28 30 -103 30h-208l193 -330l-224 -360h265c86 0 97 5 138 121z" />
    <glyph glyph-name="uni2219" unicode="&#x2219;" horiz-adv-x="278" 
d="M205 295c0 -34 -30 -66 -65 -66c-37 0 -67 30 -67 66c0 37 30 66 66 66s66 -30 66 -66z" />
    <glyph glyph-name="radical" unicode="&#x221a;" horiz-adv-x="637" 
d="M619 895l-163 -1038l-17 -10l-219 555l-86 -43l-11 30l146 70l175 -458h2l137 904z" />
    <glyph glyph-name="infinity" unicode="&#x221e;" horiz-adv-x="787" 
d="M739 289v-1c0 -96 -72 -155 -148 -155c-61 0 -110 37 -178 115c-51 -59 -104 -115 -182 -115c-79 0 -146 65 -146 151c0 89 65 154 152 154c73 0 129 -54 180 -115c49 55 98 115 180 115c84 0 142 -61 142 -149zM237 179h1c61 0 109 61 149 103c-43 53 -87 111 -156 111
c-61 0 -96 -51 -96 -110c0 -57 41 -104 102 -104zM592 393h-1c-64 0 -116 -72 -149 -106c63 -72 100 -108 152 -108c61 0 95 55 95 105c0 68 -41 109 -97 109z" />
    <glyph glyph-name="integral" unicode="&#x222b;" horiz-adv-x="455" 
d="M254 22l-19 417c-15 337 59 411 144 411c23 0 54 -13 55 -42c0 -25 -19 -38 -39 -38c-30 0 -27 41 -50 41s-53 -33 -47 -174l18 -391c17 -368 -61 -440 -143 -440c-34 0 -56 21 -56 44c-1 23 19 41 44 41c26 0 27 -43 48 -43c32 0 50 69 45 174z" />
    <glyph glyph-name="approxequal" unicode="&#x2248;" horiz-adv-x="575" 
d="M500 425l31 -27c-26 -51 -66 -93 -125 -93c-39 0 -67 15 -112 41c-29 17 -57 32 -89 32c-45 0 -72 -33 -96 -72l-33 27c29 57 78 93 135 93c47 0 81 -25 107 -39c34 -19 56 -34 90 -34c39 0 64 26 92 72zM500 260l31 -27c-26 -51 -66 -93 -125 -93c-40 0 -67 15 -112 41
c-30 17 -58 33 -89 33c-46 0 -72 -35 -96 -73l-33 27c29 57 79 93 134 93c48 0 82 -25 108 -39c31 -17 55 -34 90 -34c39 0 64 25 92 72z" />
    <glyph glyph-name="notequal" unicode="&#x2260;" horiz-adv-x="593" 
d="M437 494l-42 -93h149v-49h-169l-64 -141h233v-48h-253l-51 -113l-39 17l43 96h-143v48h164l63 141h-227v49h247l51 111z" />
    <glyph glyph-name="lessequal" unicode="&#x2264;" horiz-adv-x="610" 
d="M558 100l-435 219v51l435 219v-59l-382 -184v-2l382 -186v-58zM561 10h-443v50h443v-50z" />
    <glyph glyph-name="greaterequal" unicode="&#x2265;" horiz-adv-x="609" 
d="M124 589l435 -219v-51l-435 -219v58l382 185v2l-382 185v59zM560 10h-441v50h441v-50z" />
    <glyph glyph-name="lozenge" unicode="&#x25ca;" horiz-adv-x="645" 
d="M596 335l-199 -404h-56l-198 404l199 408h56zM540 335l-168 352h-3l-170 -350l170 -353h3z" />
    <glyph glyph-name="uni00A0" unicode="&#xa0;" horiz-adv-x="278" 
 />
    <glyph glyph-name="uni00AD" unicode="&#xad;" horiz-adv-x="333" 
d="M39 206l18 66h236l-16 -66h-238z" />
    <glyph glyph-name="uni02C9" unicode="&#x2c9;" horiz-adv-x="278" 
d="M346 586h-259l8 47h259z" />
    <glyph glyph-name="zero.taboldstyle" unicode="&#xf643;" 
d="M75 160c0 134 72 297 247 297c83 0 159 -53 159 -176c0 -134 -72 -296 -247 -296c-83 0 -159 52 -159 175zM134 161c0 -100 48 -135 108 -135c102 0 180 116 180 255c0 99 -48 135 -108 135c-102 0 -180 -117 -180 -255z" />
    <glyph glyph-name="one.taboldstyle" unicode="&#xf644;" 
d="M80 0l3 26h40c66 0 80 10 88 50l54 277c3 16 5 29 5 39c0 20 -22 24 -71 24h-48l3 26c56 -1 114 -2 169 -2c51 0 102 2 153 2l-3 -26h-43c-65 0 -74 -9 -80 -39l-58 -303c-2 -7 -2 -12 -2 -19c0 -13 9 -29 75 -29h48l-3 -26c-55 0 -112 2 -168 2c-54 0 -108 -1 -162 -2z
" />
    <glyph glyph-name="two.taboldstyle" unicode="&#xf645;" 
d="M45 0v16c137 93 283 203 283 300c0 48 -32 81 -78 81c-28 0 -56 -8 -85 -29l-39 -26l-14 18l30 28c37 32 96 69 149 69c76 0 123 -42 123 -108c0 -77 -64 -138 -165 -215l-77 -57l2 -3h260l22 40l23 -7l-25 -107c-65 0 -137 2 -205 2s-140 -2 -204 -2z" />
    <glyph glyph-name="three.taboldstyle" unicode="&#xf646;" 
d="M135 117l-5 27c85 23 208 99 208 185c0 47 -34 74 -80 74c-34 0 -64 -12 -90 -34l-26 -22l-14 21l39 32c40 33 86 57 139 57c73 0 112 -40 112 -98c0 -72 -69 -132 -126 -162l-44 -22l2 -2c11 1 28 4 48 4c66 0 114 -52 114 -118c0 -127 -174 -287 -328 -287
c-36 0 -59 17 -59 41c0 15 12 24 25 24c35 0 38 -24 80 -24c73 0 196 90 196 215c0 72 -45 108 -104 108c-31 0 -60 -8 -87 -19z" />
    <glyph glyph-name="four.taboldstyle" unicode="&#xf647;" 
d="M17 0v27l378 430h32l-48 -391h102l-8 -66h-102l-27 -218c-13 1 -26 3 -38 3c-11 0 -25 -2 -36 -3l27 218h-280zM305 66l35 282l-2 2l-244 -284h211z" />
    <glyph glyph-name="five.taboldstyle" unicode="&#xf648;" 
d="M457 368h-222l-26 -58c71 -48 150 -117 150 -242c0 -161 -150 -296 -284 -296c-36 0 -53 11 -53 33c0 19 11 28 28 28c21 0 26 -20 75 -20c70 0 160 81 160 211c0 85 -43 168 -137 222l87 196h244z" />
    <glyph glyph-name="six.taboldstyle" unicode="&#xf649;" 
d="M527 663l3 -22l-31 -11c-223 -86 -333 -334 -333 -479c0 -61 16 -140 93 -140c62 0 126 69 126 186c0 73 -29 114 -91 114c-28 0 -54 -13 -72 -24l5 27c19 13 56 38 97 38c81 0 147 -50 147 -152c0 -121 -101 -215 -215 -215c-107 0 -176 89 -176 196
c0 234 236 434 447 482z" />
    <glyph glyph-name="seven.taboldstyle" unicode="&#xf64a;" 
d="M71 317l31 125h418l-6 -19l-421 -651l-35 13l375 577h-313l-25 -51z" />
    <glyph glyph-name="eight.taboldstyle" unicode="&#xf64b;" 
d="M202 302l41 22l-38 47c-30 37 -50 75 -50 120c0 79 57 170 190 170c91 0 160 -41 160 -134c0 -97 -66 -142 -125 -172l-33 -17l37 -42c38 -46 63 -88 63 -138c0 -117 -102 -173 -195 -173c-113 0 -171 69 -171 153c0 83 54 130 121 164zM264 303l-32 -17
c-46 -24 -85 -75 -85 -154c0 -72 37 -121 106 -121c56 0 114 40 114 109c0 54 -24 91 -61 134zM327 359l31 17c49 27 81 80 81 143c0 67 -32 116 -100 116c-63 0 -110 -42 -110 -113c0 -42 26 -83 53 -113z" />
    <glyph glyph-name="nine.taboldstyle" unicode="&#xf64c;" 
d="M30 -221l-3 22l31 11c223 86 333 334 333 479c0 61 -16 140 -93 140c-62 0 -126 -69 -126 -186c0 -73 29 -114 91 -114c28 0 54 13 72 24l-5 -27c-19 -13 -56 -38 -97 -38c-81 0 -147 50 -147 152c0 121 101 215 215 215c107 0 176 -89 176 -196
c0 -234 -236 -434 -447 -482z" />
    <glyph glyph-name="dollar.taboldstyle" unicode="&#xf653;" 
d="M294 286l-48 -275c68 6 127 55 127 128c0 54 -36 101 -79 147zM291 441l43 240c-66 0 -114 -36 -114 -105c0 -47 32 -92 71 -135zM45 -7l26 210h20c5 -90 17 -177 125 -192l53 303c-61 62 -123 126 -123 212c0 58 20 106 54 138c63 58 124 48 139 49l13 75h30l-13 -75
c10 -1 40 -6 60 -13c22 -7 32 -11 41 -11c11 0 21 9 27 10h10l-33 -177h-20c0 51 12 141 -91 157l-47 -265c54 -59 116 -117 135 -179c6 -18 8 -37 8 -55c0 -120 -105 -195 -218 -195l-13 -74h-31l14 77c-38 5 -77 20 -110 33l-44 -28h-12z" />
    <glyph glyph-name="cent.taboldstyle" unicode="&#xf654;" 
d="M215 43l96 352c-95 -7 -164 -180 -164 -257c0 -50 20 -86 68 -95zM422 146l14 -19c-55 -62 -120 -121 -202 -137l-36 -132h-34l35 128c-4 -1 -6 -1 -9 -1c-80 0 -123 59 -123 136c0 151 122 271 255 316l34 125h35l-31 -113c8 3 16 5 22 6c7 1 14 2 19 2
c25 0 49 -9 49 -41c0 -25 -21 -51 -46 -51s-38 22 -60 26l-96 -352c67 2 130 61 174 107z" />
    <glyph glyph-name="uni2215" unicode="&#x2215;" horiz-adv-x="167" 
d="M-146 -23l448 736h47l-447 -736h-48z" />
    <glyph glyph-name="uni03A9" unicode="&#x3a9;" horiz-adv-x="727" 
d="M665 135l-53 -135h-230l-2 18c61 80 182 211 213 363c45 217 -41 295 -143 295c-111 0 -222 -82 -268 -301c-31 -146 23 -265 58 -357l-11 -18h-228l6 135l22 1c7 -67 21 -78 59 -78h109c-49 56 -133 160 -98 324c42 197 197 322 359 322c166 0 262 -117 220 -313
c-31 -146 -152 -259 -239 -333h111c43 0 55 8 92 78z" />
    </font>
</defs>
</svg>
